<?xml version="1.0" encoding="utf-8"?>
<!-- Generator: Adobe Illustrator 16.0.3, SVG Export Plug-In . SVG Version: 6.00 Build 0)  -->
<!DOCTYPE svg PUBLIC "-//W3C//DTD SVG 1.1//EN" "http://www.w3.org/Graphics/SVG/1.1/DTD/svg11.dtd">
<svg version="1.1" id="Ebene_1" xmlns="http://www.w3.org/2000/svg" xmlns:xlink="http://www.w3.org/1999/xlink" x="0px" y="0px"
	 width="418px" height="324px" viewBox="0 0 418 324" enable-background="new 0 0 418 324" xml:space="preserve">
<g>
	<defs>
		<rect id="SVGID_1_" x="18" y="18" width="381.6" height="288"/>
	</defs>
	<clipPath id="SVGID_2_">
		<use xlink:href="#SVGID_1_"  overflow="visible"/>
	</clipPath>
	<rect x="18" y="18" clip-path="url(#SVGID_2_)" fill="#FFFFFF" width="381.6" height="288"/>
</g>
<rect x="18" y="18" fill="#FFFFFF" width="381.6" height="288"/>
<rect x="80.975" y="39.75" fill="#FFFFFF" width="282.639" height="219"/>
<line opacity="0.149" fill="none" stroke="#262626" stroke-width="0.4999" stroke-linejoin="round" stroke-miterlimit="10" x1="128.082" y1="258.75" x2="128.082" y2="39.75"/>
<line opacity="0.149" fill="none" stroke="#262626" stroke-width="0.4999" stroke-linejoin="round" stroke-miterlimit="10" x1="222.295" y1="258.75" x2="222.295" y2="39.75"/>
<line opacity="0.149" fill="none" stroke="#262626" stroke-width="0.4999" stroke-linejoin="round" stroke-miterlimit="10" x1="316.508" y1="258.75" x2="316.508" y2="39.75"/>
<line opacity="0.149" fill="none" stroke="#262626" stroke-width="0.4999" stroke-linejoin="round" stroke-miterlimit="10" x1="363.614" y1="258.75" x2="80.975" y2="258.75"/>
<line opacity="0.149" fill="none" stroke="#262626" stroke-width="0.4999" stroke-linejoin="round" stroke-miterlimit="10" x1="363.614" y1="227.464" x2="80.975" y2="227.464"/>
<line opacity="0.149" fill="none" stroke="#262626" stroke-width="0.4999" stroke-linejoin="round" stroke-miterlimit="10" x1="363.614" y1="196.179" x2="80.975" y2="196.179"/>
<line opacity="0.149" fill="none" stroke="#262626" stroke-width="0.4999" stroke-linejoin="round" stroke-miterlimit="10" x1="363.614" y1="164.893" x2="80.975" y2="164.893"/>
<line opacity="0.149" fill="none" stroke="#262626" stroke-width="0.4999" stroke-linejoin="round" stroke-miterlimit="10" x1="363.614" y1="133.607" x2="80.975" y2="133.607"/>
<line opacity="0.149" fill="none" stroke="#262626" stroke-width="0.4999" stroke-linejoin="round" stroke-miterlimit="10" x1="363.614" y1="102.321" x2="80.975" y2="102.321"/>
<line opacity="0.149" fill="none" stroke="#262626" stroke-width="0.4999" stroke-linejoin="round" stroke-miterlimit="10" x1="363.614" y1="71.036" x2="80.975" y2="71.036"/>
<line opacity="0.149" fill="none" stroke="#262626" stroke-width="0.4999" stroke-linejoin="round" stroke-miterlimit="10" x1="363.614" y1="39.75" x2="80.975" y2="39.75"/>
<line fill="none" stroke="#262626" stroke-width="0.4999" stroke-linejoin="round" stroke-miterlimit="10" x1="80.975" y1="258.75" x2="363.614" y2="258.75"/>
<path fill="#0072BD" d="M245.848,258.75v-64.943h-47.106v64.943H245.848z M151.635,258.75V143.837h-47.106V258.75H151.635z"/>
<rect x="104.528" y="143.837" fill="none" stroke="#000000" stroke-width="0.4999" stroke-miterlimit="10" width="47.106" height="114.913"/>
<rect x="198.741" y="193.807" fill="none" stroke="#000000" stroke-width="0.4999" stroke-miterlimit="10" width="47.106" height="64.943"/>
<polygon fill="none" stroke="#000000" stroke-width="0.4999" stroke-miterlimit="10" points="292.954,258.75 292.954,258.75 
	340.061,258.75 "/>
<path fill="#77AC30" d="M245.848,193.807v-7.235h-47.106v7.235H245.848z M151.635,143.837v-15.665h-47.106v15.665H151.635z"/>
<rect x="104.528" y="128.172" fill="none" stroke="#000000" stroke-width="0.4999" stroke-miterlimit="10" width="47.106" height="15.665"/>
<rect x="198.741" y="186.571" fill="none" stroke="#000000" stroke-width="0.4999" stroke-miterlimit="10" width="47.106" height="7.235"/>
<polygon fill="none" stroke="#000000" stroke-width="0.4999" stroke-miterlimit="10" points="292.954,258.75 292.954,258.75 
	340.061,258.75 "/>
<rect x="104.528" y="117.596" fill="#D95319" width="47.106" height="10.576"/>
<rect x="104.528" y="117.596" fill="none" stroke="#000000" stroke-width="0.4999" stroke-miterlimit="10" width="47.106" height="10.577"/>
<polygon fill="none" stroke="#000000" stroke-width="0.4999" stroke-miterlimit="10" points="198.741,186.571 198.741,186.571 
	245.848,186.571 "/>
<polygon fill="none" stroke="#000000" stroke-width="0.4999" stroke-miterlimit="10" points="292.954,258.75 292.954,258.75 
	340.061,258.75 "/>
<path fill="#EDB120" d="M340.061,258.75v-8.315h-47.106v8.315H340.061z M245.848,186.571v-8.321h-47.106v8.321H245.848z"/>
<polygon fill="none" stroke="#000000" stroke-width="0.4999" stroke-miterlimit="10" points="104.528,117.596 104.528,117.596 
	151.635,117.596 "/>
<rect x="198.741" y="178.25" fill="none" stroke="#000000" stroke-width="0.4999" stroke-miterlimit="10" width="47.106" height="8.321"/>
<rect x="292.954" y="250.435" fill="none" stroke="#000000" stroke-width="0.4999" stroke-miterlimit="10" width="47.106" height="8.315"/>
<path fill="#4DBEEE" d="M245.848,178.25v-3.836h-47.106v3.836H245.848z M151.635,117.596v-2.576h-47.106v2.576H151.635z"/>
<rect x="104.528" y="115.021" fill="none" stroke="#000000" stroke-width="0.4999" stroke-miterlimit="10" width="47.106" height="2.575"/>
<rect x="198.741" y="174.414" fill="none" stroke="#000000" stroke-width="0.4999" stroke-miterlimit="10" width="47.106" height="3.836"/>
<polygon fill="none" stroke="#000000" stroke-width="0.4999" stroke-miterlimit="10" points="292.954,250.435 292.954,250.435 
	340.061,250.435 "/>
<path fill="#7E2F8E" d="M340.061,250.435v-1.251h-47.106v1.251H340.061z M245.848,174.414v-1.251h-47.106v1.251H245.848z
	 M151.635,115.021v-1.251h-47.106v1.251H151.635z"/>
<rect x="104.528" y="113.769" fill="none" stroke="#000000" stroke-width="0.4999" stroke-miterlimit="10" width="47.106" height="1.251"/>
<rect x="198.741" y="173.163" fill="none" stroke="#000000" stroke-width="0.4999" stroke-miterlimit="10" width="47.106" height="1.251"/>
<rect x="292.954" y="249.184" fill="none" stroke="#000000" stroke-width="0.4999" stroke-miterlimit="10" width="47.106" height="1.251"/>
<line fill="none" stroke="#262626" stroke-width="0.4999" stroke-linecap="square" stroke-linejoin="round" stroke-miterlimit="10" x1="80.975" y1="258.75" x2="363.614" y2="258.75"/>
<line fill="none" stroke="#262626" stroke-width="0.4999" stroke-linecap="square" stroke-linejoin="round" stroke-miterlimit="10" x1="80.975" y1="39.75" x2="363.614" y2="39.75"/>
<line fill="none" stroke="#262626" stroke-width="0.4999" stroke-linecap="square" stroke-linejoin="round" stroke-miterlimit="10" x1="128.082" y1="258.75" x2="128.082" y2="255.923"/>
<line fill="none" stroke="#262626" stroke-width="0.4999" stroke-linecap="square" stroke-linejoin="round" stroke-miterlimit="10" x1="222.295" y1="258.75" x2="222.295" y2="255.923"/>
<line fill="none" stroke="#262626" stroke-width="0.4999" stroke-linecap="square" stroke-linejoin="round" stroke-miterlimit="10" x1="316.508" y1="258.75" x2="316.508" y2="255.923"/>
<line fill="none" stroke="#262626" stroke-width="0.4999" stroke-linecap="square" stroke-linejoin="round" stroke-miterlimit="10" x1="128.082" y1="39.75" x2="128.082" y2="42.578"/>
<line fill="none" stroke="#262626" stroke-width="0.4999" stroke-linecap="square" stroke-linejoin="round" stroke-miterlimit="10" x1="222.295" y1="39.75" x2="222.295" y2="42.578"/>
<line fill="none" stroke="#262626" stroke-width="0.4999" stroke-linecap="square" stroke-linejoin="round" stroke-miterlimit="10" x1="316.508" y1="39.75" x2="316.508" y2="42.578"/>
<g>
	<path fill="#262626" d="M101.436,278.95v-11.453h2.312v11.453H101.436z"/>
	<path fill="#262626" d="M105.973,278.95v-11.453h2.249l4.686,7.648v-7.648h2.147v11.453h-2.319l-4.615-7.469v7.469H105.973z"/>
	<path fill="#262626" d="M120.077,278.95v-9.516h-3.397v-1.938h9.098v1.938h-3.389v9.516H120.077z"/>
	<path fill="#262626" d="M127.276,278.95v-11.453h4.865c1.223,0,2.112,0.104,2.667,0.309c0.554,0.206,0.998,0.572,1.332,1.098
		c0.333,0.526,0.5,1.128,0.5,1.805c0,0.859-0.252,1.569-0.757,2.129c-0.505,0.56-1.26,0.913-2.265,1.059
		c0.5,0.292,0.912,0.612,1.238,0.961c0.325,0.349,0.764,0.969,1.316,1.859l1.397,2.234h-2.764l-1.671-2.492
		c-0.593-0.891-1-1.452-1.218-1.684s-0.45-0.391-0.695-0.477c-0.245-0.086-0.633-0.129-1.164-0.129h-0.469v4.781H127.276z
		 M129.588,272.341h1.71c1.109,0,1.801-0.047,2.077-0.141s0.492-0.255,0.648-0.484c0.156-0.229,0.234-0.516,0.234-0.859
		c0-0.385-0.103-0.696-0.309-0.934c-0.206-0.236-0.496-0.387-0.871-0.449c-0.188-0.025-0.75-0.039-1.687-0.039h-1.804V272.341z"/>
	<path fill="#262626" d="M149.143,278.95h-2.515l-1-2.602h-4.576l-0.945,2.602h-2.452l4.459-11.453h2.444L149.143,278.95z
		 M144.887,274.419l-1.578-4.25l-1.546,4.25H144.887z"/>
</g>
<g>
	<path fill="#262626" d="M196.399,278.95v-11.453h2.312v11.453H196.399z"/>
	<path fill="#262626" d="M200.936,278.95v-11.453h2.249l4.686,7.648v-7.648h2.148v11.453h-2.32l-4.615-7.469v7.469H200.936z"/>
	<path fill="#262626" d="M215.039,278.95v-9.516h-3.396v-1.938h9.098v1.938h-3.39v9.516H215.039z"/>
	<path fill="#262626" d="M222.232,278.95v-11.453h8.488v1.938h-6.177v2.539h5.747v1.93h-5.747v3.117h6.396v1.93H222.232z"/>
	<path fill="#262626" d="M232.908,278.95v-11.453h4.864c1.224,0,2.113,0.104,2.667,0.309c0.555,0.206,0.999,0.572,1.332,1.098
		c0.333,0.526,0.5,1.128,0.5,1.805c0,0.859-0.253,1.569-0.758,2.129s-1.26,0.913-2.265,1.059c0.5,0.292,0.912,0.612,1.237,0.961
		s0.765,0.969,1.316,1.859l1.397,2.234h-2.765l-1.671-2.492c-0.594-0.891-1-1.452-1.218-1.684c-0.219-0.231-0.451-0.391-0.695-0.477
		c-0.245-0.086-0.633-0.129-1.164-0.129h-0.468v4.781H232.908z M235.22,272.341h1.71c1.108,0,1.801-0.047,2.077-0.141
		c0.275-0.094,0.492-0.255,0.648-0.484s0.234-0.516,0.234-0.859c0-0.385-0.104-0.696-0.309-0.934
		c-0.206-0.236-0.496-0.387-0.871-0.449c-0.188-0.025-0.75-0.039-1.687-0.039h-1.804V272.341z"/>
</g>
<g>
	<path fill="#262626" d="M296.094,275.224l2.249-0.219c0.135,0.755,0.41,1.31,0.823,1.664c0.414,0.354,0.973,0.531,1.676,0.531
		c0.744,0,1.305-0.157,1.683-0.473s0.566-0.684,0.566-1.105c0-0.271-0.08-0.501-0.238-0.691c-0.159-0.19-0.437-0.355-0.832-0.496
		c-0.271-0.094-0.888-0.261-1.851-0.5c-1.239-0.308-2.108-0.685-2.608-1.133c-0.703-0.63-1.054-1.398-1.054-2.305
		c0-0.583,0.165-1.129,0.495-1.637c0.331-0.508,0.808-0.895,1.43-1.16s1.373-0.398,2.253-0.398c1.437,0,2.519,0.315,3.244,0.945
		c0.727,0.631,1.108,1.472,1.145,2.523l-2.312,0.102c-0.099-0.588-0.312-1.012-0.637-1.27s-0.813-0.387-1.464-0.387
		c-0.672,0-1.197,0.139-1.577,0.414c-0.245,0.178-0.367,0.414-0.367,0.711c0,0.271,0.114,0.503,0.344,0.695
		c0.291,0.245,0.999,0.5,2.124,0.766c1.124,0.266,1.956,0.54,2.495,0.824c0.538,0.284,0.96,0.672,1.265,1.164
		s0.457,1.101,0.457,1.824c0,0.656-0.183,1.271-0.547,1.844s-0.88,0.999-1.546,1.277c-0.667,0.278-1.497,0.418-2.491,0.418
		c-1.447,0-2.56-0.335-3.335-1.004S296.244,276.505,296.094,275.224z"/>
	<path fill="#262626" d="M307.379,278.95v-11.453h2.312v5.086l4.67-5.086h3.107l-4.311,4.461l4.545,6.992h-2.991l-3.146-5.375
		l-1.874,1.914v3.461H307.379z"/>
	<path fill="#262626" d="M318.827,278.95v-11.453h2.312v11.453H318.827z"/>
	<path fill="#262626" d="M323.341,278.95v-11.453h3.709c1.405,0,2.322,0.058,2.749,0.172c0.656,0.172,1.205,0.546,1.647,1.121
		c0.442,0.576,0.664,1.319,0.664,2.23c0,0.703-0.128,1.294-0.383,1.773s-0.579,0.855-0.973,1.129
		c-0.393,0.273-0.792,0.454-1.198,0.543c-0.552,0.109-1.352,0.164-2.397,0.164h-1.507v4.32H323.341z M325.652,269.435v3.25h1.265
		c0.911,0,1.521-0.06,1.827-0.18c0.308-0.12,0.548-0.308,0.723-0.563s0.262-0.552,0.262-0.891c0-0.416-0.122-0.76-0.367-1.031
		c-0.245-0.271-0.555-0.439-0.93-0.508c-0.275-0.052-0.83-0.078-1.663-0.078H325.652z"/>
</g>
<g>
	<path fill="#262626" d="M167.788,295.272l-2.38,0.43c-0.08-0.476-0.262-0.834-0.545-1.075c-0.283-0.24-0.651-0.36-1.104-0.36
		c-0.601,0-1.081,0.208-1.439,0.623s-0.537,1.11-0.537,2.084c0,1.083,0.182,1.848,0.545,2.295c0.364,0.446,0.852,0.67,1.465,0.67
		c0.458,0,0.833-0.13,1.125-0.391c0.292-0.261,0.499-0.709,0.619-1.346l2.371,0.404c-0.246,1.089-0.719,1.911-1.417,2.467
		s-1.635,0.833-2.809,0.833c-1.334,0-2.398-0.421-3.191-1.263c-0.793-0.843-1.19-2.009-1.19-3.498c0-1.507,0.398-2.68,1.194-3.52
		c0.796-0.839,1.873-1.259,3.23-1.259c1.111,0,1.994,0.239,2.65,0.718C167.03,293.563,167.501,294.292,167.788,295.272z"/>
	<path fill="#262626" d="M169.059,297.008c0-0.802,0.197-1.578,0.593-2.329c0.395-0.75,0.955-1.323,1.679-1.719
		s1.533-0.593,2.427-0.593c1.38,0,2.511,0.448,3.394,1.345c0.882,0.897,1.323,2.03,1.323,3.399c0,1.381-0.445,2.525-1.336,3.433
		c-0.891,0.908-2.012,1.362-3.363,1.362c-0.836,0-1.633-0.188-2.392-0.567c-0.759-0.378-1.336-0.932-1.731-1.662
		C169.256,298.946,169.059,298.057,169.059,297.008z M171.533,297.137c0,0.905,0.214,1.599,0.644,2.08s0.959,0.722,1.589,0.722
		c0.63,0,1.158-0.24,1.585-0.722c0.426-0.481,0.64-1.181,0.64-2.097c0-0.895-0.213-1.582-0.64-2.063
		c-0.427-0.481-0.955-0.723-1.585-0.723c-0.63,0-1.16,0.241-1.589,0.723C171.748,295.538,171.533,296.231,171.533,297.137z"/>
	<path fill="#262626" d="M188.731,301.7h-2.242v-1.341c-0.372,0.521-0.812,0.91-1.318,1.165s-1.018,0.382-1.534,0.382
		c-1.048,0-1.946-0.422-2.693-1.268c-0.748-0.845-1.121-2.023-1.121-3.536c0-1.547,0.364-2.723,1.091-3.528
		c0.728-0.805,1.646-1.207,2.758-1.207c1.019,0,1.901,0.424,2.646,1.271v-4.537h2.414V301.7z M182.288,296.939
		c0,0.974,0.135,1.679,0.404,2.114c0.389,0.63,0.934,0.945,1.632,0.945c0.555,0,1.028-0.236,1.417-0.709
		c0.389-0.473,0.584-1.179,0.584-2.119c0-1.048-0.189-1.803-0.567-2.264c-0.378-0.462-0.862-0.692-1.452-0.692
		c-0.573,0-1.053,0.228-1.439,0.684C182.481,295.354,182.288,296.034,182.288,296.939z"/>
	<path fill="#262626" d="M191.11,291.336v-2.234h2.414v2.234H191.11z M191.11,301.7v-9.127h2.414v9.127H191.11z"/>
	<path fill="#262626" d="M204.297,301.7h-2.414v-4.658c0-0.985-0.052-1.622-0.155-1.912c-0.103-0.289-0.271-0.514-0.502-0.675
		c-0.232-0.16-0.511-0.24-0.838-0.24c-0.418,0-0.793,0.115-1.125,0.344c-0.333,0.229-0.56,0.533-0.683,0.911
		s-0.185,1.077-0.185,2.097v4.134h-2.414v-9.127h2.242v1.341c0.796-1.031,1.798-1.547,3.007-1.547c0.532,0,1.019,0.096,1.46,0.288
		c0.441,0.191,0.775,0.437,1.001,0.734s0.384,0.636,0.473,1.015c0.088,0.378,0.133,0.919,0.133,1.624V301.7z"/>
	<path fill="#262626" d="M206.522,302.302l2.757,0.335c0.046,0.321,0.152,0.542,0.318,0.662c0.229,0.172,0.59,0.258,1.082,0.258
		c0.63,0,1.103-0.095,1.417-0.284c0.212-0.126,0.373-0.329,0.481-0.609c0.074-0.201,0.111-0.57,0.111-1.109v-1.332
		c-0.722,0.986-1.632,1.479-2.731,1.479c-1.226,0-2.196-0.519-2.912-1.556c-0.562-0.819-0.842-1.839-0.842-3.06
		c0-1.529,0.368-2.698,1.104-3.506c0.736-0.808,1.65-1.212,2.745-1.212c1.128,0,2.059,0.496,2.792,1.486v-1.28h2.259v8.19
		c0,1.077-0.089,1.882-0.266,2.415c-0.178,0.532-0.427,0.95-0.748,1.254c-0.32,0.304-0.749,0.542-1.284,0.714
		s-1.213,0.258-2.031,0.258c-1.546,0-2.643-0.266-3.291-0.795c-0.647-0.53-0.971-1.202-0.971-2.016
		C206.513,302.514,206.516,302.416,206.522,302.302z M208.678,296.948c0,0.968,0.188,1.677,0.562,2.127
		c0.376,0.449,0.838,0.674,1.388,0.674c0.59,0,1.088-0.23,1.495-0.691c0.406-0.461,0.609-1.145,0.609-2.05
		c0-0.945-0.194-1.646-0.584-2.105c-0.39-0.458-0.882-0.688-1.478-0.688c-0.578,0-1.055,0.225-1.431,0.675
		C208.866,295.34,208.678,296.025,208.678,296.948z"/>
	<path fill="#262626" d="M222.199,292.573h2.226v1.246c0.796-0.968,1.743-1.452,2.843-1.452c0.585,0,1.092,0.12,1.521,0.361
		c0.43,0.24,0.782,0.604,1.057,1.091c0.401-0.486,0.834-0.851,1.298-1.091c0.464-0.241,0.959-0.361,1.486-0.361
		c0.67,0,1.236,0.136,1.7,0.408s0.811,0.672,1.04,1.199c0.166,0.39,0.249,1.02,0.249,1.891v5.835h-2.414v-5.217
		c0-0.905-0.083-1.489-0.249-1.753c-0.224-0.344-0.567-0.516-1.031-0.516c-0.338,0-0.655,0.104-0.953,0.31s-0.513,0.509-0.645,0.906
		c-0.132,0.398-0.197,1.027-0.197,1.887v4.383h-2.414v-5.002c0-0.888-0.043-1.461-0.129-1.719s-0.219-0.449-0.399-0.575
		s-0.426-0.189-0.734-0.189c-0.373,0-0.708,0.101-1.005,0.301c-0.298,0.201-0.512,0.49-0.641,0.868s-0.193,1.006-0.193,1.882v4.435
		h-2.414V292.573z"/>
	<path fill="#262626" d="M237.465,297.008c0-0.802,0.198-1.578,0.593-2.329c0.396-0.75,0.955-1.323,1.68-1.719
		s1.533-0.593,2.427-0.593c1.38,0,2.512,0.448,3.394,1.345c0.882,0.897,1.322,2.03,1.322,3.399c0,1.381-0.445,2.525-1.335,3.433
		c-0.891,0.908-2.012,1.362-3.363,1.362c-0.837,0-1.634-0.188-2.393-0.567c-0.759-0.378-1.336-0.932-1.731-1.662
		C237.663,298.946,237.465,298.057,237.465,297.008z M239.939,297.137c0,0.905,0.215,1.599,0.645,2.08
		c0.429,0.481,0.959,0.722,1.589,0.722s1.158-0.24,1.585-0.722s0.64-1.181,0.64-2.097c0-0.895-0.213-1.582-0.64-2.063
		c-0.427-0.481-0.955-0.723-1.585-0.723s-1.16,0.241-1.589,0.723C240.154,295.538,239.939,296.231,239.939,297.137z"/>
	<path fill="#262626" d="M257.137,301.7h-2.242v-1.341c-0.372,0.521-0.812,0.91-1.318,1.165s-1.019,0.382-1.533,0.382
		c-1.049,0-1.946-0.422-2.693-1.268c-0.747-0.845-1.121-2.023-1.121-3.536c0-1.547,0.363-2.723,1.091-3.528
		c0.728-0.805,1.646-1.207,2.758-1.207c1.02,0,1.901,0.424,2.646,1.271v-4.537h2.414V301.7z M250.694,296.939
		c0,0.974,0.134,1.679,0.403,2.114c0.39,0.63,0.934,0.945,1.632,0.945c0.556,0,1.028-0.236,1.418-0.709s0.584-1.179,0.584-2.119
		c0-1.048-0.189-1.803-0.567-2.264c-0.378-0.462-0.861-0.692-1.451-0.692c-0.573,0-1.053,0.228-1.439,0.684
		C250.887,295.354,250.694,296.034,250.694,296.939z"/>
	<path fill="#262626" d="M264.8,298.796l2.405,0.403c-0.31,0.883-0.798,1.555-1.465,2.016s-1.502,0.691-2.504,0.691
		c-1.586,0-2.761-0.519-3.522-1.556c-0.601-0.83-0.901-1.879-0.901-3.145c0-1.513,0.395-2.697,1.186-3.554
		c0.79-0.856,1.789-1.285,2.998-1.285c1.357,0,2.428,0.448,3.213,1.345c0.784,0.897,1.159,2.271,1.125,4.121h-6.048
		c0.018,0.716,0.212,1.273,0.584,1.672c0.373,0.397,0.837,0.597,1.392,0.597c0.379,0,0.696-0.103,0.954-0.31
		C264.474,299.586,264.668,299.254,264.8,298.796z M264.938,296.354c-0.018-0.698-0.198-1.229-0.541-1.594
		c-0.344-0.364-0.762-0.546-1.255-0.546c-0.526,0-0.962,0.192-1.306,0.576s-0.513,0.905-0.507,1.563H264.938z"/>
</g>
<line fill="none" stroke="#262626" stroke-width="0.4999" stroke-linecap="square" stroke-linejoin="round" stroke-miterlimit="10" x1="80.975" y1="258.75" x2="80.975" y2="39.75"/>
<line fill="none" stroke="#262626" stroke-width="0.4999" stroke-linecap="square" stroke-linejoin="round" stroke-miterlimit="10" x1="363.614" y1="258.75" x2="363.614" y2="39.75"/>
<line fill="none" stroke="#262626" stroke-width="0.4999" stroke-linecap="square" stroke-linejoin="round" stroke-miterlimit="10" x1="80.975" y1="258.75" x2="83.802" y2="258.75"/>
<line fill="none" stroke="#262626" stroke-width="0.4999" stroke-linecap="square" stroke-linejoin="round" stroke-miterlimit="10" x1="80.975" y1="227.464" x2="83.802" y2="227.464"/>
<line fill="none" stroke="#262626" stroke-width="0.4999" stroke-linecap="square" stroke-linejoin="round" stroke-miterlimit="10" x1="80.975" y1="196.179" x2="83.802" y2="196.179"/>
<line fill="none" stroke="#262626" stroke-width="0.4999" stroke-linecap="square" stroke-linejoin="round" stroke-miterlimit="10" x1="80.975" y1="164.893" x2="83.802" y2="164.893"/>
<line fill="none" stroke="#262626" stroke-width="0.4999" stroke-linecap="square" stroke-linejoin="round" stroke-miterlimit="10" x1="80.975" y1="133.607" x2="83.802" y2="133.607"/>
<line fill="none" stroke="#262626" stroke-width="0.4999" stroke-linecap="square" stroke-linejoin="round" stroke-miterlimit="10" x1="80.975" y1="102.321" x2="83.802" y2="102.321"/>
<line fill="none" stroke="#262626" stroke-width="0.4999" stroke-linecap="square" stroke-linejoin="round" stroke-miterlimit="10" x1="80.975" y1="71.036" x2="83.802" y2="71.036"/>
<line fill="none" stroke="#262626" stroke-width="0.4999" stroke-linecap="square" stroke-linejoin="round" stroke-miterlimit="10" x1="80.975" y1="39.75" x2="83.802" y2="39.75"/>
<line fill="none" stroke="#262626" stroke-width="0.4999" stroke-linecap="square" stroke-linejoin="round" stroke-miterlimit="10" x1="363.614" y1="258.75" x2="360.788" y2="258.75"/>
<line fill="none" stroke="#262626" stroke-width="0.4999" stroke-linecap="square" stroke-linejoin="round" stroke-miterlimit="10" x1="363.614" y1="227.464" x2="360.788" y2="227.464"/>
<line fill="none" stroke="#262626" stroke-width="0.4999" stroke-linecap="square" stroke-linejoin="round" stroke-miterlimit="10" x1="363.614" y1="196.179" x2="360.788" y2="196.179"/>
<line fill="none" stroke="#262626" stroke-width="0.4999" stroke-linecap="square" stroke-linejoin="round" stroke-miterlimit="10" x1="363.614" y1="164.893" x2="360.788" y2="164.893"/>
<line fill="none" stroke="#262626" stroke-width="0.4999" stroke-linecap="square" stroke-linejoin="round" stroke-miterlimit="10" x1="363.614" y1="133.607" x2="360.788" y2="133.607"/>
<line fill="none" stroke="#262626" stroke-width="0.4999" stroke-linecap="square" stroke-linejoin="round" stroke-miterlimit="10" x1="363.614" y1="102.321" x2="360.788" y2="102.321"/>
<line fill="none" stroke="#262626" stroke-width="0.4999" stroke-linecap="square" stroke-linejoin="round" stroke-miterlimit="10" x1="363.614" y1="71.036" x2="360.788" y2="71.036"/>
<line fill="none" stroke="#262626" stroke-width="0.4999" stroke-linecap="square" stroke-linejoin="round" stroke-miterlimit="10" x1="363.614" y1="39.75" x2="360.788" y2="39.75"/>
<g>
	<path fill="#262626" d="M68.92,252.5c1.109,0,1.976,0.396,2.601,1.188c0.745,0.938,1.117,2.492,1.117,4.664
		c0,2.167-0.375,3.724-1.125,4.672c-0.62,0.781-1.484,1.172-2.593,1.172c-1.114,0-2.012-0.429-2.694-1.285
		c-0.682-0.856-1.023-2.384-1.023-4.582c0-2.156,0.375-3.708,1.125-4.656C66.947,252.891,67.812,252.5,68.92,252.5z M68.92,254.32
		c-0.265,0-0.502,0.085-0.71,0.254c-0.208,0.17-0.37,0.473-0.484,0.91c-0.151,0.568-0.226,1.523-0.226,2.867s0.067,2.267,0.203,2.77
		s0.306,0.837,0.512,1.004s0.441,0.25,0.707,0.25c0.266,0,0.502-0.085,0.711-0.254c0.208-0.169,0.37-0.473,0.484-0.91
		c0.151-0.563,0.227-1.516,0.227-2.859s-0.068-2.267-0.203-2.77c-0.135-0.502-0.306-0.838-0.511-1.008
		C69.421,254.405,69.186,254.32,68.92,254.32z"/>
</g>
<g>
	<path fill="#262626" d="M53.997,229.77l2.187-0.227c0.063,0.495,0.247,0.887,0.554,1.176s0.661,0.434,1.062,0.434
		c0.458,0,0.846-0.187,1.164-0.559s0.477-0.934,0.477-1.684c0-0.703-0.158-1.23-0.473-1.582s-0.725-0.527-1.23-0.527
		c-0.63,0-1.195,0.278-1.694,0.836l-1.781-0.258l1.125-5.961h5.802v2.055H57.05l-0.344,1.945c0.489-0.245,0.989-0.367,1.5-0.367
		c0.974,0,1.799,0.354,2.476,1.063s1.015,1.628,1.015,2.758c0,0.942-0.273,1.784-0.82,2.523c-0.745,1.011-1.778,1.516-3.101,1.516
		c-1.057,0-1.918-0.284-2.585-0.852S54.127,230.728,53.997,229.77z"/>
	<path fill="#262626" d="M66.57,221.215c1.109,0,1.976,0.396,2.601,1.188c0.745,0.938,1.117,2.492,1.117,4.664
		c0,2.167-0.375,3.724-1.125,4.672c-0.62,0.781-1.484,1.172-2.593,1.172c-1.114,0-2.012-0.429-2.694-1.285
		c-0.682-0.856-1.023-2.384-1.023-4.582c0-2.156,0.375-3.708,1.125-4.656C64.597,221.605,65.461,221.215,66.57,221.215z
		 M66.57,223.035c-0.265,0-0.502,0.085-0.71,0.254c-0.208,0.17-0.37,0.473-0.484,0.91c-0.151,0.568-0.226,1.523-0.226,2.867
		s0.067,2.267,0.203,2.77s0.306,0.837,0.512,1.004s0.441,0.25,0.707,0.25c0.266,0,0.502-0.085,0.711-0.254
		c0.208-0.169,0.37-0.473,0.484-0.91c0.151-0.563,0.227-1.516,0.227-2.859s-0.068-2.267-0.203-2.77
		c-0.135-0.502-0.306-0.838-0.511-1.008C67.071,223.12,66.835,223.035,66.57,223.035z"/>
</g>
<g>
	<path fill="#262626" d="M48.335,201.429h-2.194v-8.273c-0.802,0.75-1.747,1.305-2.835,1.664v-1.992
		c0.573-0.188,1.195-0.543,1.866-1.066c0.672-0.523,1.132-1.134,1.382-1.832h1.781V201.429z"/>
	<path fill="#262626" d="M55.324,189.929c1.109,0,1.976,0.396,2.601,1.188c0.745,0.938,1.117,2.492,1.117,4.664
		c0,2.167-0.375,3.724-1.125,4.672c-0.62,0.781-1.484,1.172-2.593,1.172c-1.114,0-2.012-0.429-2.694-1.285
		c-0.682-0.856-1.023-2.384-1.023-4.582c0-2.156,0.375-3.708,1.125-4.656C53.351,190.319,54.215,189.929,55.324,189.929z
		 M55.324,191.749c-0.265,0-0.502,0.085-0.71,0.254c-0.208,0.17-0.37,0.473-0.484,0.91c-0.151,0.568-0.226,1.523-0.226,2.867
		s0.067,2.267,0.203,2.77s0.306,0.837,0.512,1.004s0.441,0.25,0.707,0.25c0.266,0,0.502-0.085,0.711-0.254
		c0.208-0.169,0.37-0.473,0.484-0.91c0.151-0.563,0.227-1.516,0.227-2.859s-0.068-2.267-0.203-2.77
		c-0.135-0.502-0.306-0.838-0.511-1.008C55.825,191.834,55.59,191.749,55.324,191.749z"/>
	<path fill="#262626" d="M64.219,189.929c1.109,0,1.976,0.396,2.601,1.188c0.745,0.938,1.117,2.492,1.117,4.664
		c0,2.167-0.375,3.724-1.125,4.672c-0.62,0.781-1.484,1.172-2.593,1.172c-1.114,0-2.012-0.429-2.694-1.285
		c-0.682-0.856-1.023-2.384-1.023-4.582c0-2.156,0.375-3.708,1.125-4.656C62.246,190.319,63.11,189.929,64.219,189.929z
		 M64.219,191.749c-0.265,0-0.502,0.085-0.71,0.254c-0.208,0.17-0.37,0.473-0.484,0.91c-0.151,0.568-0.226,1.523-0.226,2.867
		s0.067,2.267,0.203,2.77s0.306,0.837,0.512,1.004s0.441,0.25,0.707,0.25c0.266,0,0.502-0.085,0.711-0.254
		c0.208-0.169,0.37-0.473,0.484-0.91c0.151-0.563,0.227-1.516,0.227-2.859s-0.068-2.267-0.203-2.77
		c-0.135-0.502-0.306-0.838-0.511-1.008C64.72,191.834,64.484,191.749,64.219,191.749z"/>
</g>
<g>
	<path fill="#262626" d="M48.335,170.144h-2.194v-8.273c-0.802,0.75-1.747,1.305-2.835,1.664v-1.992
		c0.573-0.188,1.195-0.543,1.866-1.066c0.672-0.523,1.132-1.134,1.382-1.832h1.781V170.144z"/>
	<path fill="#262626" d="M51.646,167.198l2.187-0.227c0.063,0.495,0.247,0.887,0.554,1.176s0.661,0.434,1.062,0.434
		c0.458,0,0.846-0.187,1.164-0.559s0.477-0.934,0.477-1.684c0-0.703-0.158-1.23-0.473-1.582s-0.725-0.527-1.23-0.527
		c-0.63,0-1.195,0.278-1.694,0.836l-1.781-0.258l1.125-5.961h5.802v2.055H54.7l-0.344,1.945c0.489-0.245,0.989-0.367,1.5-0.367
		c0.974,0,1.799,0.354,2.476,1.063s1.015,1.628,1.015,2.758c0,0.942-0.273,1.784-0.82,2.523c-0.745,1.011-1.778,1.516-3.101,1.516
		c-1.057,0-1.918-0.284-2.585-0.852S51.776,168.156,51.646,167.198z"/>
	<path fill="#262626" d="M64.219,158.644c1.109,0,1.976,0.396,2.601,1.188c0.745,0.938,1.117,2.492,1.117,4.664
		c0,2.167-0.375,3.724-1.125,4.672c-0.62,0.781-1.484,1.172-2.593,1.172c-1.114,0-2.012-0.429-2.694-1.285
		c-0.682-0.856-1.023-2.384-1.023-4.582c0-2.156,0.375-3.708,1.125-4.656C62.246,159.034,63.11,158.644,64.219,158.644z
		 M64.219,160.464c-0.265,0-0.502,0.085-0.71,0.254c-0.208,0.169-0.37,0.473-0.484,0.91c-0.151,0.568-0.226,1.523-0.226,2.867
		s0.067,2.267,0.203,2.77s0.306,0.837,0.512,1.004s0.441,0.25,0.707,0.25c0.266,0,0.502-0.085,0.711-0.254
		c0.208-0.169,0.37-0.473,0.484-0.91c0.151-0.563,0.227-1.516,0.227-2.859s-0.068-2.267-0.203-2.77
		c-0.135-0.502-0.306-0.838-0.511-1.008C64.72,160.549,64.484,160.464,64.219,160.464z"/>
</g>
<g>
	<path fill="#262626" d="M50.131,136.818v2.039h-7.692c0.083-0.771,0.333-1.501,0.75-2.191c0.417-0.69,1.239-1.605,2.468-2.746
		c0.989-0.922,1.596-1.547,1.819-1.875c0.302-0.453,0.453-0.901,0.453-1.344c0-0.489-0.131-0.866-0.395-1.129
		c-0.263-0.263-0.626-0.395-1.089-0.395c-0.458,0-0.822,0.138-1.093,0.414c-0.271,0.276-0.427,0.734-0.468,1.375l-2.187-0.219
		c0.13-1.208,0.539-2.075,1.226-2.602c0.688-0.526,1.546-0.789,2.577-0.789c1.13,0,2.018,0.305,2.663,0.914s0.968,1.367,0.968,2.273
		c0,0.516-0.092,1.007-0.277,1.473c-0.185,0.466-0.478,0.955-0.878,1.465c-0.266,0.339-0.745,0.826-1.437,1.461
		c-0.692,0.636-1.131,1.058-1.316,1.266c-0.185,0.208-0.334,0.412-0.449,0.609H50.131z"/>
	<path fill="#262626" d="M55.324,127.357c1.109,0,1.976,0.396,2.601,1.188c0.745,0.938,1.117,2.492,1.117,4.664
		c0,2.167-0.375,3.724-1.125,4.672c-0.62,0.781-1.484,1.172-2.593,1.172c-1.114,0-2.012-0.428-2.694-1.285
		c-0.682-0.856-1.023-2.384-1.023-4.582c0-2.156,0.375-3.708,1.125-4.656C53.351,127.748,54.215,127.357,55.324,127.357z
		 M55.324,129.177c-0.265,0-0.502,0.085-0.71,0.254c-0.208,0.169-0.37,0.473-0.484,0.91c-0.151,0.568-0.226,1.523-0.226,2.867
		s0.067,2.267,0.203,2.77c0.135,0.503,0.306,0.837,0.512,1.004c0.206,0.167,0.441,0.25,0.707,0.25c0.266,0,0.502-0.084,0.711-0.254
		c0.208-0.169,0.37-0.473,0.484-0.91c0.151-0.563,0.227-1.516,0.227-2.859s-0.068-2.267-0.203-2.77
		c-0.135-0.502-0.306-0.838-0.511-1.008C55.825,129.262,55.59,129.177,55.324,129.177z"/>
	<path fill="#262626" d="M64.219,127.357c1.109,0,1.976,0.396,2.601,1.188c0.745,0.938,1.117,2.492,1.117,4.664
		c0,2.167-0.375,3.724-1.125,4.672c-0.62,0.781-1.484,1.172-2.593,1.172c-1.114,0-2.012-0.428-2.694-1.285
		c-0.682-0.856-1.023-2.384-1.023-4.582c0-2.156,0.375-3.708,1.125-4.656C62.246,127.748,63.11,127.357,64.219,127.357z
		 M64.219,129.177c-0.265,0-0.502,0.085-0.71,0.254c-0.208,0.169-0.37,0.473-0.484,0.91c-0.151,0.568-0.226,1.523-0.226,2.867
		s0.067,2.267,0.203,2.77c0.135,0.503,0.306,0.837,0.512,1.004c0.206,0.167,0.441,0.25,0.707,0.25c0.266,0,0.502-0.084,0.711-0.254
		c0.208-0.169,0.37-0.473,0.484-0.91c0.151-0.563,0.227-1.516,0.227-2.859s-0.068-2.267-0.203-2.77
		c-0.135-0.502-0.306-0.838-0.511-1.008C64.72,129.262,64.484,129.177,64.219,129.177z"/>
</g>
<g>
	<path fill="#262626" d="M50.131,105.532v2.039h-7.692c0.083-0.771,0.333-1.501,0.75-2.191c0.417-0.69,1.239-1.605,2.468-2.746
		c0.989-0.922,1.596-1.547,1.819-1.875c0.302-0.453,0.453-0.901,0.453-1.344c0-0.489-0.131-0.866-0.395-1.129
		c-0.263-0.263-0.626-0.395-1.089-0.395c-0.458,0-0.822,0.138-1.093,0.414c-0.271,0.276-0.427,0.734-0.468,1.375l-2.187-0.219
		c0.13-1.208,0.539-2.075,1.226-2.602c0.688-0.526,1.546-0.789,2.577-0.789c1.13,0,2.018,0.305,2.663,0.914s0.968,1.367,0.968,2.273
		c0,0.516-0.092,1.007-0.277,1.473c-0.185,0.466-0.478,0.955-0.878,1.465c-0.266,0.339-0.745,0.826-1.437,1.461
		c-0.692,0.636-1.131,1.058-1.316,1.266c-0.185,0.208-0.334,0.412-0.449,0.609H50.131z"/>
	<path fill="#262626" d="M51.646,104.626l2.187-0.227c0.063,0.495,0.247,0.887,0.554,1.176s0.661,0.434,1.062,0.434
		c0.458,0,0.846-0.186,1.164-0.559c0.317-0.372,0.477-0.934,0.477-1.684c0-0.703-0.158-1.23-0.473-1.582s-0.725-0.527-1.23-0.527
		c-0.63,0-1.195,0.279-1.694,0.836l-1.781-0.258l1.125-5.961h5.802v2.055H54.7l-0.344,1.945c0.489-0.245,0.989-0.367,1.5-0.367
		c0.974,0,1.799,0.354,2.476,1.063c0.677,0.708,1.015,1.628,1.015,2.758c0,0.943-0.273,1.784-0.82,2.523
		c-0.745,1.011-1.778,1.516-3.101,1.516c-1.057,0-1.918-0.284-2.585-0.852C52.174,106.348,51.776,105.584,51.646,104.626z"/>
	<path fill="#262626" d="M64.219,96.071c1.109,0,1.976,0.396,2.601,1.188c0.745,0.938,1.117,2.492,1.117,4.664
		c0,2.167-0.375,3.724-1.125,4.672c-0.62,0.781-1.484,1.172-2.593,1.172c-1.114,0-2.012-0.428-2.694-1.285
		c-0.682-0.856-1.023-2.384-1.023-4.582c0-2.156,0.375-3.708,1.125-4.656C62.246,96.462,63.11,96.071,64.219,96.071z M64.219,97.892
		c-0.265,0-0.502,0.085-0.71,0.254c-0.208,0.169-0.37,0.473-0.484,0.91c-0.151,0.568-0.226,1.523-0.226,2.867
		s0.067,2.267,0.203,2.77c0.135,0.503,0.306,0.837,0.512,1.004c0.206,0.167,0.441,0.25,0.707,0.25c0.266,0,0.502-0.084,0.711-0.254
		c0.208-0.169,0.37-0.473,0.484-0.91c0.151-0.563,0.227-1.516,0.227-2.859s-0.068-2.267-0.203-2.77
		c-0.135-0.502-0.306-0.838-0.511-1.008C64.72,97.977,64.484,97.892,64.219,97.892z"/>
</g>
<g>
	<path fill="#262626" d="M42.642,73.247l2.125-0.258c0.067,0.542,0.25,0.956,0.546,1.242c0.297,0.287,0.656,0.43,1.078,0.43
		c0.453,0,0.834-0.172,1.144-0.516c0.31-0.344,0.465-0.807,0.465-1.391c0-0.552-0.148-0.989-0.445-1.313
		c-0.296-0.323-0.659-0.484-1.085-0.484c-0.281,0-0.617,0.055-1.007,0.164l0.242-1.789c0.593,0.016,1.046-0.113,1.359-0.387
		s0.468-0.637,0.468-1.09c0-0.385-0.114-0.692-0.343-0.922c-0.229-0.229-0.534-0.344-0.914-0.344c-0.375,0-0.695,0.13-0.96,0.391
		c-0.266,0.261-0.427,0.641-0.484,1.141l-2.023-0.344c0.141-0.692,0.353-1.246,0.637-1.66s0.679-0.739,1.187-0.977
		c0.507-0.237,1.076-0.355,1.706-0.355c1.078,0,1.942,0.344,2.593,1.031c0.536,0.563,0.805,1.198,0.805,1.906
		c0,1.005-0.549,1.808-1.648,2.406c0.656,0.141,1.18,0.456,1.574,0.945c0.393,0.49,0.589,1.081,0.589,1.773
		c0,1.005-0.367,1.862-1.101,2.57c-0.734,0.708-1.648,1.063-2.741,1.063c-1.036,0-1.895-0.298-2.577-0.895
		C43.147,74.99,42.751,74.21,42.642,73.247z"/>
	<path fill="#262626" d="M55.324,64.786c1.109,0,1.976,0.396,2.601,1.188c0.745,0.938,1.117,2.492,1.117,4.664
		c0,2.167-0.375,3.724-1.125,4.672c-0.62,0.781-1.484,1.172-2.593,1.172c-1.114,0-2.012-0.428-2.694-1.285
		c-0.682-0.856-1.023-2.384-1.023-4.582c0-2.156,0.375-3.708,1.125-4.656C53.351,65.176,54.215,64.786,55.324,64.786z
		 M55.324,66.606c-0.265,0-0.502,0.085-0.71,0.254c-0.208,0.169-0.37,0.473-0.484,0.91c-0.151,0.568-0.226,1.523-0.226,2.867
		s0.067,2.267,0.203,2.77c0.135,0.503,0.306,0.837,0.512,1.004c0.206,0.167,0.441,0.25,0.707,0.25c0.266,0,0.502-0.084,0.711-0.254
		c0.208-0.169,0.37-0.473,0.484-0.91c0.151-0.563,0.227-1.516,0.227-2.859s-0.068-2.267-0.203-2.77
		c-0.135-0.502-0.306-0.838-0.511-1.008C55.825,66.691,55.59,66.606,55.324,66.606z"/>
	<path fill="#262626" d="M64.219,64.786c1.109,0,1.976,0.396,2.601,1.188c0.745,0.938,1.117,2.492,1.117,4.664
		c0,2.167-0.375,3.724-1.125,4.672c-0.62,0.781-1.484,1.172-2.593,1.172c-1.114,0-2.012-0.428-2.694-1.285
		c-0.682-0.856-1.023-2.384-1.023-4.582c0-2.156,0.375-3.708,1.125-4.656C62.246,65.176,63.11,64.786,64.219,64.786z M64.219,66.606
		c-0.265,0-0.502,0.085-0.71,0.254c-0.208,0.169-0.37,0.473-0.484,0.91c-0.151,0.568-0.226,1.523-0.226,2.867
		s0.067,2.267,0.203,2.77c0.135,0.503,0.306,0.837,0.512,1.004c0.206,0.167,0.441,0.25,0.707,0.25c0.266,0,0.502-0.084,0.711-0.254
		c0.208-0.169,0.37-0.473,0.484-0.91c0.151-0.563,0.227-1.516,0.227-2.859s-0.068-2.267-0.203-2.77
		c-0.135-0.502-0.306-0.838-0.511-1.008C64.72,66.691,64.484,66.606,64.219,66.606z"/>
</g>
<g>
	<path fill="#262626" d="M42.642,41.961l2.125-0.258c0.067,0.542,0.25,0.956,0.546,1.242c0.297,0.287,0.656,0.43,1.078,0.43
		c0.453,0,0.834-0.172,1.144-0.516c0.31-0.344,0.465-0.807,0.465-1.391c0-0.552-0.148-0.989-0.445-1.313
		c-0.296-0.323-0.659-0.484-1.085-0.484c-0.281,0-0.617,0.055-1.007,0.164l0.242-1.789c0.593,0.016,1.046-0.113,1.359-0.387
		s0.468-0.637,0.468-1.09c0-0.385-0.114-0.692-0.343-0.922c-0.229-0.229-0.534-0.344-0.914-0.344c-0.375,0-0.695,0.13-0.96,0.391
		c-0.266,0.261-0.427,0.641-0.484,1.141l-2.023-0.344c0.141-0.692,0.353-1.246,0.637-1.66s0.679-0.739,1.187-0.977
		c0.507-0.237,1.076-0.355,1.706-0.355c1.078,0,1.942,0.344,2.593,1.031c0.536,0.563,0.805,1.198,0.805,1.906
		c0,1.005-0.549,1.808-1.648,2.406c0.656,0.141,1.18,0.456,1.574,0.945c0.393,0.49,0.589,1.081,0.589,1.773
		c0,1.005-0.367,1.862-1.101,2.57c-0.734,0.708-1.648,1.063-2.741,1.063c-1.036,0-1.895-0.298-2.577-0.895
		C43.147,43.705,42.751,42.925,42.642,41.961z"/>
	<path fill="#262626" d="M51.646,42.055l2.187-0.227c0.063,0.495,0.247,0.887,0.554,1.176s0.661,0.434,1.062,0.434
		c0.458,0,0.846-0.186,1.164-0.559c0.317-0.372,0.477-0.934,0.477-1.684c0-0.703-0.158-1.23-0.473-1.582s-0.725-0.527-1.23-0.527
		c-0.63,0-1.195,0.279-1.694,0.836l-1.781-0.258l1.125-5.961h5.802v2.055H54.7l-0.344,1.945c0.489-0.245,0.989-0.367,1.5-0.367
		c0.974,0,1.799,0.354,2.476,1.063c0.677,0.708,1.015,1.628,1.015,2.758c0,0.943-0.273,1.784-0.82,2.523
		c-0.745,1.011-1.778,1.516-3.101,1.516c-1.057,0-1.918-0.284-2.585-0.852C52.174,43.776,51.776,43.013,51.646,42.055z"/>
	<path fill="#262626" d="M64.219,33.5c1.109,0,1.976,0.396,2.601,1.188c0.745,0.938,1.117,2.492,1.117,4.664
		c0,2.167-0.375,3.724-1.125,4.672c-0.62,0.781-1.484,1.172-2.593,1.172c-1.114,0-2.012-0.428-2.694-1.285
		c-0.682-0.856-1.023-2.384-1.023-4.582c0-2.156,0.375-3.708,1.125-4.656C62.246,33.891,63.11,33.5,64.219,33.5z M64.219,35.32
		c-0.265,0-0.502,0.085-0.71,0.254c-0.208,0.169-0.37,0.473-0.484,0.91c-0.151,0.568-0.226,1.523-0.226,2.867
		s0.067,2.267,0.203,2.77c0.135,0.503,0.306,0.837,0.512,1.004c0.206,0.167,0.441,0.25,0.707,0.25c0.266,0,0.502-0.084,0.711-0.254
		c0.208-0.169,0.37-0.473,0.484-0.91c0.151-0.563,0.227-1.516,0.227-2.859s-0.068-2.267-0.203-2.77
		c-0.135-0.502-0.306-0.838-0.511-1.008C64.72,35.405,64.484,35.32,64.219,35.32z"/>
</g>
<g>
	<path fill="#262626" d="M34.544,226.09H21.95v-2.415h4.536c-0.847-0.744-1.271-1.627-1.271-2.646c0-1.111,0.402-2.031,1.207-2.759
		s1.96-1.092,3.466-1.092c1.558,0,2.758,0.371,3.6,1.113s1.263,1.643,1.263,2.703c0,0.521-0.13,1.035-0.391,1.542
		c-0.261,0.507-0.646,0.944-1.156,1.311h1.34V226.09z M29.785,223.692c0.945,0,1.644-0.149,2.096-0.447
		c0.642-0.418,0.962-0.974,0.962-1.667c0-0.533-0.228-0.987-0.683-1.362c-0.456-0.375-1.173-0.563-2.152-0.563
		c-1.042,0-1.794,0.188-2.255,0.566c-0.461,0.379-0.691,0.863-0.691,1.453c0,0.578,0.225,1.06,0.674,1.443
		C28.186,223.5,28.869,223.692,29.785,223.692z"/>
	<path fill="#262626" d="M24.184,215.235H21.95v-2.414h2.233V215.235z M34.544,215.235h-9.123v-2.414h9.123V215.235z"/>
	<path fill="#262626" d="M25.421,206.161h1.924v1.649h3.677c0.745,0,1.178-0.016,1.301-0.047s0.225-0.104,0.305-0.215
		s0.12-0.248,0.12-0.408c0-0.224-0.077-0.547-0.232-0.971l1.873-0.207c0.241,0.562,0.361,1.198,0.361,1.908
		c0,0.436-0.073,0.828-0.219,1.178c-0.146,0.349-0.335,0.605-0.567,0.769s-0.545,0.276-0.94,0.34
		c-0.281,0.052-0.848,0.077-1.701,0.077h-3.977v1.108h-1.924v-1.108h-1.813l-1.409-2.424h3.222V206.161z"/>
	<path fill="#262626" d="M31.941,205.336l-0.369-2.424c0.47-0.104,0.826-0.313,1.069-0.627c0.244-0.315,0.365-0.757,0.365-1.324
		c0-0.624-0.115-1.094-0.344-1.409c-0.16-0.212-0.375-0.317-0.644-0.317c-0.184,0-0.335,0.057-0.456,0.172
		c-0.114,0.12-0.22,0.39-0.318,0.808c-0.43,1.947-0.822,3.183-1.177,3.704C29.576,204.64,28.892,205,28.015,205
		c-0.791,0-1.455-0.312-1.993-0.937c-0.538-0.624-0.807-1.593-0.807-2.904c0-1.249,0.203-2.178,0.61-2.785
		c0.407-0.606,1.008-1.025,1.804-1.254l0.421,2.277c-0.355,0.098-0.627,0.282-0.816,0.554c-0.189,0.272-0.284,0.661-0.284,1.165
		c0,0.636,0.089,1.091,0.267,1.366c0.126,0.184,0.289,0.275,0.49,0.275c0.172,0,0.318-0.081,0.438-0.241
		c0.16-0.218,0.387-0.97,0.679-2.256s0.65-2.184,1.074-2.694c0.43-0.504,1.028-0.756,1.795-0.756c0.836,0,1.555,0.35,2.156,1.048
		c0.601,0.699,0.902,1.733,0.902,3.103c0,1.243-0.252,2.228-0.756,2.952S32.806,205.112,31.941,205.336z"/>
	<path fill="#262626" d="M25.421,189.876v-2.252h1.34c-0.458-0.292-0.83-0.688-1.117-1.186c-0.286-0.499-0.429-1.052-0.429-1.659
		c0-1.06,0.415-1.959,1.246-2.698c0.83-0.739,1.987-1.108,3.47-1.108c1.523,0,2.708,0.372,3.552,1.117s1.267,1.647,1.267,2.707
		c0,0.504-0.1,0.961-0.301,1.371c-0.2,0.409-0.544,0.841-1.031,1.293h4.596v2.415H25.421z M29.828,187.486
		c1.025,0,1.783-0.203,2.272-0.609c0.49-0.407,0.734-0.902,0.734-1.487c0-0.562-0.225-1.028-0.674-1.4
		c-0.45-0.373-1.187-0.559-2.212-0.559c-0.957,0-1.667,0.191-2.131,0.575s-0.696,0.859-0.696,1.427c0,0.59,0.228,1.08,0.683,1.47
		S28.935,187.486,29.828,187.486z"/>
	<path fill="#262626" d="M31.64,173.771l0.404-2.406c0.882,0.31,1.554,0.798,2.015,1.466c0.461,0.667,0.691,1.502,0.691,2.505
		c0,1.587-0.518,2.762-1.555,3.523c-0.831,0.602-1.878,0.902-3.144,0.902c-1.512,0-2.696-0.396-3.552-1.186
		c-0.856-0.791-1.284-1.791-1.284-3c0-1.357,0.448-2.429,1.344-3.214c0.896-0.785,2.27-1.16,4.119-1.126v6.051
		c0.716-0.018,1.273-0.212,1.671-0.585c0.398-0.372,0.597-0.836,0.597-1.392c0-0.379-0.103-0.696-0.31-0.954
		C32.431,174.098,32.099,173.902,31.64,173.771z M29.201,173.634c-0.699,0.017-1.23,0.197-1.594,0.541
		c-0.363,0.344-0.545,0.762-0.545,1.255c0,0.527,0.192,0.962,0.576,1.306s0.905,0.513,1.563,0.508V173.634z"/>
	<path fill="#262626" d="M34.544,166.955v2.415h-9.123v-2.243h1.297c-0.612-0.384-1.016-0.729-1.211-1.035s-0.292-0.654-0.292-1.044
		c0-0.551,0.152-1.08,0.455-1.591l2.104,0.748c-0.263,0.407-0.395,0.785-0.395,1.135c0,0.338,0.093,0.624,0.279,0.859
		c0.186,0.234,0.522,0.42,1.009,0.554c0.487,0.135,1.506,0.202,3.058,0.202H34.544z"/>
	<path fill="#262626" d="M25.421,158.585v-1.341h-0.688c-0.767,0-1.34-0.082-1.718-0.245c-0.378-0.163-0.686-0.464-0.924-0.902
		c-0.237-0.438-0.356-0.993-0.356-1.663c0-0.688,0.103-1.361,0.31-2.02l1.684,0.326c-0.091,0.384-0.138,0.753-0.138,1.109
		c0,0.35,0.082,0.6,0.245,0.752s0.477,0.228,0.94,0.228h0.645v-1.805h1.898v1.805h7.225v2.415h-7.225v1.341H25.421z"/>
	<path fill="#262626" d="M31.64,146.381l0.404-2.406c0.882,0.309,1.554,0.798,2.015,1.465c0.461,0.667,0.691,1.503,0.691,2.505
		c0,1.587-0.518,2.762-1.555,3.523c-0.831,0.602-1.878,0.902-3.144,0.902c-1.512,0-2.696-0.396-3.552-1.186s-1.284-1.79-1.284-2.999
		c0-1.358,0.448-2.429,1.344-3.214c0.896-0.785,2.27-1.16,4.119-1.125v6.05c0.716-0.017,1.273-0.212,1.671-0.584
		c0.398-0.372,0.597-0.836,0.597-1.392c0-0.378-0.103-0.696-0.31-0.954C32.431,146.708,32.099,146.513,31.64,146.381z
		 M29.201,146.244c-0.699,0.017-1.23,0.198-1.594,0.542c-0.363,0.344-0.545,0.762-0.545,1.254c0,0.527,0.192,0.963,0.576,1.307
		s0.905,0.513,1.563,0.507V146.244z"/>
	<path fill="#262626" d="M28.204,140.074l-0.395,2.191c-0.882-0.247-1.535-0.67-1.958-1.272s-0.636-1.496-0.636-2.681
		c0-1.077,0.127-1.879,0.382-2.406c0.255-0.527,0.578-0.898,0.971-1.113c0.392-0.215,1.112-0.322,2.16-0.322l2.818,0.026
		c0.802,0,1.393-0.039,1.774-0.116c0.381-0.078,0.789-0.222,1.224-0.434v2.389c-0.16,0.063-0.398,0.14-0.713,0.232
		c-0.143,0.04-0.238,0.069-0.284,0.086c0.401,0.413,0.702,0.854,0.902,1.323c0.201,0.47,0.301,0.971,0.301,1.504
		c0,0.94-0.255,1.68-0.765,2.222c-0.509,0.542-1.154,0.812-1.933,0.812c-0.516,0-0.975-0.123-1.379-0.37
		c-0.404-0.246-0.713-0.591-0.928-1.035c-0.215-0.444-0.402-1.084-0.563-1.921c-0.212-1.129-0.41-1.911-0.593-2.346H28.35
		c-0.464,0-0.794,0.115-0.992,0.344c-0.197,0.229-0.296,0.662-0.296,1.298c0,0.43,0.084,0.765,0.253,1.005
		S27.78,139.925,28.204,140.074z M30.163,136.842c0.104,0.31,0.227,0.799,0.37,1.47c0.143,0.67,0.283,1.108,0.421,1.314
		c0.223,0.315,0.507,0.473,0.851,0.473c0.338,0,0.63-0.126,0.876-0.378c0.247-0.252,0.37-0.573,0.37-0.962
		c0-0.436-0.143-0.851-0.43-1.246c-0.218-0.292-0.484-0.484-0.799-0.576c-0.206-0.063-0.599-0.095-1.177-0.095H30.163z"/>
	<path fill="#262626" d="M25.421,127.904h1.924v1.65h3.677c0.745,0,1.178-0.016,1.301-0.047c0.123-0.031,0.225-0.103,0.305-0.215
		s0.12-0.248,0.12-0.408c0-0.224-0.077-0.547-0.232-0.971l1.873-0.206c0.241,0.562,0.361,1.197,0.361,1.908
		c0,0.436-0.073,0.828-0.219,1.177c-0.146,0.35-0.335,0.606-0.567,0.769c-0.232,0.164-0.545,0.277-0.94,0.34
		c-0.281,0.051-0.848,0.077-1.701,0.077h-3.977v1.108h-1.924v-1.108h-1.813l-1.409-2.423h3.222V127.904z"/>
	<path fill="#262626" d="M34.544,120.222h-1.366c0.487,0.333,0.871,0.769,1.151,1.311c0.281,0.542,0.421,1.113,0.421,1.714
		c0,0.613-0.134,1.164-0.404,1.65c-0.269,0.487-0.647,0.839-1.134,1.057s-1.16,0.326-2.019,0.326h-5.773v-2.415h4.192
		c1.283,0,2.069-0.044,2.358-0.133s0.518-0.25,0.687-0.486c0.169-0.235,0.253-0.533,0.253-0.894c0-0.413-0.113-0.782-0.339-1.108
		c-0.226-0.327-0.507-0.55-0.842-0.67c-0.335-0.121-1.155-0.181-2.461-0.181h-3.849v-2.415h9.123V120.222z"/>
	<path fill="#262626" d="M34.544,113.166v2.415h-9.123v-2.243h1.297c-0.612-0.384-1.016-0.729-1.211-1.036
		c-0.195-0.306-0.292-0.654-0.292-1.044c0-0.55,0.152-1.08,0.455-1.59l2.104,0.748c-0.263,0.407-0.395,0.785-0.395,1.134
		c0,0.338,0.093,0.625,0.279,0.859c0.186,0.235,0.522,0.42,1.009,0.555s1.506,0.202,3.058,0.202H34.544z"/>
	<path fill="#262626" d="M31.64,103.343l0.404-2.406c0.882,0.309,1.554,0.798,2.015,1.465c0.461,0.667,0.691,1.503,0.691,2.505
		c0,1.587-0.518,2.762-1.555,3.523c-0.831,0.602-1.878,0.902-3.144,0.902c-1.512,0-2.696-0.396-3.552-1.186s-1.284-1.79-1.284-2.999
		c0-1.358,0.448-2.429,1.344-3.214c0.896-0.785,2.27-1.16,4.119-1.125v6.05c0.716-0.017,1.273-0.212,1.671-0.584
		c0.398-0.372,0.597-0.836,0.597-1.392c0-0.378-0.103-0.696-0.31-0.954C32.431,103.669,32.099,103.475,31.64,103.343z
		 M29.201,103.206c-0.699,0.017-1.23,0.198-1.594,0.542c-0.363,0.344-0.545,0.762-0.545,1.254c0,0.527,0.192,0.963,0.576,1.307
		s0.905,0.513,1.563,0.507V103.206z"/>
</g>
<rect x="173.938" y="48" fill="#FFFFFF" width="181.429" height="108"/>
<g>
	<path d="M212.099,62.965h-1.975v-7.467h1.834v1.062c0.313-0.502,0.597-0.832,0.847-0.992c0.251-0.159,0.535-0.239,0.854-0.239
		c0.449,0,0.883,0.124,1.3,0.373l-0.611,1.723c-0.333-0.216-0.642-0.324-0.928-0.324c-0.276,0-0.511,0.077-0.703,0.229
		c-0.191,0.152-0.343,0.428-0.453,0.826c-0.11,0.398-0.165,1.233-0.165,2.503V62.965z"/>
	<path d="M220.132,60.588l1.968,0.331c-0.253,0.722-0.652,1.271-1.198,1.648c-0.546,0.377-1.229,0.566-2.049,0.566
		c-1.298,0-2.258-0.424-2.881-1.273c-0.492-0.68-0.738-1.537-0.738-2.573c0-1.238,0.323-2.207,0.97-2.908
		c0.646-0.701,1.464-1.051,2.453-1.051c1.11,0,1.986,0.367,2.629,1.1c0.642,0.734,0.948,1.857,0.92,3.372h-4.947
		c0.014,0.586,0.173,1.042,0.478,1.368s0.684,0.489,1.139,0.489c0.31,0,0.569-0.084,0.78-0.253
		C219.865,61.235,220.024,60.963,220.132,60.588z M220.244,58.591c-0.014-0.572-0.161-1.006-0.442-1.304s-0.623-0.446-1.026-0.446
		c-0.431,0-0.787,0.157-1.068,0.471c-0.281,0.314-0.419,0.741-0.414,1.28H220.244z"/>
	<path d="M223.119,60.834l1.982-0.302c0.084,0.384,0.256,0.676,0.513,0.875c0.258,0.2,0.619,0.299,1.083,0.299
		c0.511,0,0.895-0.094,1.152-0.281c0.174-0.131,0.26-0.307,0.26-0.527c0-0.15-0.047-0.274-0.14-0.373
		c-0.099-0.094-0.319-0.18-0.661-0.26c-1.593-0.352-2.603-0.672-3.029-0.963c-0.591-0.403-0.886-0.963-0.886-1.681
		c0-0.647,0.256-1.19,0.767-1.631c0.511-0.44,1.302-0.661,2.375-0.661c1.021,0,1.781,0.166,2.277,0.499
		c0.497,0.333,0.839,0.825,1.026,1.477l-1.862,0.345c-0.08-0.291-0.231-0.514-0.454-0.668c-0.222-0.155-0.54-0.232-0.952-0.232
		c-0.52,0-0.893,0.073-1.117,0.218c-0.15,0.103-0.225,0.237-0.225,0.401c0,0.141,0.065,0.26,0.196,0.358
		c0.178,0.131,0.793,0.316,1.845,0.556c1.052,0.239,1.787,0.532,2.204,0.879c0.412,0.352,0.618,0.841,0.618,1.469
		c0,0.685-0.286,1.273-0.857,1.765s-1.417,0.738-2.537,0.738c-1.017,0-1.821-0.207-2.414-0.619
		C223.69,62.103,223.303,61.542,223.119,60.834z"/>
	<path d="M231.82,54.485v-1.828h1.975v1.828H231.82z M231.82,62.965v-7.467h1.975v7.467H231.82z"/>
	<path d="M242.665,62.965h-1.834v-1.097c-0.305,0.426-0.665,0.744-1.079,0.953c-0.415,0.208-0.833,0.313-1.255,0.313
		c-0.857,0-1.592-0.346-2.203-1.037s-0.917-1.656-0.917-2.894c0-1.266,0.297-2.228,0.893-2.886c0.595-0.659,1.347-0.988,2.256-0.988
		c0.834,0,1.556,0.347,2.165,1.041v-3.712h1.975V62.965z M237.394,59.069c0,0.797,0.11,1.374,0.33,1.73
		c0.319,0.516,0.764,0.773,1.336,0.773c0.454,0,0.841-0.193,1.159-0.58c0.319-0.387,0.479-0.964,0.479-1.733
		c0-0.858-0.155-1.475-0.464-1.853c-0.31-0.377-0.705-0.566-1.188-0.566c-0.468,0-0.86,0.186-1.177,0.559
		C237.552,57.772,237.394,58.329,237.394,59.069z"/>
	<path d="M249.525,62.965v-1.118c-0.272,0.398-0.629,0.713-1.072,0.942c-0.442,0.229-0.91,0.345-1.402,0.345
		c-0.501,0-0.951-0.11-1.349-0.331c-0.398-0.22-0.687-0.53-0.865-0.928c-0.178-0.398-0.267-0.949-0.267-1.652v-4.725h1.975v3.431
		c0,1.05,0.036,1.694,0.109,1.93c0.072,0.237,0.205,0.424,0.396,0.563c0.192,0.138,0.437,0.208,0.731,0.208
		c0.337,0,0.64-0.092,0.906-0.278c0.268-0.185,0.45-0.415,0.549-0.689c0.098-0.274,0.147-0.946,0.147-2.015v-3.15h1.975v7.467
		H249.525z"/>
	<path d="M254.881,57.776l-1.792-0.324c0.201-0.722,0.548-1.256,1.04-1.603c0.492-0.347,1.224-0.52,2.193-0.52
		c0.881,0,1.537,0.104,1.968,0.313c0.431,0.209,0.734,0.474,0.91,0.795c0.176,0.321,0.264,0.91,0.264,1.768l-0.021,2.306
		c0,0.657,0.032,1.141,0.096,1.452c0.063,0.312,0.181,0.646,0.354,1.002h-1.954c-0.052-0.131-0.114-0.326-0.189-0.583
		c-0.033-0.117-0.057-0.194-0.07-0.232c-0.338,0.328-0.698,0.574-1.082,0.738c-0.385,0.164-0.795,0.246-1.23,0.246
		c-0.769,0-1.374-0.208-1.816-0.626c-0.443-0.417-0.665-0.944-0.665-1.582c0-0.422,0.102-0.798,0.303-1.128s0.483-0.583,0.847-0.759
		s0.887-0.33,1.571-0.461c0.923-0.173,1.563-0.335,1.919-0.485v-0.197c0-0.38-0.095-0.65-0.281-0.813
		c-0.188-0.162-0.542-0.242-1.062-0.242c-0.352,0-0.626,0.069-0.822,0.207C255.162,57.187,255.003,57.429,254.881,57.776z
		 M257.524,59.379c-0.254,0.084-0.654,0.185-1.202,0.302c-0.549,0.117-0.907,0.232-1.075,0.345
		c-0.258,0.183-0.387,0.415-0.387,0.696c0,0.277,0.103,0.516,0.309,0.717c0.207,0.202,0.469,0.302,0.788,0.302
		c0.355,0,0.695-0.117,1.019-0.352c0.239-0.178,0.396-0.396,0.471-0.654c0.052-0.168,0.078-0.49,0.078-0.963V59.379z"/>
	<path d="M261.41,62.965V52.657h1.975v10.308H261.41z"/>
</g>
<rect x="176.938" y="51.214" fill="#0072BD" width="29.988" height="13.752"/>
<rect x="176.938" y="51.214" fill="none" stroke="#000000" stroke-width="0.4999" stroke-miterlimit="10" width="29.988" height="13.752"/>
<g>
	<path d="M210.138,80.529V70.221h1.975v5.47l2.313-2.63h2.433l-2.552,2.728l2.734,4.739h-2.13l-1.877-3.354l-0.921,0.963v2.391
		H210.138z"/>
	<path d="M222.536,78.152l1.968,0.331c-0.253,0.722-0.652,1.271-1.198,1.648c-0.546,0.377-1.229,0.566-2.049,0.566
		c-1.298,0-2.258-0.424-2.881-1.273c-0.492-0.68-0.738-1.537-0.738-2.573c0-1.238,0.323-2.207,0.97-2.908
		c0.646-0.701,1.464-1.051,2.453-1.051c1.11,0,1.986,0.367,2.629,1.1c0.642,0.734,0.948,1.857,0.92,3.372h-4.947
		c0.014,0.586,0.173,1.042,0.478,1.368s0.684,0.489,1.139,0.489c0.31,0,0.569-0.084,0.78-0.253
		C222.27,78.799,222.429,78.527,222.536,78.152z M222.648,76.155c-0.014-0.572-0.161-1.006-0.442-1.304s-0.623-0.446-1.026-0.446
		c-0.431,0-0.787,0.157-1.068,0.471c-0.281,0.314-0.419,0.741-0.414,1.28H222.648z"/>
	<path d="M225.284,73.062h2.102l1.785,5.302l1.743-5.302h2.045l-2.636,7.186l-0.471,1.301c-0.174,0.436-0.339,0.769-0.495,0.999
		c-0.157,0.229-0.338,0.416-0.542,0.559c-0.203,0.143-0.454,0.254-0.752,0.334c-0.298,0.08-0.634,0.119-1.009,0.119
		c-0.379,0-0.752-0.04-1.117-0.119l-0.176-1.547c0.31,0.061,0.588,0.091,0.837,0.091c0.459,0,0.799-0.135,1.019-0.404
		c0.221-0.27,0.389-0.613,0.506-1.03L225.284,73.062z"/>
	<path d="M234.168,73.062h1.842v1.097c0.239-0.375,0.563-0.68,0.97-0.914c0.408-0.234,0.86-0.352,1.356-0.352
		c0.867,0,1.603,0.34,2.207,1.02s0.907,1.626,0.907,2.84c0,1.247-0.305,2.216-0.914,2.908s-1.347,1.037-2.214,1.037
		c-0.412,0-0.786-0.082-1.121-0.246s-0.688-0.445-1.058-0.844v3.762h-1.976V73.062z M236.122,76.668c0,0.839,0.166,1.459,0.499,1.86
		s0.738,0.601,1.216,0.601c0.46,0,0.842-0.184,1.146-0.552c0.305-0.368,0.457-0.971,0.457-1.811c0-0.783-0.157-1.364-0.471-1.744
		c-0.313-0.38-0.703-0.57-1.167-0.57c-0.482,0-0.883,0.187-1.201,0.559C236.281,75.385,236.122,75.938,236.122,76.668z"/>
	<path d="M242.56,76.69c0-0.656,0.162-1.292,0.485-1.906c0.323-0.614,0.781-1.083,1.374-1.406c0.593-0.323,1.255-0.485,1.985-0.485
		c1.129,0,2.055,0.367,2.776,1.1c0.722,0.734,1.082,1.661,1.082,2.781c0,1.13-0.364,2.066-1.093,2.809
		c-0.729,0.743-1.646,1.115-2.752,1.115c-0.684,0-1.336-0.155-1.957-0.464c-0.621-0.309-1.093-0.763-1.416-1.36
		S242.56,77.547,242.56,76.69z M244.584,76.795c0,0.741,0.176,1.308,0.527,1.701c0.352,0.394,0.784,0.591,1.3,0.591
		s0.948-0.197,1.297-0.591c0.349-0.394,0.523-0.965,0.523-1.715c0-0.731-0.175-1.294-0.523-1.688
		c-0.349-0.394-0.781-0.591-1.297-0.591s-0.948,0.197-1.3,0.591C244.76,75.487,244.584,76.055,244.584,76.795z"/>
	<path d="M251.81,72.049v-1.828h1.975v1.828H251.81z M251.81,80.529v-7.467h1.975v7.467H251.81z"/>
	<path d="M262.598,80.529h-1.975v-3.811c0-0.806-0.042-1.328-0.127-1.564c-0.084-0.236-0.221-0.42-0.411-0.552
		c-0.189-0.131-0.418-0.197-0.685-0.197c-0.343,0-0.649,0.094-0.921,0.281s-0.458,0.436-0.559,0.745
		c-0.102,0.31-0.151,0.881-0.151,1.716v3.382h-1.975v-7.467h1.834v1.097c0.651-0.844,1.472-1.266,2.46-1.266
		c0.436,0,0.834,0.078,1.195,0.235c0.36,0.157,0.633,0.357,0.818,0.601s0.313,0.521,0.387,0.83c0.072,0.31,0.108,0.752,0.108,1.329
		V80.529z"/>
	<path d="M268.024,73.062v1.575h-1.35v3.009c0,0.609,0.013,0.964,0.039,1.065c0.025,0.101,0.084,0.184,0.176,0.25
		c0.091,0.065,0.202,0.098,0.334,0.098c0.183,0,0.447-0.063,0.794-0.189l0.169,1.533c-0.46,0.197-0.979,0.295-1.561,0.295
		c-0.356,0-0.678-0.06-0.963-0.18c-0.286-0.119-0.496-0.274-0.629-0.464c-0.134-0.19-0.227-0.446-0.278-0.77
		c-0.042-0.229-0.063-0.693-0.063-1.392v-3.255h-0.907v-1.575h0.907v-1.483l1.981-1.153v2.637H268.024z"/>
</g>
<rect x="176.938" y="68.778" fill="#77AC30" width="29.988" height="13.752"/>
<rect x="176.938" y="68.778" fill="none" stroke="#000000" stroke-width="0.4999" stroke-miterlimit="10" width="29.988" height="13.752"/>
<g>
	<path d="M212.261,98.093l-3.009-7.467h2.073l1.406,3.811l0.407,1.272c0.108-0.323,0.176-0.537,0.204-0.64
		c0.065-0.211,0.136-0.422,0.211-0.633l1.42-3.811h2.031l-2.967,7.467H212.261z"/>
	<path d="M218.214,89.613v-1.828h1.975v1.828H218.214z M218.214,98.093v-7.467h1.975v7.467H218.214z"/>
	<path d="M221.517,95.962l1.982-0.302c0.084,0.384,0.256,0.676,0.513,0.875c0.258,0.2,0.619,0.299,1.083,0.299
		c0.511,0,0.895-0.094,1.152-0.281c0.174-0.131,0.26-0.307,0.26-0.527c0-0.15-0.047-0.274-0.14-0.373
		c-0.099-0.094-0.319-0.18-0.661-0.26c-1.593-0.352-2.603-0.672-3.029-0.963c-0.591-0.403-0.886-0.963-0.886-1.681
		c0-0.647,0.256-1.19,0.767-1.631c0.511-0.44,1.302-0.661,2.375-0.661c1.021,0,1.781,0.166,2.277,0.499
		c0.497,0.333,0.839,0.825,1.026,1.477l-1.862,0.345c-0.08-0.291-0.231-0.514-0.454-0.668c-0.222-0.155-0.54-0.232-0.952-0.232
		c-0.52,0-0.893,0.073-1.117,0.218c-0.15,0.103-0.225,0.237-0.225,0.401c0,0.141,0.065,0.26,0.196,0.358
		c0.178,0.131,0.793,0.316,1.845,0.556c1.052,0.239,1.787,0.532,2.204,0.879c0.412,0.352,0.618,0.841,0.618,1.469
		c0,0.685-0.286,1.273-0.857,1.765s-1.417,0.738-2.537,0.738c-1.017,0-1.821-0.207-2.414-0.619
		C222.088,97.23,221.7,96.67,221.517,95.962z"/>
	<path d="M235.131,98.093v-1.118c-0.272,0.398-0.629,0.713-1.072,0.942c-0.442,0.229-0.91,0.345-1.402,0.345
		c-0.501,0-0.951-0.11-1.349-0.331c-0.398-0.22-0.687-0.53-0.865-0.928c-0.178-0.398-0.267-0.949-0.267-1.652v-4.725h1.975v3.431
		c0,1.05,0.036,1.694,0.109,1.93c0.072,0.237,0.205,0.424,0.396,0.563c0.192,0.138,0.437,0.208,0.731,0.208
		c0.337,0,0.64-0.092,0.906-0.278c0.268-0.185,0.45-0.415,0.549-0.689c0.098-0.274,0.147-0.946,0.147-2.015v-3.15h1.975v7.467
		H235.131z"/>
	<path d="M240.486,92.904l-1.792-0.324c0.201-0.722,0.548-1.256,1.04-1.603c0.492-0.347,1.224-0.52,2.193-0.52
		c0.881,0,1.537,0.104,1.968,0.313c0.431,0.209,0.734,0.474,0.91,0.795c0.176,0.321,0.264,0.91,0.264,1.768l-0.021,2.306
		c0,0.657,0.032,1.141,0.096,1.452c0.063,0.312,0.181,0.646,0.354,1.002h-1.954c-0.052-0.131-0.114-0.326-0.189-0.583
		c-0.033-0.117-0.057-0.194-0.07-0.232c-0.338,0.328-0.698,0.574-1.082,0.738c-0.385,0.164-0.795,0.246-1.23,0.246
		c-0.769,0-1.374-0.208-1.816-0.626c-0.443-0.417-0.665-0.944-0.665-1.582c0-0.422,0.102-0.798,0.303-1.128s0.483-0.583,0.847-0.759
		s0.887-0.33,1.571-0.461c0.923-0.173,1.563-0.335,1.919-0.485v-0.197c0-0.38-0.095-0.65-0.281-0.813
		c-0.188-0.162-0.542-0.242-1.062-0.242c-0.352,0-0.626,0.069-0.822,0.207C240.768,92.314,240.608,92.557,240.486,92.904z
		 M243.13,94.507c-0.254,0.084-0.654,0.185-1.202,0.302c-0.549,0.117-0.907,0.232-1.075,0.345c-0.258,0.183-0.387,0.415-0.387,0.696
		c0,0.277,0.103,0.516,0.309,0.717c0.207,0.202,0.469,0.302,0.788,0.302c0.355,0,0.695-0.117,1.019-0.352
		c0.239-0.178,0.396-0.396,0.471-0.654c0.052-0.168,0.078-0.49,0.078-0.963V94.507z"/>
	<path d="M247.017,98.093V87.785h1.975v10.308H247.017z"/>
	<path d="M256.406,98.093l-2.361-7.467h1.919l1.398,4.894l1.286-4.894h1.904l1.244,4.894l1.427-4.894h1.947l-2.396,7.467h-1.898
		l-1.286-4.802l-1.265,4.802H256.406z"/>
	<path d="M265.754,94.254c0-0.656,0.162-1.292,0.485-1.906c0.323-0.614,0.781-1.083,1.374-1.406
		c0.593-0.323,1.255-0.485,1.985-0.485c1.129,0,2.055,0.367,2.776,1.1c0.722,0.734,1.082,1.661,1.082,2.781
		c0,1.13-0.364,2.066-1.093,2.809c-0.729,0.743-1.646,1.115-2.752,1.115c-0.684,0-1.336-0.155-1.957-0.464
		c-0.621-0.309-1.093-0.763-1.416-1.36S265.754,95.111,265.754,94.254z M267.778,94.359c0,0.741,0.176,1.308,0.527,1.701
		c0.352,0.394,0.784,0.591,1.3,0.591s0.948-0.197,1.297-0.591c0.349-0.394,0.523-0.965,0.523-1.715c0-0.731-0.175-1.294-0.523-1.688
		c-0.349-0.394-0.781-0.591-1.297-0.591s-0.948,0.197-1.3,0.591C267.954,93.051,267.778,93.619,267.778,94.359z"/>
	<path d="M276.895,98.093h-1.975v-7.467h1.834v1.062c0.313-0.502,0.597-0.832,0.847-0.992c0.251-0.159,0.535-0.239,0.854-0.239
		c0.449,0,0.883,0.124,1.3,0.373l-0.611,1.723c-0.333-0.216-0.642-0.324-0.928-0.324c-0.276,0-0.511,0.077-0.703,0.229
		c-0.191,0.152-0.343,0.428-0.453,0.826c-0.11,0.398-0.165,1.233-0.165,2.503V98.093z"/>
	<path d="M287.451,98.093h-1.834v-1.097c-0.305,0.426-0.665,0.744-1.079,0.953c-0.415,0.208-0.833,0.313-1.255,0.313
		c-0.857,0-1.592-0.346-2.203-1.037s-0.917-1.656-0.917-2.894c0-1.266,0.297-2.228,0.893-2.886c0.595-0.659,1.347-0.988,2.256-0.988
		c0.834,0,1.556,0.347,2.165,1.041v-3.712h1.975V98.093z M282.18,94.197c0,0.797,0.11,1.374,0.33,1.73
		c0.319,0.516,0.764,0.773,1.336,0.773c0.454,0,0.841-0.193,1.159-0.58c0.319-0.387,0.479-0.964,0.479-1.733
		c0-0.858-0.155-1.475-0.464-1.853c-0.31-0.377-0.705-0.566-1.188-0.566c-0.468,0-0.86,0.186-1.177,0.559
		C282.338,92.9,282.18,93.457,282.18,94.197z"/>
	<path d="M293.397,89.613v-1.828h1.975v1.828H293.397z M293.397,98.093v-7.467h1.975v7.467H293.397z"/>
	<path d="M304.186,98.093h-1.975v-3.811c0-0.806-0.042-1.328-0.127-1.564c-0.084-0.236-0.221-0.42-0.411-0.552
		c-0.189-0.131-0.418-0.197-0.685-0.197c-0.343,0-0.649,0.094-0.921,0.281s-0.458,0.436-0.559,0.745
		c-0.102,0.31-0.151,0.881-0.151,1.716v3.382h-1.975v-7.467h1.834v1.097c0.651-0.844,1.472-1.266,2.46-1.266
		c0.436,0,0.834,0.078,1.195,0.235c0.36,0.157,0.633,0.357,0.818,0.601s0.313,0.521,0.387,0.83c0.072,0.31,0.108,0.752,0.108,1.329
		V98.093z"/>
	<path d="M313.035,98.093h-1.834v-1.097c-0.305,0.426-0.665,0.744-1.079,0.953c-0.415,0.208-0.833,0.313-1.255,0.313
		c-0.857,0-1.592-0.346-2.203-1.037s-0.917-1.656-0.917-2.894c0-1.266,0.297-2.228,0.893-2.886c0.595-0.659,1.347-0.988,2.256-0.988
		c0.834,0,1.556,0.347,2.165,1.041v-3.712h1.975V98.093z M307.764,94.197c0,0.797,0.11,1.374,0.33,1.73
		c0.319,0.516,0.764,0.773,1.336,0.773c0.454,0,0.841-0.193,1.159-0.58c0.319-0.387,0.479-0.964,0.479-1.733
		c0-0.858-0.155-1.475-0.464-1.853c-0.31-0.377-0.705-0.566-1.188-0.566c-0.468,0-0.86,0.186-1.177,0.559
		C307.922,92.9,307.764,93.457,307.764,94.197z"/>
	<path d="M319.304,95.716l1.968,0.331c-0.253,0.722-0.652,1.271-1.198,1.648c-0.546,0.377-1.229,0.566-2.049,0.566
		c-1.298,0-2.258-0.424-2.881-1.273c-0.492-0.68-0.738-1.537-0.738-2.573c0-1.238,0.323-2.207,0.97-2.908
		c0.646-0.701,1.464-1.051,2.453-1.051c1.11,0,1.986,0.367,2.629,1.1c0.642,0.734,0.948,1.857,0.92,3.372h-4.947
		c0.014,0.586,0.173,1.042,0.478,1.368s0.684,0.489,1.139,0.489c0.31,0,0.569-0.084,0.78-0.253
		C319.037,96.363,319.196,96.091,319.304,95.716z M319.416,93.719c-0.014-0.572-0.161-1.006-0.442-1.304s-0.623-0.446-1.026-0.446
		c-0.431,0-0.787,0.157-1.068,0.471c-0.281,0.314-0.419,0.741-0.414,1.28H319.416z"/>
	<path d="M322.038,98.093l2.692-3.846l-2.579-3.621h2.41l1.321,2.053l1.392-2.053h2.319l-2.53,3.537l2.763,3.931h-2.425
		l-1.519-2.313l-1.532,2.313H322.038z"/>
</g>
<rect x="176.938" y="86.342" fill="#D95319" width="29.988" height="13.752"/>
<rect x="176.938" y="86.342" fill="none" stroke="#000000" stroke-width="0.4999" stroke-miterlimit="10" width="29.988" height="13.752"/>
<g>
	<path d="M212.099,115.657h-1.975v-7.467h1.834v1.062c0.313-0.502,0.597-0.832,0.847-0.992c0.251-0.159,0.535-0.239,0.854-0.239
		c0.449,0,0.883,0.124,1.3,0.373l-0.611,1.723c-0.333-0.216-0.642-0.324-0.928-0.324c-0.276,0-0.511,0.077-0.703,0.229
		c-0.191,0.152-0.343,0.428-0.453,0.826c-0.11,0.398-0.165,1.233-0.165,2.503V115.657z"/>
	<path d="M220.132,113.281l1.968,0.331c-0.253,0.722-0.652,1.271-1.198,1.648c-0.546,0.377-1.229,0.566-2.049,0.566
		c-1.298,0-2.258-0.424-2.881-1.273c-0.492-0.68-0.738-1.537-0.738-2.573c0-1.238,0.323-2.207,0.97-2.908
		c0.646-0.701,1.464-1.051,2.453-1.051c1.11,0,1.986,0.367,2.629,1.1c0.642,0.734,0.948,1.857,0.92,3.372h-4.947
		c0.014,0.586,0.173,1.042,0.478,1.368s0.684,0.489,1.139,0.489c0.31,0,0.569-0.084,0.78-0.253
		C219.865,113.928,220.024,113.656,220.132,113.281z M220.244,111.284c-0.014-0.572-0.161-1.006-0.442-1.304
		s-0.623-0.446-1.026-0.446c-0.431,0-0.787,0.157-1.068,0.471c-0.281,0.314-0.419,0.741-0.414,1.28H220.244z"/>
	<path d="M222.951,108.19h1.096v-0.563c0-0.628,0.067-1.097,0.201-1.406c0.133-0.309,0.379-0.561,0.737-0.756
		c0.358-0.194,0.813-0.292,1.36-0.292c0.563,0,1.112,0.084,1.651,0.253l-0.267,1.378c-0.314-0.075-0.616-0.112-0.907-0.112
		c-0.285,0-0.49,0.067-0.614,0.2c-0.125,0.134-0.187,0.391-0.187,0.77v0.527h1.476v1.554h-1.476v5.913h-1.976v-5.913h-1.096V108.19z
		"/>
	<path d="M232.931,113.281l1.968,0.331c-0.253,0.722-0.652,1.271-1.198,1.648c-0.546,0.377-1.229,0.566-2.049,0.566
		c-1.298,0-2.258-0.424-2.881-1.273c-0.492-0.68-0.738-1.537-0.738-2.573c0-1.238,0.323-2.207,0.97-2.908
		c0.646-0.701,1.464-1.051,2.453-1.051c1.11,0,1.986,0.367,2.629,1.1c0.642,0.734,0.948,1.857,0.92,3.372h-4.947
		c0.014,0.586,0.173,1.042,0.478,1.368s0.684,0.489,1.139,0.489c0.31,0,0.569-0.084,0.78-0.253
		C232.664,113.928,232.823,113.656,232.931,113.281z M233.043,111.284c-0.014-0.572-0.161-1.006-0.442-1.304
		s-0.623-0.446-1.026-0.446c-0.431,0-0.787,0.157-1.068,0.471c-0.281,0.314-0.419,0.741-0.414,1.28H233.043z"/>
	<path d="M238.505,115.657h-1.975v-7.467h1.834v1.062c0.313-0.502,0.597-0.832,0.847-0.992c0.251-0.159,0.535-0.239,0.854-0.239
		c0.449,0,0.883,0.124,1.3,0.373l-0.611,1.723c-0.333-0.216-0.642-0.324-0.928-0.324c-0.276,0-0.511,0.077-0.703,0.229
		c-0.191,0.152-0.343,0.428-0.453,0.826c-0.11,0.398-0.165,1.233-0.165,2.503V115.657z"/>
	<path d="M246.538,113.281l1.968,0.331c-0.253,0.722-0.652,1.271-1.198,1.648c-0.546,0.377-1.229,0.566-2.049,0.566
		c-1.298,0-2.258-0.424-2.881-1.273c-0.492-0.68-0.738-1.537-0.738-2.573c0-1.238,0.323-2.207,0.97-2.908
		c0.646-0.701,1.464-1.051,2.453-1.051c1.11,0,1.986,0.367,2.629,1.1c0.642,0.734,0.948,1.857,0.92,3.372h-4.947
		c0.014,0.586,0.173,1.042,0.478,1.368s0.684,0.489,1.139,0.489c0.31,0,0.569-0.084,0.78-0.253
		C246.271,113.928,246.431,113.656,246.538,113.281z M246.65,111.284c-0.014-0.572-0.161-1.006-0.442-1.304
		s-0.623-0.446-1.026-0.446c-0.431,0-0.787,0.157-1.068,0.471c-0.281,0.314-0.419,0.741-0.414,1.28H246.65z"/>
	<path d="M257.01,115.657h-1.975v-3.811c0-0.806-0.042-1.328-0.127-1.564c-0.084-0.236-0.221-0.42-0.411-0.552
		c-0.189-0.131-0.418-0.197-0.685-0.197c-0.343,0-0.649,0.094-0.921,0.281s-0.458,0.436-0.559,0.745
		c-0.102,0.31-0.151,0.881-0.151,1.716v3.382h-1.975v-7.467h1.834v1.097c0.651-0.844,1.472-1.266,2.46-1.266
		c0.436,0,0.834,0.078,1.195,0.235c0.36,0.157,0.633,0.357,0.818,0.601s0.313,0.521,0.387,0.83c0.072,0.31,0.108,0.752,0.108,1.329
		V115.657z"/>
	<path d="M265.522,110.398l-1.947,0.352c-0.065-0.389-0.215-0.682-0.446-0.879c-0.232-0.197-0.533-0.295-0.903-0.295
		c-0.492,0-0.885,0.17-1.177,0.51c-0.293,0.34-0.439,0.908-0.439,1.705c0,0.886,0.148,1.512,0.446,1.877
		c0.297,0.366,0.696,0.548,1.198,0.548c0.375,0,0.682-0.106,0.921-0.32c0.238-0.213,0.407-0.58,0.506-1.101l1.939,0.331
		c-0.201,0.891-0.588,1.563-1.159,2.018c-0.572,0.455-1.338,0.682-2.299,0.682c-1.092,0-1.962-0.345-2.61-1.034
		c-0.649-0.689-0.974-1.643-0.974-2.862c0-1.233,0.325-2.192,0.977-2.879c0.651-0.687,1.532-1.03,2.643-1.03
		c0.909,0,1.632,0.196,2.169,0.587C264.902,109,265.288,109.596,265.522,110.398z"/>
	<path d="M271.342,113.281l1.968,0.331c-0.253,0.722-0.652,1.271-1.198,1.648c-0.546,0.377-1.229,0.566-2.049,0.566
		c-1.298,0-2.258-0.424-2.881-1.273c-0.492-0.68-0.738-1.537-0.738-2.573c0-1.238,0.323-2.207,0.97-2.908
		c0.646-0.701,1.464-1.051,2.453-1.051c1.11,0,1.986,0.367,2.629,1.1c0.642,0.734,0.948,1.857,0.92,3.372h-4.947
		c0.014,0.586,0.173,1.042,0.478,1.368s0.684,0.489,1.139,0.489c0.31,0,0.569-0.084,0.78-0.253
		C271.075,113.928,271.234,113.656,271.342,113.281z M271.454,111.284c-0.014-0.572-0.161-1.006-0.442-1.304
		s-0.623-0.446-1.026-0.446c-0.431,0-0.787,0.157-1.068,0.471c-0.281,0.314-0.419,0.741-0.414,1.28H271.454z"/>
	<path d="M278.159,108.19h1.096v-0.563c0-0.628,0.067-1.097,0.201-1.406c0.133-0.309,0.379-0.561,0.737-0.756
		c0.358-0.194,0.813-0.292,1.36-0.292c0.563,0,1.112,0.084,1.651,0.253l-0.267,1.378c-0.314-0.075-0.616-0.112-0.907-0.112
		c-0.285,0-0.49,0.067-0.614,0.2c-0.125,0.134-0.187,0.391-0.187,0.77v0.527h1.476v1.554h-1.476v5.913h-1.976v-5.913h-1.096V108.19z
		"/>
	<path d="M288.14,113.281l1.968,0.331c-0.253,0.722-0.652,1.271-1.198,1.648c-0.546,0.377-1.229,0.566-2.049,0.566
		c-1.298,0-2.258-0.424-2.881-1.273c-0.492-0.68-0.738-1.537-0.738-2.573c0-1.238,0.323-2.207,0.97-2.908
		c0.646-0.701,1.464-1.051,2.453-1.051c1.11,0,1.986,0.367,2.629,1.1c0.642,0.734,0.948,1.857,0.92,3.372h-4.947
		c0.014,0.586,0.173,1.042,0.478,1.368s0.684,0.489,1.139,0.489c0.31,0,0.569-0.084,0.78-0.253
		C287.873,113.928,288.032,113.656,288.14,113.281z M288.252,111.284c-0.014-0.572-0.161-1.006-0.442-1.304
		s-0.623-0.446-1.026-0.446c-0.431,0-0.787,0.157-1.068,0.471c-0.281,0.314-0.419,0.741-0.414,1.28H288.252z"/>
	<path d="M293.299,110.468l-1.792-0.324c0.201-0.722,0.548-1.256,1.04-1.603c0.492-0.347,1.224-0.52,2.193-0.52
		c0.881,0,1.537,0.104,1.968,0.313c0.431,0.209,0.734,0.474,0.91,0.795c0.176,0.321,0.264,0.91,0.264,1.768l-0.021,2.306
		c0,0.657,0.032,1.141,0.096,1.452c0.063,0.312,0.181,0.646,0.354,1.002h-1.954c-0.052-0.131-0.114-0.326-0.189-0.583
		c-0.033-0.117-0.057-0.194-0.07-0.232c-0.338,0.328-0.698,0.574-1.082,0.738c-0.385,0.164-0.795,0.246-1.23,0.246
		c-0.769,0-1.374-0.208-1.816-0.626c-0.443-0.417-0.665-0.944-0.665-1.582c0-0.422,0.102-0.798,0.303-1.128s0.483-0.583,0.847-0.759
		s0.887-0.33,1.571-0.461c0.923-0.173,1.563-0.335,1.919-0.485v-0.197c0-0.38-0.095-0.65-0.281-0.813
		c-0.188-0.162-0.542-0.242-1.062-0.242c-0.352,0-0.626,0.069-0.822,0.207C293.58,109.879,293.421,110.121,293.299,110.468z
		 M295.942,112.071c-0.254,0.084-0.654,0.185-1.202,0.302c-0.549,0.117-0.907,0.232-1.075,0.345
		c-0.258,0.183-0.387,0.415-0.387,0.696c0,0.277,0.103,0.516,0.309,0.717c0.207,0.202,0.469,0.302,0.788,0.302
		c0.355,0,0.695-0.117,1.019-0.352c0.239-0.178,0.396-0.396,0.471-0.654c0.052-0.168,0.078-0.49,0.078-0.963V112.071z"/>
	<path d="M303.251,108.19v1.575h-1.35v3.009c0,0.609,0.013,0.964,0.039,1.065c0.025,0.101,0.084,0.184,0.176,0.25
		c0.091,0.065,0.202,0.098,0.334,0.098c0.183,0,0.447-0.063,0.794-0.189l0.169,1.533c-0.46,0.197-0.979,0.295-1.561,0.295
		c-0.356,0-0.678-0.06-0.963-0.18c-0.286-0.119-0.496-0.274-0.629-0.464c-0.134-0.19-0.227-0.446-0.278-0.77
		c-0.042-0.229-0.063-0.693-0.063-1.392v-3.255h-0.907v-1.575h0.907v-1.483l1.981-1.153v2.637H303.251z"/>
	<path d="M309.535,115.657v-1.118c-0.272,0.398-0.629,0.713-1.072,0.942c-0.442,0.229-0.91,0.345-1.402,0.345
		c-0.501,0-0.951-0.11-1.349-0.331c-0.398-0.22-0.687-0.53-0.865-0.928c-0.178-0.398-0.267-0.949-0.267-1.652v-4.725h1.975v3.431
		c0,1.05,0.036,1.694,0.109,1.93c0.072,0.237,0.205,0.424,0.396,0.563c0.192,0.138,0.437,0.208,0.731,0.208
		c0.337,0,0.64-0.092,0.906-0.278c0.268-0.185,0.45-0.415,0.549-0.689c0.098-0.274,0.147-0.946,0.147-2.015v-3.15h1.975v7.467
		H309.535z"/>
	<path d="M315.305,115.657h-1.975v-7.467h1.834v1.062c0.313-0.502,0.597-0.832,0.847-0.992c0.251-0.159,0.535-0.239,0.854-0.239
		c0.449,0,0.883,0.124,1.3,0.373l-0.611,1.723c-0.333-0.216-0.642-0.324-0.928-0.324c-0.276,0-0.511,0.077-0.703,0.229
		c-0.191,0.152-0.343,0.428-0.453,0.826c-0.11,0.398-0.165,1.233-0.165,2.503V115.657z"/>
	<path d="M323.338,113.281l1.968,0.331c-0.253,0.722-0.652,1.271-1.198,1.648c-0.546,0.377-1.229,0.566-2.049,0.566
		c-1.298,0-2.258-0.424-2.881-1.273c-0.492-0.68-0.738-1.537-0.738-2.573c0-1.238,0.323-2.207,0.97-2.908
		c0.646-0.701,1.464-1.051,2.453-1.051c1.11,0,1.986,0.367,2.629,1.1c0.642,0.734,0.948,1.857,0.92,3.372h-4.947
		c0.014,0.586,0.173,1.042,0.478,1.368s0.684,0.489,1.139,0.489c0.31,0,0.569-0.084,0.78-0.253
		C323.071,113.928,323.23,113.656,323.338,113.281z M323.45,111.284c-0.014-0.572-0.161-1.006-0.442-1.304s-0.623-0.446-1.026-0.446
		c-0.431,0-0.787,0.157-1.068,0.471c-0.281,0.314-0.419,0.741-0.414,1.28H323.45z"/>
</g>
<rect x="176.938" y="103.906" fill="#EDB120" width="29.988" height="13.752"/>
<rect x="176.938" y="103.906" fill="none" stroke="#000000" stroke-width="0.4999" stroke-miterlimit="10" width="29.988" height="13.752"/>
<g>
	<path d="M217.054,133.221h-1.834v-1.097c-0.305,0.426-0.665,0.744-1.079,0.953c-0.415,0.208-0.833,0.313-1.255,0.313
		c-0.857,0-1.592-0.346-2.203-1.037s-0.917-1.656-0.917-2.894c0-1.266,0.297-2.228,0.893-2.886c0.595-0.659,1.347-0.988,2.256-0.988
		c0.834,0,1.556,0.347,2.165,1.041v-3.712h1.975V133.221z M211.782,129.326c0,0.797,0.11,1.374,0.33,1.73
		c0.319,0.516,0.764,0.773,1.336,0.773c0.454,0,0.841-0.193,1.159-0.58c0.319-0.387,0.479-0.964,0.479-1.733
		c0-0.858-0.155-1.475-0.464-1.853c-0.31-0.377-0.705-0.566-1.188-0.566c-0.468,0-0.86,0.186-1.177,0.559
		C211.94,128.029,211.782,128.585,211.782,129.326z"/>
	<path d="M223.323,130.845l1.968,0.331c-0.253,0.722-0.652,1.271-1.198,1.648c-0.546,0.377-1.229,0.566-2.049,0.566
		c-1.298,0-2.258-0.424-2.881-1.273c-0.492-0.68-0.738-1.537-0.738-2.573c0-1.238,0.323-2.207,0.97-2.908
		c0.646-0.701,1.464-1.051,2.453-1.051c1.11,0,1.986,0.367,2.629,1.1c0.642,0.734,0.948,1.857,0.92,3.372h-4.947
		c0.014,0.586,0.173,1.042,0.478,1.368s0.684,0.489,1.139,0.489c0.31,0,0.569-0.084,0.78-0.253
		C223.057,131.492,223.216,131.22,223.323,130.845z M223.436,128.848c-0.014-0.572-0.161-1.006-0.442-1.304
		s-0.623-0.446-1.026-0.446c-0.431,0-0.787,0.157-1.068,0.471c-0.281,0.314-0.419,0.741-0.414,1.28H223.436z"/>
	<path d="M226.949,125.754h1.842v1.097c0.239-0.375,0.563-0.68,0.97-0.914c0.408-0.234,0.86-0.352,1.356-0.352
		c0.867,0,1.603,0.34,2.207,1.02s0.907,1.626,0.907,2.84c0,1.247-0.305,2.216-0.914,2.908s-1.347,1.037-2.214,1.037
		c-0.412,0-0.786-0.082-1.121-0.246s-0.688-0.445-1.058-0.844v3.762h-1.976V125.754z M228.903,129.361
		c0,0.839,0.166,1.459,0.499,1.86s0.738,0.601,1.216,0.601c0.46,0,0.842-0.184,1.146-0.552c0.305-0.368,0.457-0.971,0.457-1.811
		c0-0.783-0.157-1.364-0.471-1.744c-0.313-0.38-0.703-0.57-1.167-0.57c-0.482,0-0.883,0.187-1.201,0.559
		C229.063,128.078,228.903,128.63,228.903,129.361z"/>
	<path d="M239.222,125.754v1.575h-1.35v3.009c0,0.609,0.013,0.964,0.039,1.065c0.025,0.101,0.084,0.184,0.176,0.25
		c0.091,0.065,0.202,0.098,0.334,0.098c0.183,0,0.447-0.063,0.794-0.189l0.169,1.533c-0.46,0.197-0.979,0.295-1.561,0.295
		c-0.356,0-0.678-0.06-0.963-0.18c-0.286-0.119-0.496-0.274-0.629-0.464c-0.134-0.19-0.227-0.446-0.278-0.77
		c-0.042-0.229-0.063-0.693-0.063-1.392v-3.255h-0.907v-1.575h0.907v-1.483l1.981-1.153v2.637H239.222z"/>
	<path d="M242.56,122.914v3.79c0.638-0.745,1.398-1.118,2.284-1.118c0.455,0,0.865,0.084,1.23,0.253s0.641,0.384,0.825,0.647
		c0.186,0.263,0.312,0.553,0.38,0.872c0.068,0.319,0.102,0.813,0.102,1.484v4.38h-1.975v-3.944c0-0.783-0.037-1.28-0.112-1.491
		s-0.207-0.378-0.397-0.503c-0.189-0.124-0.428-0.186-0.713-0.186c-0.328,0-0.621,0.08-0.879,0.239
		c-0.258,0.16-0.446,0.4-0.565,0.721c-0.12,0.321-0.18,0.796-0.18,1.424v3.741h-1.975v-10.308H242.56z"/>
</g>
<rect x="176.938" y="121.47" fill="#4DBEEE" width="29.988" height="13.752"/>
<rect x="176.938" y="121.47" fill="none" stroke="#000000" stroke-width="0.4999" stroke-miterlimit="10" width="29.988" height="13.752"/>
<g>
	<path d="M216.717,145.526l-1.947,0.352c-0.065-0.389-0.215-0.682-0.446-0.879c-0.232-0.197-0.533-0.295-0.903-0.295
		c-0.492,0-0.885,0.17-1.177,0.51c-0.293,0.34-0.439,0.908-0.439,1.705c0,0.886,0.148,1.512,0.446,1.877
		c0.297,0.366,0.696,0.548,1.198,0.548c0.375,0,0.682-0.106,0.921-0.32c0.238-0.213,0.407-0.58,0.506-1.101l1.939,0.331
		c-0.201,0.891-0.588,1.563-1.159,2.018c-0.572,0.455-1.338,0.682-2.299,0.682c-1.092,0-1.962-0.345-2.61-1.034
		c-0.649-0.689-0.974-1.643-0.974-2.862c0-1.233,0.325-2.192,0.977-2.879c0.651-0.687,1.532-1.03,2.643-1.03
		c0.909,0,1.632,0.196,2.169,0.587C216.097,144.128,216.482,144.724,216.717,145.526z"/>
	<path d="M217.757,146.946c0-0.656,0.162-1.292,0.485-1.906c0.323-0.614,0.781-1.083,1.374-1.406
		c0.593-0.323,1.255-0.485,1.985-0.485c1.129,0,2.055,0.367,2.776,1.1c0.722,0.734,1.082,1.661,1.082,2.781
		c0,1.13-0.364,2.066-1.093,2.809c-0.729,0.743-1.646,1.115-2.752,1.115c-0.684,0-1.336-0.155-1.957-0.464
		c-0.621-0.309-1.093-0.763-1.416-1.36S217.757,147.804,217.757,146.946z M219.781,147.052c0,0.741,0.176,1.308,0.527,1.701
		c0.352,0.394,0.784,0.591,1.3,0.591s0.948-0.197,1.297-0.591c0.349-0.394,0.523-0.965,0.523-1.715c0-0.731-0.175-1.294-0.523-1.688
		c-0.349-0.394-0.781-0.591-1.297-0.591s-0.948,0.197-1.3,0.591C219.957,145.744,219.781,146.311,219.781,147.052z"/>
	<path d="M233.852,150.785h-1.834v-1.097c-0.305,0.426-0.665,0.744-1.079,0.953c-0.415,0.208-0.833,0.313-1.255,0.313
		c-0.857,0-1.592-0.346-2.203-1.037s-0.917-1.656-0.917-2.894c0-1.266,0.297-2.228,0.893-2.886c0.595-0.659,1.347-0.988,2.256-0.988
		c0.834,0,1.556,0.347,2.165,1.041v-3.712h1.975V150.785z M228.58,146.89c0,0.797,0.11,1.374,0.33,1.73
		c0.319,0.516,0.764,0.773,1.336,0.773c0.454,0,0.841-0.193,1.159-0.58c0.319-0.387,0.479-0.964,0.479-1.733
		c0-0.858-0.155-1.475-0.464-1.853c-0.31-0.377-0.705-0.566-1.188-0.566c-0.468,0-0.86,0.186-1.177,0.559
		C228.738,145.593,228.58,146.149,228.58,146.89z"/>
	<path d="M235.799,142.306v-1.828h1.975v1.828H235.799z M235.799,150.785v-7.467h1.975v7.467H235.799z"/>
	<path d="M246.587,150.785h-1.975v-3.811c0-0.806-0.042-1.328-0.127-1.564c-0.084-0.236-0.221-0.42-0.411-0.552
		c-0.189-0.131-0.418-0.197-0.685-0.197c-0.343,0-0.649,0.094-0.921,0.281s-0.458,0.436-0.559,0.745
		c-0.102,0.31-0.151,0.881-0.151,1.716v3.382h-1.975v-7.467h1.834v1.097c0.651-0.844,1.472-1.266,2.46-1.266
		c0.436,0,0.834,0.078,1.195,0.235c0.36,0.157,0.633,0.357,0.818,0.601s0.313,0.521,0.387,0.83c0.072,0.31,0.108,0.752,0.108,1.329
		V150.785z"/>
	<path d="M248.408,151.277l2.256,0.274c0.037,0.262,0.124,0.443,0.26,0.541c0.188,0.141,0.483,0.211,0.886,0.211
		c0.516,0,0.902-0.077,1.16-0.232c0.173-0.103,0.305-0.27,0.394-0.499c0.061-0.164,0.091-0.467,0.091-0.907v-1.09
		c-0.59,0.806-1.335,1.209-2.234,1.209c-1.003,0-1.797-0.424-2.383-1.272c-0.459-0.67-0.688-1.505-0.688-2.503
		c0-1.251,0.301-2.208,0.902-2.869c0.603-0.661,1.351-0.991,2.246-0.991c0.923,0,1.685,0.405,2.284,1.216v-1.048h1.849v6.701
		c0,0.881-0.073,1.54-0.218,1.976c-0.146,0.436-0.35,0.778-0.611,1.026c-0.263,0.249-0.613,0.443-1.051,0.583
		c-0.438,0.141-0.992,0.211-1.663,0.211c-1.265,0-2.162-0.217-2.691-0.65s-0.794-0.983-0.794-1.648
		C248.401,151.451,248.403,151.371,248.408,151.277z M250.172,146.897c0,0.792,0.153,1.372,0.461,1.74
		c0.307,0.368,0.685,0.552,1.135,0.552c0.482,0,0.891-0.188,1.223-0.566c0.333-0.377,0.499-0.936,0.499-1.677
		c0-0.773-0.159-1.348-0.478-1.723s-0.722-0.563-1.209-0.563c-0.474,0-0.863,0.184-1.17,0.552
		C250.325,145.581,250.172,146.142,250.172,146.897z"/>
	<path d="M261.235,143.318h1.82v1.02c0.651-0.792,1.427-1.188,2.326-1.188c0.479,0,0.893,0.098,1.244,0.295
		c0.352,0.197,0.64,0.495,0.864,0.893c0.328-0.398,0.682-0.696,1.062-0.893c0.38-0.197,0.785-0.295,1.216-0.295
		c0.549,0,1.013,0.111,1.392,0.334c0.38,0.223,0.663,0.549,0.851,0.98c0.136,0.319,0.204,0.834,0.204,1.547v4.774h-1.976v-4.268
		c0-0.741-0.067-1.219-0.203-1.434c-0.183-0.281-0.464-0.422-0.844-0.422c-0.276,0-0.536,0.084-0.78,0.253
		c-0.243,0.169-0.419,0.416-0.527,0.742c-0.107,0.326-0.161,0.84-0.161,1.543v3.586h-1.976v-4.092c0-0.727-0.035-1.195-0.105-1.406
		s-0.179-0.368-0.326-0.471c-0.147-0.103-0.348-0.154-0.602-0.154c-0.305,0-0.578,0.082-0.822,0.246
		c-0.243,0.164-0.418,0.4-0.523,0.71s-0.158,0.823-0.158,1.54v3.628h-1.975V143.318z"/>
	<path d="M273.725,146.946c0-0.656,0.162-1.292,0.485-1.906c0.323-0.614,0.781-1.083,1.374-1.406
		c0.593-0.323,1.255-0.485,1.985-0.485c1.129,0,2.055,0.367,2.776,1.1c0.722,0.734,1.082,1.661,1.082,2.781
		c0,1.13-0.364,2.066-1.093,2.809c-0.729,0.743-1.646,1.115-2.752,1.115c-0.684,0-1.336-0.155-1.957-0.464
		c-0.621-0.309-1.093-0.763-1.416-1.36S273.725,147.804,273.725,146.946z M275.749,147.052c0,0.741,0.176,1.308,0.527,1.701
		c0.352,0.394,0.784,0.591,1.3,0.591s0.948-0.197,1.297-0.591c0.349-0.394,0.523-0.965,0.523-1.715c0-0.731-0.175-1.294-0.523-1.688
		c-0.349-0.394-0.781-0.591-1.297-0.591s-0.948,0.197-1.3,0.591C275.925,145.744,275.749,146.311,275.749,147.052z"/>
	<path d="M289.819,150.785h-1.834v-1.097c-0.305,0.426-0.665,0.744-1.079,0.953c-0.415,0.208-0.833,0.313-1.255,0.313
		c-0.857,0-1.592-0.346-2.203-1.037s-0.917-1.656-0.917-2.894c0-1.266,0.297-2.228,0.893-2.886c0.595-0.659,1.347-0.988,2.256-0.988
		c0.834,0,1.556,0.347,2.165,1.041v-3.712h1.975V150.785z M284.548,146.89c0,0.797,0.11,1.374,0.33,1.73
		c0.319,0.516,0.764,0.773,1.336,0.773c0.454,0,0.841-0.193,1.159-0.58c0.319-0.387,0.479-0.964,0.479-1.733
		c0-0.858-0.155-1.475-0.464-1.853c-0.31-0.377-0.705-0.566-1.188-0.566c-0.468,0-0.86,0.186-1.177,0.559
		C284.706,145.593,284.548,146.149,284.548,146.89z"/>
	<path d="M296.089,148.409l1.968,0.331c-0.253,0.722-0.652,1.271-1.198,1.648c-0.546,0.377-1.229,0.566-2.049,0.566
		c-1.298,0-2.258-0.424-2.881-1.273c-0.492-0.68-0.738-1.537-0.738-2.573c0-1.238,0.323-2.207,0.97-2.908
		c0.646-0.701,1.464-1.051,2.453-1.051c1.11,0,1.986,0.367,2.629,1.1c0.642,0.734,0.948,1.857,0.92,3.372h-4.947
		c0.014,0.586,0.173,1.042,0.478,1.368s0.684,0.489,1.139,0.489c0.31,0,0.569-0.084,0.78-0.253
		C295.822,149.056,295.981,148.784,296.089,148.409z M296.201,146.412c-0.014-0.572-0.161-1.006-0.442-1.304
		s-0.623-0.446-1.026-0.446c-0.431,0-0.787,0.157-1.068,0.471c-0.281,0.314-0.419,0.741-0.414,1.28H296.201z"/>
</g>
<rect x="176.938" y="139.034" fill="#7E2F8E" width="29.988" height="13.752"/>
<rect x="176.938" y="139.034" fill="none" stroke="#000000" stroke-width="0.4999" stroke-miterlimit="10" width="29.988" height="13.752"/>
<rect x="173.938" y="48" fill="none" stroke="#262626" stroke-width="0.4999" stroke-miterlimit="10" width="181.429" height="108"/>
</svg>
