<?xml version="1.0" encoding="utf-8"?>
<!-- Generator: Adobe Illustrator 16.0.3, SVG Export Plug-In . SVG Version: 6.00 Build 0)  -->
<!DOCTYPE svg PUBLIC "-//W3C//DTD SVG 1.1//EN" "http://www.w3.org/Graphics/SVG/1.1/DTD/svg11.dtd">
<svg version="1.1" id="Ebene_1" xmlns="http://www.w3.org/2000/svg" xmlns:xlink="http://www.w3.org/1999/xlink" x="0px" y="0px"
	 width="418px" height="324px" viewBox="0 0 418 324" enable-background="new 0 0 418 324" xml:space="preserve">
<g>
	<defs>
		<rect id="SVGID_1_" x="18" y="18" width="381.6" height="288"/>
	</defs>
	<clipPath id="SVGID_2_">
		<use xlink:href="#SVGID_1_"  overflow="visible"/>
	</clipPath>
	<rect x="18" y="18" clip-path="url(#SVGID_2_)" fill="#FFFFFF" width="381.6" height="288"/>
</g>
<rect x="18" y="18" fill="#FFFFFF" width="381.6" height="288"/>
<rect x="75.728" y="39.75" fill="#FFFFFF" width="287.887" height="219"/>
<line opacity="0.149" fill="none" stroke="#262626" stroke-width="0.4999" stroke-linejoin="round" stroke-miterlimit="10" x1="111.713" y1="258.75" x2="111.713" y2="39.75"/>
<line opacity="0.149" fill="none" stroke="#262626" stroke-width="0.4999" stroke-linejoin="round" stroke-miterlimit="10" x1="183.685" y1="258.75" x2="183.685" y2="39.75"/>
<line opacity="0.149" fill="none" stroke="#262626" stroke-width="0.4999" stroke-linejoin="round" stroke-miterlimit="10" x1="255.656" y1="258.75" x2="255.656" y2="39.75"/>
<line opacity="0.149" fill="none" stroke="#262626" stroke-width="0.4999" stroke-linejoin="round" stroke-miterlimit="10" x1="327.628" y1="258.75" x2="327.628" y2="39.75"/>
<line opacity="0.149" fill="none" stroke="#262626" stroke-width="0.4999" stroke-linejoin="round" stroke-miterlimit="10" x1="363.614" y1="258.75" x2="75.728" y2="258.75"/>
<line opacity="0.149" fill="none" stroke="#262626" stroke-width="0.4999" stroke-linejoin="round" stroke-miterlimit="10" x1="363.614" y1="214.95" x2="75.728" y2="214.95"/>
<line opacity="0.149" fill="none" stroke="#262626" stroke-width="0.4999" stroke-linejoin="round" stroke-miterlimit="10" x1="363.614" y1="171.15" x2="75.728" y2="171.15"/>
<line opacity="0.149" fill="none" stroke="#262626" stroke-width="0.4999" stroke-linejoin="round" stroke-miterlimit="10" x1="363.614" y1="127.35" x2="75.728" y2="127.35"/>
<line opacity="0.149" fill="none" stroke="#262626" stroke-width="0.4999" stroke-linejoin="round" stroke-miterlimit="10" x1="363.614" y1="83.55" x2="75.728" y2="83.55"/>
<line opacity="0.149" fill="none" stroke="#262626" stroke-width="0.4999" stroke-linejoin="round" stroke-miterlimit="10" x1="363.614" y1="39.75" x2="75.728" y2="39.75"/>
<line fill="none" stroke="#262626" stroke-width="0.4999" stroke-linejoin="round" stroke-miterlimit="10" x1="75.728" y1="258.75" x2="363.614" y2="258.75"/>
<path fill="#0072BD" d="M345.621,258.75v-2.276h-35.985v2.276H345.621z M273.649,258.75v-43.47h-35.985v43.47H273.649z
	 M201.678,258.75V147.278h-35.986V258.75H201.678z M129.706,258.75v-61.782H93.72v61.782H129.706z"/>
<rect x="93.72" y="196.968" fill="none" stroke="#000000" stroke-width="0.4999" stroke-miterlimit="10" width="35.986" height="61.782"/>
<rect x="165.692" y="147.278" fill="none" stroke="#000000" stroke-width="0.4999" stroke-miterlimit="10" width="35.986" height="111.472"/>
<rect x="237.664" y="215.28" fill="none" stroke="#000000" stroke-width="0.4999" stroke-miterlimit="10" width="35.985" height="43.47"/>
<rect x="309.636" y="256.474" fill="none" stroke="#000000" stroke-width="0.4999" stroke-miterlimit="10" width="35.985" height="2.276"/>
<line fill="none" stroke="#262626" stroke-width="0.4999" stroke-linecap="square" stroke-linejoin="round" stroke-miterlimit="10" x1="75.728" y1="258.75" x2="363.614" y2="258.75"/>
<line fill="none" stroke="#262626" stroke-width="0.4999" stroke-linecap="square" stroke-linejoin="round" stroke-miterlimit="10" x1="75.728" y1="39.75" x2="363.614" y2="39.75"/>
<line fill="none" stroke="#262626" stroke-width="0.4999" stroke-linecap="square" stroke-linejoin="round" stroke-miterlimit="10" x1="111.713" y1="258.75" x2="111.713" y2="255.87"/>
<line fill="none" stroke="#262626" stroke-width="0.4999" stroke-linecap="square" stroke-linejoin="round" stroke-miterlimit="10" x1="183.685" y1="258.75" x2="183.685" y2="255.87"/>
<line fill="none" stroke="#262626" stroke-width="0.4999" stroke-linecap="square" stroke-linejoin="round" stroke-miterlimit="10" x1="255.656" y1="258.75" x2="255.656" y2="255.87"/>
<line fill="none" stroke="#262626" stroke-width="0.4999" stroke-linecap="square" stroke-linejoin="round" stroke-miterlimit="10" x1="327.628" y1="258.75" x2="327.628" y2="255.87"/>
<line fill="none" stroke="#262626" stroke-width="0.4999" stroke-linecap="square" stroke-linejoin="round" stroke-miterlimit="10" x1="111.713" y1="39.75" x2="111.713" y2="42.63"/>
<line fill="none" stroke="#262626" stroke-width="0.4999" stroke-linecap="square" stroke-linejoin="round" stroke-miterlimit="10" x1="183.685" y1="39.75" x2="183.685" y2="42.63"/>
<line fill="none" stroke="#262626" stroke-width="0.4999" stroke-linecap="square" stroke-linejoin="round" stroke-miterlimit="10" x1="255.656" y1="39.75" x2="255.656" y2="42.63"/>
<line fill="none" stroke="#262626" stroke-width="0.4999" stroke-linecap="square" stroke-linejoin="round" stroke-miterlimit="10" x1="327.628" y1="39.75" x2="327.628" y2="42.63"/>
<g>
	<path fill="#262626" d="M85.067,278.95v-11.453h2.312v11.453H85.067z"/>
	<path fill="#262626" d="M89.604,278.95v-11.453h2.249l4.686,7.648v-7.648h2.147v11.453h-2.319l-4.615-7.469v7.469H89.604z"/>
	<path fill="#262626" d="M103.708,278.95v-9.516h-3.397v-1.938h9.098v1.938h-3.389v9.516H103.708z"/>
	<path fill="#262626" d="M110.908,278.95v-11.453h4.865c1.223,0,2.112,0.104,2.667,0.309c0.554,0.206,0.998,0.572,1.332,1.098
		c0.333,0.526,0.5,1.128,0.5,1.805c0,0.859-0.252,1.569-0.757,2.129c-0.505,0.56-1.26,0.913-2.265,1.059
		c0.5,0.292,0.912,0.612,1.238,0.961c0.325,0.349,0.764,0.969,1.316,1.859l1.397,2.234h-2.764l-1.671-2.492
		c-0.593-0.891-1-1.452-1.218-1.684s-0.45-0.391-0.695-0.477c-0.245-0.086-0.633-0.129-1.164-0.129h-0.469v4.781H110.908z
		 M113.22,272.341h1.71c1.109,0,1.801-0.047,2.077-0.141s0.492-0.255,0.648-0.484c0.156-0.229,0.234-0.516,0.234-0.859
		c0-0.385-0.103-0.696-0.309-0.934c-0.206-0.236-0.496-0.387-0.871-0.449c-0.188-0.025-0.75-0.039-1.687-0.039h-1.804V272.341z"/>
	<path fill="#262626" d="M132.774,278.95h-2.515l-1-2.602h-4.576l-0.945,2.602h-2.452l4.459-11.453h2.444L132.774,278.95z
		 M128.519,274.419l-1.578-4.25l-1.546,4.25H128.519z"/>
</g>
<g>
	<path fill="#262626" d="M157.789,278.95v-11.453h2.312v11.453H157.789z"/>
	<path fill="#262626" d="M162.326,278.95v-11.453h2.249l4.686,7.648v-7.648h2.147v11.453h-2.319l-4.615-7.469v7.469H162.326z"/>
	<path fill="#262626" d="M176.43,278.95v-9.516h-3.397v-1.938h9.098v1.938h-3.389v9.516H176.43z"/>
	<path fill="#262626" d="M183.622,278.95v-11.453h8.489v1.938h-6.177v2.539h5.748v1.93h-5.748v3.117h6.396v1.93H183.622z"/>
	<path fill="#262626" d="M194.297,278.95v-11.453h4.865c1.223,0,2.112,0.104,2.667,0.309c0.554,0.206,0.998,0.572,1.332,1.098
		c0.333,0.526,0.5,1.128,0.5,1.805c0,0.859-0.252,1.569-0.757,2.129c-0.505,0.56-1.26,0.913-2.265,1.059
		c0.5,0.292,0.912,0.612,1.238,0.961c0.325,0.349,0.764,0.969,1.316,1.859l1.397,2.234h-2.764l-1.671-2.492
		c-0.593-0.891-1-1.452-1.218-1.684s-0.45-0.391-0.695-0.477c-0.245-0.086-0.633-0.129-1.164-0.129h-0.469v4.781H194.297z
		 M196.609,272.341h1.71c1.109,0,1.801-0.047,2.077-0.141s0.492-0.255,0.648-0.484c0.156-0.229,0.234-0.516,0.234-0.859
		c0-0.385-0.103-0.696-0.309-0.934c-0.206-0.236-0.496-0.387-0.871-0.449c-0.188-0.025-0.75-0.039-1.687-0.039h-1.804V272.341z"/>
</g>
<g>
	<path fill="#262626" d="M220.998,275.224l2.249-0.219c0.135,0.755,0.41,1.31,0.823,1.664c0.414,0.354,0.973,0.531,1.676,0.531
		c0.744,0,1.305-0.157,1.683-0.473s0.566-0.684,0.566-1.105c0-0.271-0.08-0.501-0.238-0.691c-0.159-0.19-0.437-0.355-0.832-0.496
		c-0.271-0.094-0.888-0.261-1.851-0.5c-1.239-0.308-2.108-0.685-2.608-1.133c-0.703-0.63-1.054-1.398-1.054-2.305
		c0-0.583,0.165-1.129,0.495-1.637c0.331-0.508,0.808-0.895,1.43-1.16s1.373-0.398,2.253-0.398c1.437,0,2.519,0.315,3.244,0.945
		c0.727,0.631,1.108,1.472,1.145,2.523l-2.312,0.102c-0.099-0.588-0.312-1.012-0.637-1.27s-0.813-0.387-1.464-0.387
		c-0.672,0-1.197,0.139-1.577,0.414c-0.245,0.178-0.367,0.414-0.367,0.711c0,0.271,0.114,0.503,0.344,0.695
		c0.291,0.245,0.999,0.5,2.124,0.766c1.124,0.266,1.956,0.54,2.495,0.824c0.538,0.284,0.96,0.672,1.265,1.164
		s0.457,1.101,0.457,1.824c0,0.656-0.183,1.271-0.547,1.844s-0.88,0.999-1.546,1.277c-0.667,0.278-1.497,0.418-2.491,0.418
		c-1.447,0-2.56-0.335-3.335-1.004S221.148,276.505,220.998,275.224z"/>
	<path fill="#262626" d="M234.828,278.95v-9.516h-3.396v-1.938h9.098v1.938h-3.39v9.516H234.828z"/>
	<path fill="#262626" d="M242.021,278.95v-11.453h8.488v1.938h-6.177v2.539h5.747v1.93h-5.747v3.117h6.396v1.93H242.021z"/>
	<path fill="#262626" d="M252.696,278.95v-11.453h4.864c1.224,0,2.113,0.104,2.667,0.309c0.555,0.206,0.999,0.572,1.332,1.098
		c0.333,0.526,0.5,1.128,0.5,1.805c0,0.859-0.253,1.569-0.758,2.129s-1.26,0.913-2.265,1.059c0.5,0.292,0.912,0.612,1.237,0.961
		s0.765,0.969,1.316,1.859l1.397,2.234h-2.765l-1.671-2.492c-0.594-0.891-1-1.452-1.218-1.684c-0.219-0.231-0.451-0.391-0.695-0.477
		c-0.245-0.086-0.633-0.129-1.164-0.129h-0.468v4.781H252.696z M255.008,272.341h1.71c1.108,0,1.801-0.047,2.077-0.141
		c0.275-0.094,0.492-0.255,0.648-0.484s0.234-0.516,0.234-0.859c0-0.385-0.104-0.696-0.309-0.934
		c-0.206-0.236-0.496-0.387-0.871-0.449c-0.188-0.025-0.75-0.039-1.687-0.039h-1.804V272.341z"/>
	<path fill="#262626" d="M264.238,278.95v-11.453h8.488v1.938h-6.177v2.539h5.747v1.93h-5.747v3.117h6.396v1.93H264.238z"/>
	<path fill="#262626" d="M274.438,273.294c0-1.167,0.174-2.146,0.522-2.938c0.261-0.583,0.616-1.106,1.066-1.57
		c0.45-0.463,0.943-0.807,1.479-1.031c0.714-0.302,1.536-0.453,2.468-0.453c1.688,0,3.037,0.523,4.05,1.57s1.519,2.503,1.519,4.367
		c0,1.849-0.502,3.296-1.507,4.34s-2.349,1.566-4.03,1.566c-1.702,0-3.056-0.52-4.061-1.559S274.438,275.117,274.438,273.294z
		 M276.819,273.216c0,1.297,0.299,2.28,0.897,2.949s1.359,1.004,2.28,1.004c0.922,0,1.678-0.332,2.269-0.996s0.887-1.66,0.887-2.988
		c0-1.313-0.288-2.291-0.863-2.938c-0.575-0.646-1.339-0.969-2.292-0.969c-0.952,0-1.721,0.327-2.304,0.98
		C277.11,270.913,276.819,271.898,276.819,273.216z"/>
</g>
<g>
	<path fill="#262626" d="M307.215,275.224l2.249-0.219c0.135,0.755,0.41,1.31,0.823,1.664c0.414,0.354,0.973,0.531,1.676,0.531
		c0.744,0,1.305-0.157,1.683-0.473s0.566-0.684,0.566-1.105c0-0.271-0.08-0.501-0.238-0.691c-0.159-0.19-0.437-0.355-0.832-0.496
		c-0.271-0.094-0.888-0.261-1.851-0.5c-1.239-0.308-2.108-0.685-2.608-1.133c-0.703-0.63-1.054-1.398-1.054-2.305
		c0-0.583,0.165-1.129,0.495-1.637c0.331-0.508,0.808-0.895,1.43-1.16s1.373-0.398,2.253-0.398c1.437,0,2.519,0.315,3.244,0.945
		c0.727,0.631,1.108,1.472,1.145,2.523l-2.312,0.102c-0.099-0.588-0.312-1.012-0.637-1.27s-0.813-0.387-1.464-0.387
		c-0.672,0-1.197,0.139-1.577,0.414c-0.245,0.178-0.367,0.414-0.367,0.711c0,0.271,0.114,0.503,0.344,0.695
		c0.291,0.245,0.999,0.5,2.124,0.766c1.124,0.266,1.956,0.54,2.495,0.824c0.538,0.284,0.96,0.672,1.265,1.164
		s0.457,1.101,0.457,1.824c0,0.656-0.183,1.271-0.547,1.844s-0.88,0.999-1.546,1.277c-0.667,0.278-1.497,0.418-2.491,0.418
		c-1.447,0-2.56-0.335-3.335-1.004S307.365,276.505,307.215,275.224z"/>
	<path fill="#262626" d="M318.5,278.95v-11.453h2.312v5.086l4.67-5.086h3.107l-4.311,4.461l4.545,6.992h-2.991l-3.146-5.375
		l-1.874,1.914v3.461H318.5z"/>
	<path fill="#262626" d="M329.948,278.95v-11.453h2.312v11.453H329.948z"/>
	<path fill="#262626" d="M334.462,278.95v-11.453h3.709c1.405,0,2.322,0.058,2.749,0.172c0.656,0.172,1.205,0.546,1.647,1.121
		c0.442,0.576,0.664,1.319,0.664,2.23c0,0.703-0.128,1.294-0.383,1.773s-0.579,0.855-0.973,1.129
		c-0.393,0.273-0.792,0.454-1.198,0.543c-0.552,0.109-1.352,0.164-2.397,0.164h-1.507v4.32H334.462z M336.773,269.435v3.25h1.265
		c0.911,0,1.521-0.06,1.827-0.18c0.308-0.12,0.548-0.308,0.723-0.563s0.262-0.552,0.262-0.891c0-0.416-0.122-0.76-0.367-1.031
		c-0.245-0.271-0.555-0.439-0.93-0.508c-0.275-0.052-0.83-0.078-1.663-0.078H336.773z"/>
</g>
<g>
	<path fill="#262626" d="M165.164,295.272l-2.38,0.43c-0.08-0.476-0.262-0.834-0.545-1.075c-0.283-0.24-0.651-0.36-1.104-0.36
		c-0.601,0-1.081,0.208-1.439,0.623s-0.537,1.11-0.537,2.084c0,1.083,0.182,1.848,0.545,2.295c0.364,0.446,0.852,0.67,1.465,0.67
		c0.458,0,0.833-0.13,1.125-0.391c0.292-0.261,0.499-0.709,0.619-1.346l2.371,0.404c-0.246,1.089-0.719,1.911-1.417,2.467
		s-1.635,0.833-2.809,0.833c-1.334,0-2.398-0.421-3.191-1.263c-0.793-0.843-1.19-2.009-1.19-3.498c0-1.507,0.398-2.68,1.194-3.52
		c0.796-0.839,1.873-1.259,3.23-1.259c1.111,0,1.994,0.239,2.65,0.718C164.406,293.563,164.877,294.292,165.164,295.272z"/>
	<path fill="#262626" d="M166.435,297.008c0-0.802,0.197-1.578,0.593-2.329c0.395-0.75,0.955-1.323,1.679-1.719
		s1.533-0.593,2.427-0.593c1.38,0,2.511,0.448,3.394,1.345c0.882,0.897,1.323,2.03,1.323,3.399c0,1.381-0.445,2.525-1.336,3.433
		c-0.891,0.908-2.012,1.362-3.363,1.362c-0.836,0-1.633-0.188-2.392-0.567c-0.759-0.378-1.336-0.932-1.731-1.662
		C166.632,298.946,166.435,298.057,166.435,297.008z M168.909,297.137c0,0.905,0.214,1.599,0.644,2.08s0.959,0.722,1.589,0.722
		c0.63,0,1.158-0.24,1.585-0.722c0.426-0.481,0.64-1.181,0.64-2.097c0-0.895-0.213-1.582-0.64-2.063
		c-0.427-0.481-0.955-0.723-1.585-0.723c-0.63,0-1.16,0.241-1.589,0.723C169.124,295.538,168.909,296.231,168.909,297.137z"/>
	<path fill="#262626" d="M186.107,301.7h-2.242v-1.341c-0.372,0.521-0.812,0.91-1.318,1.165s-1.018,0.382-1.534,0.382
		c-1.048,0-1.946-0.422-2.693-1.268c-0.748-0.845-1.121-2.023-1.121-3.536c0-1.547,0.364-2.723,1.091-3.528
		c0.728-0.805,1.646-1.207,2.758-1.207c1.019,0,1.901,0.424,2.646,1.271v-4.537h2.414V301.7z M179.664,296.939
		c0,0.974,0.135,1.679,0.404,2.114c0.389,0.63,0.934,0.945,1.632,0.945c0.555,0,1.028-0.236,1.417-0.709
		c0.389-0.473,0.584-1.179,0.584-2.119c0-1.048-0.189-1.803-0.567-2.264c-0.378-0.462-0.862-0.692-1.452-0.692
		c-0.573,0-1.053,0.228-1.439,0.684C179.857,295.354,179.664,296.034,179.664,296.939z"/>
	<path fill="#262626" d="M188.486,291.336v-2.234h2.414v2.234H188.486z M188.486,301.7v-9.127h2.414v9.127H188.486z"/>
	<path fill="#262626" d="M201.673,301.7h-2.414v-4.658c0-0.985-0.052-1.622-0.155-1.912c-0.103-0.289-0.271-0.514-0.502-0.675
		c-0.232-0.16-0.511-0.24-0.838-0.24c-0.418,0-0.793,0.115-1.125,0.344c-0.333,0.229-0.56,0.533-0.683,0.911
		s-0.185,1.077-0.185,2.097v4.134h-2.414v-9.127h2.242v1.341c0.796-1.031,1.798-1.547,3.007-1.547c0.532,0,1.019,0.096,1.46,0.288
		c0.441,0.191,0.775,0.437,1.001,0.734s0.384,0.636,0.473,1.015c0.088,0.378,0.133,0.919,0.133,1.624V301.7z"/>
	<path fill="#262626" d="M203.898,302.302l2.757,0.335c0.046,0.321,0.152,0.542,0.318,0.662c0.229,0.172,0.59,0.258,1.083,0.258
		c0.63,0,1.103-0.095,1.417-0.284c0.213-0.126,0.373-0.329,0.481-0.609c0.074-0.201,0.111-0.57,0.111-1.109v-1.332
		c-0.722,0.986-1.632,1.479-2.731,1.479c-1.226,0-2.196-0.519-2.912-1.556c-0.562-0.819-0.842-1.839-0.842-3.06
		c0-1.529,0.368-2.698,1.104-3.506c0.736-0.808,1.65-1.212,2.745-1.212c1.128,0,2.059,0.496,2.792,1.486v-1.28h2.259v8.19
		c0,1.077-0.089,1.882-0.266,2.415c-0.178,0.532-0.427,0.95-0.748,1.254c-0.32,0.304-0.749,0.542-1.284,0.714
		s-1.212,0.258-2.032,0.258c-1.546,0-2.643-0.266-3.29-0.795c-0.647-0.53-0.971-1.202-0.971-2.016
		C203.889,302.514,203.892,302.416,203.898,302.302z M206.054,296.948c0,0.968,0.188,1.677,0.563,2.127
		c0.375,0.449,0.837,0.674,1.387,0.674c0.59,0,1.088-0.23,1.495-0.691c0.406-0.461,0.609-1.145,0.609-2.05
		c0-0.945-0.194-1.646-0.584-2.105c-0.39-0.458-0.882-0.688-1.478-0.688c-0.578,0-1.055,0.225-1.43,0.675
		S206.054,296.025,206.054,296.948z"/>
	<path fill="#262626" d="M219.575,292.573h2.226v1.246c0.796-0.968,1.743-1.452,2.843-1.452c0.585,0,1.092,0.12,1.521,0.361
		c0.43,0.24,0.782,0.604,1.057,1.091c0.401-0.486,0.834-0.851,1.298-1.091c0.464-0.241,0.959-0.361,1.486-0.361
		c0.67,0,1.236,0.136,1.7,0.408s0.811,0.672,1.04,1.199c0.166,0.39,0.249,1.02,0.249,1.891v5.835h-2.414v-5.217
		c0-0.905-0.083-1.489-0.249-1.753c-0.224-0.344-0.567-0.516-1.031-0.516c-0.338,0-0.655,0.104-0.953,0.31s-0.513,0.509-0.645,0.906
		c-0.132,0.398-0.197,1.027-0.197,1.887v4.383h-2.414v-5.002c0-0.888-0.043-1.461-0.129-1.719s-0.219-0.449-0.399-0.575
		s-0.426-0.189-0.734-0.189c-0.373,0-0.708,0.101-1.005,0.301c-0.298,0.201-0.512,0.49-0.641,0.868s-0.193,1.006-0.193,1.882v4.435
		h-2.414V292.573z"/>
	<path fill="#262626" d="M234.841,297.008c0-0.802,0.198-1.578,0.593-2.329c0.396-0.75,0.955-1.323,1.68-1.719
		s1.533-0.593,2.427-0.593c1.38,0,2.512,0.448,3.394,1.345c0.882,0.897,1.322,2.03,1.322,3.399c0,1.381-0.445,2.525-1.335,3.433
		c-0.891,0.908-2.012,1.362-3.363,1.362c-0.837,0-1.634-0.188-2.393-0.567c-0.759-0.378-1.336-0.932-1.731-1.662
		C235.039,298.946,234.841,298.057,234.841,297.008z M237.315,297.137c0,0.905,0.215,1.599,0.645,2.08
		c0.429,0.481,0.959,0.722,1.589,0.722s1.158-0.24,1.585-0.722s0.64-1.181,0.64-2.097c0-0.895-0.213-1.582-0.64-2.063
		c-0.427-0.481-0.955-0.723-1.585-0.723s-1.16,0.241-1.589,0.723C237.53,295.538,237.315,296.231,237.315,297.137z"/>
	<path fill="#262626" d="M254.513,301.7h-2.242v-1.341c-0.372,0.521-0.812,0.91-1.318,1.165s-1.019,0.382-1.533,0.382
		c-1.049,0-1.946-0.422-2.693-1.268c-0.747-0.845-1.121-2.023-1.121-3.536c0-1.547,0.363-2.723,1.091-3.528
		c0.728-0.805,1.646-1.207,2.758-1.207c1.02,0,1.901,0.424,2.646,1.271v-4.537h2.414V301.7z M248.07,296.939
		c0,0.974,0.134,1.679,0.403,2.114c0.39,0.63,0.934,0.945,1.632,0.945c0.556,0,1.028-0.236,1.418-0.709s0.584-1.179,0.584-2.119
		c0-1.048-0.189-1.803-0.567-2.264c-0.378-0.462-0.861-0.692-1.451-0.692c-0.573,0-1.053,0.228-1.439,0.684
		C248.263,295.354,248.07,296.034,248.07,296.939z"/>
	<path fill="#262626" d="M262.176,298.796l2.405,0.403c-0.31,0.883-0.798,1.555-1.465,2.016s-1.502,0.691-2.504,0.691
		c-1.586,0-2.761-0.519-3.522-1.556c-0.601-0.83-0.901-1.879-0.901-3.145c0-1.513,0.395-2.697,1.186-3.554
		c0.79-0.856,1.789-1.285,2.998-1.285c1.357,0,2.428,0.448,3.213,1.345c0.784,0.897,1.159,2.271,1.125,4.121h-6.048
		c0.018,0.716,0.212,1.273,0.584,1.672c0.373,0.397,0.837,0.597,1.392,0.597c0.379,0,0.696-0.103,0.954-0.31
		C261.85,299.586,262.044,299.254,262.176,298.796z M262.313,296.354c-0.018-0.698-0.198-1.229-0.541-1.594
		c-0.344-0.364-0.762-0.546-1.255-0.546c-0.526,0-0.962,0.192-1.306,0.576s-0.513,0.905-0.507,1.563H262.313z"/>
</g>
<line fill="none" stroke="#262626" stroke-width="0.4999" stroke-linecap="square" stroke-linejoin="round" stroke-miterlimit="10" x1="75.728" y1="258.75" x2="75.728" y2="39.75"/>
<line fill="none" stroke="#262626" stroke-width="0.4999" stroke-linecap="square" stroke-linejoin="round" stroke-miterlimit="10" x1="363.614" y1="258.75" x2="363.614" y2="39.75"/>
<line fill="none" stroke="#262626" stroke-width="0.4999" stroke-linecap="square" stroke-linejoin="round" stroke-miterlimit="10" x1="75.728" y1="258.75" x2="78.606" y2="258.75"/>
<line fill="none" stroke="#262626" stroke-width="0.4999" stroke-linecap="square" stroke-linejoin="round" stroke-miterlimit="10" x1="75.728" y1="214.95" x2="78.606" y2="214.95"/>
<line fill="none" stroke="#262626" stroke-width="0.4999" stroke-linecap="square" stroke-linejoin="round" stroke-miterlimit="10" x1="75.728" y1="171.15" x2="78.606" y2="171.15"/>
<line fill="none" stroke="#262626" stroke-width="0.4999" stroke-linecap="square" stroke-linejoin="round" stroke-miterlimit="10" x1="75.728" y1="127.35" x2="78.606" y2="127.35"/>
<line fill="none" stroke="#262626" stroke-width="0.4999" stroke-linecap="square" stroke-linejoin="round" stroke-miterlimit="10" x1="75.728" y1="83.55" x2="78.606" y2="83.55"/>
<line fill="none" stroke="#262626" stroke-width="0.4999" stroke-linecap="square" stroke-linejoin="round" stroke-miterlimit="10" x1="75.728" y1="39.75" x2="78.606" y2="39.75"/>
<line fill="none" stroke="#262626" stroke-width="0.4999" stroke-linecap="square" stroke-linejoin="round" stroke-miterlimit="10" x1="363.614" y1="258.75" x2="360.735" y2="258.75"/>
<line fill="none" stroke="#262626" stroke-width="0.4999" stroke-linecap="square" stroke-linejoin="round" stroke-miterlimit="10" x1="363.614" y1="214.95" x2="360.735" y2="214.95"/>
<line fill="none" stroke="#262626" stroke-width="0.4999" stroke-linecap="square" stroke-linejoin="round" stroke-miterlimit="10" x1="363.614" y1="171.15" x2="360.735" y2="171.15"/>
<line fill="none" stroke="#262626" stroke-width="0.4999" stroke-linecap="square" stroke-linejoin="round" stroke-miterlimit="10" x1="363.614" y1="127.35" x2="360.735" y2="127.35"/>
<line fill="none" stroke="#262626" stroke-width="0.4999" stroke-linecap="square" stroke-linejoin="round" stroke-miterlimit="10" x1="363.614" y1="83.55" x2="360.735" y2="83.55"/>
<line fill="none" stroke="#262626" stroke-width="0.4999" stroke-linecap="square" stroke-linejoin="round" stroke-miterlimit="10" x1="363.614" y1="39.75" x2="360.735" y2="39.75"/>
<g>
	<path fill="#262626" d="M63.672,252.5c1.109,0,1.976,0.396,2.601,1.188c0.745,0.938,1.117,2.492,1.117,4.664
		c0,2.167-0.375,3.724-1.125,4.672c-0.62,0.781-1.484,1.172-2.593,1.172c-1.114,0-2.012-0.429-2.694-1.285
		c-0.682-0.856-1.023-2.384-1.023-4.582c0-2.156,0.375-3.708,1.125-4.656C61.699,252.891,62.563,252.5,63.672,252.5z M63.672,254.32
		c-0.265,0-0.502,0.085-0.71,0.254c-0.208,0.17-0.37,0.473-0.484,0.91c-0.151,0.568-0.226,1.523-0.226,2.867s0.067,2.267,0.203,2.77
		s0.306,0.837,0.512,1.004s0.441,0.25,0.707,0.25c0.266,0,0.502-0.085,0.711-0.254c0.208-0.169,0.37-0.473,0.484-0.91
		c0.151-0.563,0.227-1.516,0.227-2.859s-0.068-2.267-0.203-2.77c-0.135-0.502-0.306-0.838-0.511-1.008
		C64.173,254.405,63.938,254.32,63.672,254.32z"/>
</g>
<g>
	<path fill="#262626" d="M46.429,208.7c1.109,0,1.976,0.396,2.601,1.188c0.745,0.938,1.117,2.492,1.117,4.664
		c0,2.167-0.375,3.724-1.125,4.672c-0.62,0.781-1.484,1.172-2.593,1.172c-1.114,0-2.012-0.429-2.694-1.285
		c-0.682-0.856-1.023-2.384-1.023-4.582c0-2.156,0.375-3.708,1.125-4.656C44.456,209.091,45.32,208.7,46.429,208.7z M46.429,210.521
		c-0.265,0-0.502,0.085-0.71,0.254c-0.208,0.17-0.37,0.473-0.484,0.91c-0.151,0.568-0.226,1.523-0.226,2.867s0.067,2.267,0.203,2.77
		s0.306,0.837,0.512,1.004s0.441,0.25,0.707,0.25c0.266,0,0.502-0.085,0.711-0.254c0.208-0.169,0.37-0.473,0.484-0.91
		c0.151-0.563,0.227-1.516,0.227-2.859s-0.068-2.267-0.203-2.77c-0.135-0.502-0.306-0.838-0.511-1.008
		C46.93,210.605,46.695,210.521,46.429,210.521z"/>
	<path fill="#262626" d="M52.083,220.2v-2.195h2.194v2.195H52.083z"/>
	<path fill="#262626" d="M63.469,218.161v2.039h-7.692c0.083-0.771,0.333-1.501,0.75-2.191s1.239-1.605,2.468-2.746
		c0.989-0.922,1.596-1.547,1.819-1.875c0.302-0.453,0.453-0.901,0.453-1.344c0-0.489-0.131-0.865-0.395-1.129
		c-0.263-0.263-0.626-0.395-1.089-0.395c-0.458,0-0.822,0.139-1.093,0.414c-0.271,0.276-0.427,0.734-0.468,1.375l-2.187-0.219
		c0.13-1.208,0.539-2.075,1.226-2.602c0.688-0.525,1.546-0.789,2.577-0.789c1.13,0,2.018,0.305,2.663,0.914s0.968,1.367,0.968,2.273
		c0,0.516-0.092,1.007-0.277,1.473c-0.185,0.466-0.478,0.954-0.878,1.465c-0.266,0.339-0.745,0.825-1.437,1.461
		s-1.131,1.058-1.316,1.266c-0.185,0.208-0.334,0.411-0.449,0.609H63.469z"/>
</g>
<g>
	<path fill="#262626" d="M46.429,164.9c1.109,0,1.976,0.396,2.601,1.188c0.745,0.938,1.117,2.492,1.117,4.664
		c0,2.167-0.375,3.724-1.125,4.672c-0.62,0.781-1.484,1.172-2.593,1.172c-1.114,0-2.012-0.429-2.694-1.285
		c-0.682-0.856-1.023-2.384-1.023-4.582c0-2.156,0.375-3.708,1.125-4.656C44.456,165.291,45.32,164.9,46.429,164.9z M46.429,166.721
		c-0.265,0-0.502,0.085-0.71,0.254c-0.208,0.17-0.37,0.473-0.484,0.91c-0.151,0.568-0.226,1.523-0.226,2.867s0.067,2.267,0.203,2.77
		s0.306,0.837,0.512,1.004s0.441,0.25,0.707,0.25c0.266,0,0.502-0.085,0.711-0.254c0.208-0.169,0.37-0.473,0.484-0.91
		c0.151-0.563,0.227-1.516,0.227-2.859s-0.068-2.267-0.203-2.77c-0.135-0.502-0.306-0.838-0.511-1.008
		C46.93,166.806,46.695,166.721,46.429,166.721z"/>
	<path fill="#262626" d="M52.083,176.4v-2.195h2.194v2.195H52.083z"/>
	<path fill="#262626" d="M60.361,176.4v-2.305h-4.686v-1.922l4.967-7.273h1.843v7.266h1.421v1.93h-1.421v2.305H60.361z
		 M60.361,172.166v-3.914l-2.632,3.914H60.361z"/>
</g>
<g>
	<path fill="#262626" d="M46.429,121.1c1.109,0,1.976,0.396,2.601,1.188c0.745,0.938,1.117,2.492,1.117,4.664
		c0,2.167-0.375,3.724-1.125,4.672c-0.62,0.781-1.484,1.172-2.593,1.172c-1.114,0-2.012-0.428-2.694-1.285
		c-0.682-0.856-1.023-2.384-1.023-4.582c0-2.156,0.375-3.708,1.125-4.656C44.456,121.491,45.32,121.1,46.429,121.1z M46.429,122.92
		c-0.265,0-0.502,0.085-0.71,0.254c-0.208,0.169-0.37,0.473-0.484,0.91c-0.151,0.568-0.226,1.523-0.226,2.867
		s0.067,2.267,0.203,2.77c0.135,0.503,0.306,0.837,0.512,1.004c0.206,0.167,0.441,0.25,0.707,0.25c0.266,0,0.502-0.084,0.711-0.254
		c0.208-0.169,0.37-0.473,0.484-0.91c0.151-0.563,0.227-1.516,0.227-2.859s-0.068-2.267-0.203-2.77
		c-0.135-0.502-0.306-0.838-0.511-1.008C46.93,123.005,46.695,122.92,46.429,122.92z"/>
	<path fill="#262626" d="M52.083,132.6v-2.195h2.194v2.195H52.083z"/>
	<path fill="#262626" d="M63.493,123.952l-2.124,0.234c-0.052-0.438-0.188-0.76-0.406-0.969c-0.218-0.208-0.502-0.313-0.851-0.313
		c-0.463,0-0.855,0.208-1.175,0.625c-0.32,0.417-0.522,1.284-0.605,2.602c0.546-0.646,1.226-0.969,2.038-0.969
		c0.916,0,1.701,0.349,2.354,1.047c0.653,0.698,0.98,1.599,0.98,2.703c0,1.172-0.344,2.112-1.031,2.82
		c-0.688,0.708-1.57,1.063-2.647,1.063c-1.156,0-2.106-0.449-2.851-1.348c-0.744-0.898-1.117-2.371-1.117-4.418
		c0-2.099,0.388-3.612,1.164-4.539c0.776-0.927,1.783-1.391,3.022-1.391c0.869,0,1.589,0.244,2.159,0.73
		C62.974,122.318,63.336,123.025,63.493,123.952z M58.518,128.741c0,0.714,0.164,1.265,0.492,1.652
		c0.328,0.388,0.703,0.582,1.125,0.582c0.406,0,0.745-0.159,1.015-0.477c0.271-0.317,0.406-0.838,0.406-1.563
		c0-0.745-0.146-1.29-0.438-1.637c-0.292-0.346-0.656-0.52-1.093-0.52c-0.422,0-0.778,0.166-1.07,0.496
		C58.664,127.607,58.518,128.095,58.518,128.741z"/>
</g>
<g>
	<path fill="#262626" d="M46.429,77.3c1.109,0,1.976,0.396,2.601,1.188c0.745,0.938,1.117,2.492,1.117,4.664
		c0,2.167-0.375,3.724-1.125,4.672c-0.62,0.781-1.484,1.172-2.593,1.172c-1.114,0-2.012-0.428-2.694-1.285
		c-0.682-0.856-1.023-2.384-1.023-4.582c0-2.156,0.375-3.708,1.125-4.656C44.456,77.69,45.32,77.3,46.429,77.3z M46.429,79.12
		c-0.265,0-0.502,0.085-0.71,0.254c-0.208,0.169-0.37,0.473-0.484,0.91c-0.151,0.568-0.226,1.523-0.226,2.867
		s0.067,2.267,0.203,2.77c0.135,0.503,0.306,0.837,0.512,1.004c0.206,0.167,0.441,0.25,0.707,0.25c0.266,0,0.502-0.084,0.711-0.254
		c0.208-0.169,0.37-0.473,0.484-0.91c0.151-0.563,0.227-1.516,0.227-2.859s-0.068-2.267-0.203-2.77
		c-0.135-0.502-0.306-0.838-0.511-1.008C46.93,79.205,46.695,79.12,46.429,79.12z"/>
	<path fill="#262626" d="M52.083,88.8v-2.195h2.194V88.8H52.083z"/>
	<path fill="#262626" d="M57.94,82.62c-0.567-0.239-0.98-0.569-1.238-0.988c-0.258-0.419-0.387-0.879-0.387-1.379
		c0-0.854,0.298-1.56,0.894-2.117c0.596-0.557,1.444-0.836,2.542-0.836c1.088,0,1.933,0.279,2.534,0.836
		c0.602,0.558,0.902,1.263,0.902,2.117c0,0.531-0.138,1.004-0.414,1.418s-0.664,0.73-1.164,0.949
		c0.635,0.255,1.118,0.628,1.449,1.117c0.331,0.49,0.496,1.055,0.496,1.695c0,1.058-0.337,1.917-1.011,2.578
		c-0.674,0.662-1.571,0.992-2.69,0.992c-1.041,0-1.908-0.273-2.601-0.82c-0.817-0.646-1.226-1.531-1.226-2.656
		c0-0.62,0.154-1.188,0.461-1.707C56.795,83.301,57.279,82.901,57.94,82.62z M58.19,85.315c0,0.604,0.155,1.076,0.464,1.414
		c0.31,0.339,0.696,0.508,1.16,0.508c0.453,0,0.828-0.163,1.125-0.488c0.297-0.325,0.445-0.795,0.445-1.41
		c0-0.536-0.151-0.967-0.453-1.293c-0.302-0.325-0.685-0.488-1.148-0.488c-0.536,0-0.936,0.185-1.199,0.555
		C58.322,84.482,58.19,84.883,58.19,85.315z M58.393,80.409c0,0.438,0.124,0.779,0.371,1.023c0.247,0.245,0.577,0.367,0.988,0.367
		c0.417,0,0.75-0.124,1-0.371c0.25-0.247,0.375-0.59,0.375-1.027c0-0.411-0.124-0.741-0.371-0.988
		c-0.248-0.247-0.574-0.371-0.98-0.371c-0.421,0-0.757,0.125-1.007,0.375S58.393,79.998,58.393,80.409z"/>
</g>
<g>
	<path fill="#262626" d="M65.578,45h-2.194v-8.273c-0.802,0.75-1.747,1.305-2.835,1.664v-1.992c0.573-0.188,1.195-0.543,1.866-1.066
		c0.672-0.523,1.132-1.134,1.382-1.832h1.781V45z"/>
</g>
<g>
	<path fill="#262626" d="M25.421,290.931v-2.252h1.34c-0.458-0.292-0.83-0.688-1.117-1.186c-0.286-0.499-0.429-1.052-0.429-1.659
		c0-1.06,0.415-1.959,1.246-2.698c0.83-0.739,1.987-1.108,3.47-1.108c1.523,0,2.708,0.372,3.552,1.117s1.267,1.647,1.267,2.707
		c0,0.504-0.1,0.961-0.301,1.371c-0.2,0.409-0.544,0.841-1.031,1.293h4.596v2.415H25.421z M29.828,288.541
		c1.025,0,1.783-0.203,2.272-0.609c0.49-0.407,0.734-0.902,0.734-1.487c0-0.562-0.225-1.028-0.674-1.4
		c-0.45-0.373-1.187-0.559-2.212-0.559c-0.957,0-1.667,0.191-2.131,0.575s-0.696,0.859-0.696,1.427c0,0.59,0.228,1.08,0.683,1.47
		S28.935,288.541,29.828,288.541z"/>
	<path fill="#262626" d="M31.64,274.825l0.404-2.406c0.882,0.31,1.554,0.798,2.015,1.466c0.461,0.667,0.691,1.502,0.691,2.505
		c0,1.587-0.518,2.762-1.555,3.523c-0.831,0.602-1.878,0.902-3.144,0.902c-1.512,0-2.696-0.396-3.552-1.186
		c-0.856-0.791-1.284-1.791-1.284-3c0-1.357,0.448-2.429,1.344-3.214c0.896-0.785,2.27-1.16,4.119-1.126v6.051
		c0.716-0.018,1.273-0.212,1.671-0.585c0.398-0.372,0.597-0.836,0.597-1.392c0-0.379-0.103-0.696-0.31-0.954
		C32.431,275.152,32.099,274.957,31.64,274.825z M29.201,274.688c-0.699,0.017-1.23,0.197-1.594,0.541
		c-0.363,0.344-0.545,0.762-0.545,1.255c0,0.527,0.192,0.962,0.576,1.306s0.905,0.513,1.563,0.508V274.688z"/>
	<path fill="#262626" d="M34.544,268.011v2.415h-9.123v-2.243h1.297c-0.612-0.384-1.016-0.729-1.211-1.035s-0.292-0.654-0.292-1.044
		c0-0.551,0.152-1.08,0.455-1.591l2.104,0.748c-0.263,0.407-0.395,0.785-0.395,1.135c0,0.338,0.093,0.624,0.279,0.859
		c0.186,0.234,0.522,0.42,1.009,0.554c0.487,0.135,1.506,0.202,3.058,0.202H34.544z"/>
	<path fill="#262626" d="M28.118,255.515l0.43,2.381c-0.476,0.08-0.833,0.263-1.074,0.546c-0.241,0.283-0.361,0.651-0.361,1.104
		c0,0.602,0.208,1.081,0.623,1.439c0.416,0.357,1.11,0.537,2.083,0.537c1.082,0,1.847-0.182,2.293-0.546s0.67-0.853,0.67-1.465
		c0-0.459-0.13-0.834-0.391-1.126s-0.709-0.499-1.344-0.619l0.403-2.372c1.088,0.247,1.91,0.72,2.466,1.418
		c0.555,0.699,0.833,1.636,0.833,2.811c0,1.335-0.421,2.399-1.263,3.192c-0.842,0.794-2.007,1.19-3.496,1.19
		c-1.506,0-2.679-0.398-3.518-1.194c-0.839-0.797-1.258-1.874-1.258-3.231c0-1.111,0.239-1.995,0.717-2.651
		S27.139,255.802,28.118,255.515z"/>
	<path fill="#262626" d="M31.64,248.399l0.404-2.406c0.882,0.31,1.554,0.798,2.015,1.466c0.461,0.667,0.691,1.502,0.691,2.505
		c0,1.587-0.518,2.762-1.555,3.523c-0.831,0.602-1.878,0.902-3.144,0.902c-1.512,0-2.696-0.396-3.552-1.186
		c-0.856-0.791-1.284-1.791-1.284-3c0-1.357,0.448-2.429,1.344-3.214c0.896-0.785,2.27-1.16,4.119-1.126v6.051
		c0.716-0.018,1.273-0.212,1.671-0.585c0.398-0.372,0.597-0.836,0.597-1.392c0-0.379-0.103-0.696-0.31-0.954
		C32.431,248.727,32.099,248.531,31.64,248.399z M29.201,248.263c-0.699,0.017-1.23,0.197-1.594,0.541
		c-0.363,0.344-0.545,0.762-0.545,1.255c0,0.527,0.192,0.962,0.576,1.306s0.905,0.513,1.563,0.508V248.263z"/>
	<path fill="#262626" d="M34.544,235.594v2.415h-4.656c-0.985,0-1.622,0.052-1.911,0.155c-0.289,0.103-0.514,0.271-0.674,0.503
		c-0.16,0.231-0.241,0.511-0.241,0.838c0,0.418,0.115,0.793,0.344,1.125c0.229,0.333,0.533,0.561,0.911,0.684
		s1.077,0.185,2.096,0.185h4.132v2.415h-9.123v-2.243h1.34c-1.031-0.796-1.546-1.799-1.546-3.008c0-0.533,0.096-1.02,0.288-1.461
		s0.437-0.774,0.734-1.001c0.298-0.227,0.636-0.384,1.014-0.473s0.919-0.134,1.624-0.134H34.544z"/>
	<path fill="#262626" d="M25.421,228.96h1.924v1.649h3.677c0.745,0,1.178-0.016,1.301-0.047s0.225-0.104,0.305-0.215
		s0.12-0.248,0.12-0.408c0-0.224-0.077-0.547-0.232-0.971l1.873-0.207c0.241,0.562,0.361,1.198,0.361,1.908
		c0,0.436-0.073,0.828-0.219,1.178c-0.146,0.349-0.335,0.605-0.567,0.769s-0.545,0.276-0.94,0.34
		c-0.281,0.052-0.848,0.077-1.701,0.077h-3.977v1.108h-1.924v-1.108h-1.813l-1.409-2.424h3.222V228.96z"/>
	<path fill="#262626" d="M28.204,225.479l-0.395,2.191c-0.882-0.246-1.535-0.67-1.958-1.271s-0.636-1.495-0.636-2.682
		c0-1.077,0.127-1.879,0.382-2.406c0.255-0.526,0.578-0.897,0.971-1.112c0.392-0.215,1.112-0.322,2.16-0.322l2.818,0.025
		c0.802,0,1.393-0.039,1.774-0.116s0.789-0.222,1.224-0.434v2.389c-0.16,0.063-0.398,0.141-0.713,0.232
		c-0.143,0.04-0.238,0.068-0.284,0.086c0.401,0.412,0.702,0.854,0.902,1.323c0.201,0.47,0.301,0.972,0.301,1.504
		c0,0.939-0.255,1.681-0.765,2.222c-0.509,0.541-1.154,0.813-1.933,0.813c-0.516,0-0.975-0.123-1.379-0.37
		c-0.404-0.246-0.713-0.592-0.928-1.035c-0.215-0.444-0.402-1.084-0.563-1.921c-0.212-1.129-0.41-1.911-0.593-2.346H28.35
		c-0.464,0-0.794,0.114-0.992,0.344c-0.197,0.229-0.296,0.661-0.296,1.297c0,0.43,0.084,0.766,0.253,1.006
		S27.78,225.331,28.204,225.479z M30.163,222.249c0.104,0.309,0.227,0.799,0.37,1.469c0.143,0.671,0.283,1.109,0.421,1.315
		c0.223,0.314,0.507,0.473,0.851,0.473c0.338,0,0.63-0.126,0.876-0.378c0.247-0.253,0.37-0.573,0.37-0.963
		c0-0.436-0.143-0.851-0.43-1.246c-0.218-0.292-0.484-0.484-0.799-0.576c-0.206-0.063-0.599-0.094-1.177-0.094H30.163z"/>
	<path fill="#262626" d="M35.146,217.719l0.335-2.759c0.32-0.046,0.541-0.151,0.661-0.317c0.172-0.229,0.258-0.59,0.258-1.083
		c0-0.63-0.094-1.103-0.283-1.418c-0.126-0.212-0.33-0.372-0.61-0.481c-0.2-0.074-0.57-0.111-1.108-0.111h-1.332
		c0.985,0.722,1.478,1.633,1.478,2.732c0,1.227-0.518,2.197-1.555,2.913c-0.819,0.562-1.838,0.843-3.059,0.843
		c-1.529,0-2.697-0.368-3.505-1.104c-0.807-0.736-1.211-1.651-1.211-2.746c0-1.128,0.495-2.06,1.486-2.793h-1.28v-2.26h8.187
		c1.077,0,1.881,0.089,2.414,0.267s0.951,0.427,1.254,0.747c0.303,0.321,0.541,0.749,0.713,1.285s0.258,1.213,0.258,2.032
		c0,1.547-0.265,2.645-0.795,3.292s-1.201,0.971-2.014,0.971C35.357,217.728,35.26,217.725,35.146,217.719z M29.793,215.562
		c0.968,0,1.677-0.188,2.126-0.563c0.45-0.375,0.674-0.838,0.674-1.388c0-0.59-0.23-1.089-0.691-1.495
		c-0.461-0.407-1.144-0.61-2.049-0.61c-0.945,0-1.646,0.194-2.104,0.584c-0.458,0.39-0.688,0.883-0.688,1.479
		c0,0.578,0.225,1.056,0.674,1.431C28.186,215.374,28.872,215.562,29.793,215.562z"/>
	<path fill="#262626" d="M31.64,201.459l0.404-2.406c0.882,0.31,1.554,0.798,2.015,1.466c0.461,0.667,0.691,1.502,0.691,2.505
		c0,1.587-0.518,2.762-1.555,3.523c-0.831,0.602-1.878,0.902-3.144,0.902c-1.512,0-2.696-0.396-3.552-1.186
		c-0.856-0.791-1.284-1.791-1.284-3c0-1.357,0.448-2.429,1.344-3.214c0.896-0.785,2.27-1.16,4.119-1.126v6.051
		c0.716-0.018,1.273-0.212,1.671-0.585c0.398-0.372,0.597-0.836,0.597-1.392c0-0.379-0.103-0.696-0.31-0.954
		C32.431,201.786,32.099,201.591,31.64,201.459z M29.201,201.322c-0.699,0.017-1.23,0.197-1.594,0.541
		c-0.363,0.344-0.545,0.762-0.545,1.255c0,0.527,0.192,0.962,0.576,1.306s0.905,0.513,1.563,0.508V201.322z"/>
	<path fill="#262626" d="M25.421,192.136v-2.252h1.34c-0.458-0.292-0.83-0.688-1.117-1.186c-0.286-0.499-0.429-1.052-0.429-1.659
		c0-1.06,0.415-1.959,1.246-2.698c0.83-0.739,1.987-1.108,3.47-1.108c1.523,0,2.708,0.372,3.552,1.117s1.267,1.647,1.267,2.707
		c0,0.504-0.1,0.961-0.301,1.371c-0.2,0.409-0.544,0.841-1.031,1.293h4.596v2.415H25.421z M29.828,189.746
		c1.025,0,1.783-0.203,2.272-0.609c0.49-0.407,0.734-0.902,0.734-1.487c0-0.562-0.225-1.028-0.674-1.4
		c-0.45-0.373-1.187-0.559-2.212-0.559c-0.957,0-1.667,0.191-2.131,0.575s-0.696,0.859-0.696,1.427c0,0.59,0.228,1.08,0.683,1.47
		S28.935,189.746,29.828,189.746z"/>
	<path fill="#262626" d="M31.64,176.03l0.404-2.406c0.882,0.31,1.554,0.798,2.015,1.466c0.461,0.667,0.691,1.502,0.691,2.505
		c0,1.587-0.518,2.762-1.555,3.523c-0.831,0.602-1.878,0.902-3.144,0.902c-1.512,0-2.696-0.396-3.552-1.186
		c-0.856-0.791-1.284-1.791-1.284-3c0-1.357,0.448-2.429,1.344-3.214c0.896-0.785,2.27-1.16,4.119-1.126v6.051
		c0.716-0.018,1.273-0.212,1.671-0.585c0.398-0.372,0.597-0.836,0.597-1.392c0-0.379-0.103-0.696-0.31-0.954
		C32.431,176.357,32.099,176.162,31.64,176.03z M29.201,175.894c-0.699,0.017-1.23,0.197-1.594,0.541
		c-0.363,0.344-0.545,0.762-0.545,1.255c0,0.527,0.192,0.962,0.576,1.306s0.905,0.513,1.563,0.508V175.894z"/>
	<path fill="#262626" d="M34.544,169.216v2.415h-9.123v-2.243h1.297c-0.612-0.384-1.016-0.729-1.211-1.035s-0.292-0.654-0.292-1.044
		c0-0.551,0.152-1.08,0.455-1.591l2.104,0.748c-0.263,0.407-0.395,0.785-0.395,1.135c0,0.338,0.093,0.624,0.279,0.859
		c0.186,0.234,0.522,0.42,1.009,0.554c0.487,0.135,1.506,0.202,3.058,0.202H34.544z"/>
	<path fill="#262626" d="M28.118,151.83l0.43,2.38c-0.476,0.081-0.833,0.262-1.074,0.546c-0.241,0.284-0.361,0.652-0.361,1.104
		c0,0.602,0.208,1.082,0.623,1.439c0.416,0.358,1.11,0.538,2.083,0.538c1.082,0,1.847-0.182,2.293-0.546s0.67-0.852,0.67-1.465
		c0-0.458-0.13-0.833-0.391-1.126c-0.261-0.292-0.709-0.498-1.344-0.619l0.403-2.372c1.088,0.246,1.91,0.719,2.466,1.418
		c0.555,0.699,0.833,1.636,0.833,2.81c0,1.335-0.421,2.399-1.263,3.192c-0.842,0.794-2.007,1.19-3.496,1.19
		c-1.506,0-2.679-0.398-3.518-1.194s-1.258-1.874-1.258-3.231c0-1.111,0.239-1.995,0.717-2.651
		C26.41,152.587,27.139,152.116,28.118,151.83z"/>
	<path fill="#262626" d="M29.854,150.558c-0.802,0-1.578-0.198-2.328-0.593c-0.75-0.395-1.323-0.955-1.718-1.68
		c-0.396-0.725-0.593-1.534-0.593-2.428c0-1.38,0.448-2.512,1.344-3.395c0.896-0.882,2.029-1.323,3.397-1.323
		c1.38,0,2.524,0.445,3.432,1.336c0.908,0.891,1.361,2.012,1.361,3.364c0,0.837-0.189,1.634-0.567,2.394s-0.932,1.336-1.662,1.731
		C31.791,150.36,30.901,150.558,29.854,150.558z M29.982,148.083c0.905,0,1.598-0.215,2.079-0.645
		c0.481-0.43,0.721-0.959,0.721-1.59s-0.24-1.159-0.721-1.585c-0.481-0.427-1.18-0.641-2.096-0.641
		c-0.894,0-1.581,0.214-2.062,0.641c-0.481,0.427-0.721,0.955-0.721,1.585s0.24,1.16,0.721,1.59
		C28.385,147.868,29.078,148.083,29.982,148.083z"/>
	<path fill="#262626" d="M34.544,130.878v2.243h-1.34c0.521,0.373,0.91,0.812,1.164,1.319c0.255,0.507,0.382,1.019,0.382,1.534
		c0,1.048-0.422,1.947-1.267,2.694s-2.023,1.122-3.535,1.122c-1.546,0-2.722-0.364-3.526-1.092
		c-0.805-0.728-1.207-1.647-1.207-2.758c0-1.02,0.424-1.902,1.271-2.647H21.95v-2.415H34.544z M29.785,137.323
		c0.974,0,1.678-0.134,2.113-0.404c0.63-0.39,0.945-0.934,0.945-1.633c0-0.556-0.236-1.028-0.709-1.418s-1.178-0.584-2.118-0.584
		c-1.048,0-1.802,0.189-2.264,0.567c-0.461,0.378-0.691,0.862-0.691,1.452c0,0.573,0.228,1.053,0.683,1.439
		C28.2,137.13,28.88,137.323,29.785,137.323z"/>
	<path fill="#262626" d="M24.184,128.498H21.95v-2.415h2.233V128.498z M34.544,128.498h-9.123v-2.415h9.123V128.498z"/>
	<path fill="#262626" d="M34.544,115.306v2.415h-4.656c-0.985,0-1.622,0.051-1.911,0.154c-0.289,0.104-0.514,0.271-0.674,0.503
		s-0.241,0.511-0.241,0.838c0,0.418,0.115,0.793,0.344,1.126c0.229,0.332,0.533,0.56,0.911,0.683s1.077,0.185,2.096,0.185h4.132
		v2.415h-9.123v-2.243h1.34c-1.031-0.796-1.546-1.799-1.546-3.008c0-0.533,0.096-1.02,0.288-1.461
		c0.192-0.441,0.437-0.775,0.734-1.001c0.298-0.227,0.636-0.384,1.014-0.473s0.919-0.133,1.624-0.133H34.544z"/>
	<path fill="#262626" d="M35.146,113.08l0.335-2.758c0.32-0.046,0.541-0.152,0.661-0.318c0.172-0.229,0.258-0.59,0.258-1.083
		c0-0.63-0.094-1.103-0.283-1.418c-0.126-0.212-0.33-0.373-0.61-0.481c-0.2-0.074-0.57-0.112-1.108-0.112h-1.332
		c0.985,0.722,1.478,1.633,1.478,2.733c0,1.226-0.518,2.197-1.555,2.914c-0.819,0.562-1.838,0.842-3.059,0.842
		c-1.529,0-2.697-0.368-3.505-1.104c-0.807-0.736-1.211-1.651-1.211-2.746c0-1.129,0.495-2.06,1.486-2.793h-1.28v-2.26h8.187
		c1.077,0,1.881,0.089,2.414,0.266c0.533,0.178,0.951,0.427,1.254,0.748c0.303,0.321,0.541,0.749,0.713,1.285
		s0.258,1.213,0.258,2.032c0,1.547-0.265,2.644-0.795,3.292s-1.201,0.971-2.014,0.971C35.357,113.088,35.26,113.085,35.146,113.08z
		 M29.793,110.923c0.968,0,1.677-0.188,2.126-0.563c0.45-0.375,0.674-0.838,0.674-1.388c0-0.59-0.23-1.088-0.691-1.495
		s-1.144-0.61-2.049-0.61c-0.945,0-1.646,0.195-2.104,0.584c-0.458,0.39-0.688,0.882-0.688,1.478c0,0.579,0.225,1.056,0.674,1.431
		C28.186,110.735,28.872,110.923,29.793,110.923z"/>
	<path fill="#262626" d="M25.421,97.396V95.17h1.246c-0.968-0.796-1.452-1.745-1.452-2.845c0-0.584,0.12-1.091,0.361-1.521
		c0.24-0.43,0.604-0.782,1.091-1.057c-0.487-0.401-0.851-0.833-1.091-1.297c-0.241-0.464-0.361-0.96-0.361-1.487
		c0-0.67,0.136-1.238,0.408-1.702c0.272-0.464,0.672-0.811,1.199-1.04c0.389-0.166,1.019-0.249,1.89-0.249h5.833v2.415H29.33
		c-0.905,0-1.489,0.083-1.752,0.25c-0.344,0.223-0.516,0.567-0.516,1.031c0,0.338,0.103,0.656,0.31,0.954
		c0.206,0.298,0.508,0.513,0.906,0.645s1.026,0.197,1.885,0.197h4.381v2.415h-5c-0.888,0-1.46,0.043-1.718,0.129
		s-0.45,0.219-0.576,0.399c-0.126,0.181-0.189,0.426-0.189,0.735c0,0.373,0.101,0.708,0.301,1.005
		c0.201,0.298,0.49,0.512,0.868,0.641s1.005,0.193,1.881,0.193h4.433v2.415H25.421z"/>
	<path fill="#262626" d="M29.854,82.125c-0.802,0-1.578-0.198-2.328-0.593c-0.75-0.395-1.323-0.955-1.718-1.68
		c-0.396-0.725-0.593-1.534-0.593-2.428c0-1.38,0.448-2.512,1.344-3.395c0.896-0.882,2.029-1.323,3.397-1.323
		c1.38,0,2.524,0.445,3.432,1.336c0.908,0.891,1.361,2.012,1.361,3.364c0,0.837-0.189,1.634-0.567,2.394s-0.932,1.336-1.662,1.731
		C31.791,81.927,30.901,82.125,29.854,82.125z M29.982,79.65c0.905,0,1.598-0.215,2.079-0.645c0.481-0.43,0.721-0.959,0.721-1.59
		s-0.24-1.159-0.721-1.585c-0.481-0.427-1.18-0.641-2.096-0.641c-0.894,0-1.581,0.214-2.062,0.641
		c-0.481,0.427-0.721,0.955-0.721,1.585s0.24,1.16,0.721,1.59C28.385,79.435,29.078,79.65,29.982,79.65z"/>
	<path fill="#262626" d="M34.544,62.445v2.243h-1.34c0.521,0.373,0.91,0.812,1.164,1.319c0.255,0.507,0.382,1.019,0.382,1.534
		c0,1.048-0.422,1.947-1.267,2.694s-2.023,1.122-3.535,1.122c-1.546,0-2.722-0.364-3.526-1.092
		c-0.805-0.728-1.207-1.647-1.207-2.758c0-1.02,0.424-1.902,1.271-2.647H21.95v-2.415H34.544z M29.785,68.89
		c0.974,0,1.678-0.134,2.113-0.404c0.63-0.39,0.945-0.934,0.945-1.633c0-0.556-0.236-1.028-0.709-1.418s-1.178-0.584-2.118-0.584
		c-1.048,0-1.802,0.189-2.264,0.567c-0.461,0.378-0.691,0.862-0.691,1.452c0,0.573,0.228,1.053,0.683,1.439
		C28.2,68.697,28.88,68.89,29.785,68.89z"/>
	<path fill="#262626" d="M31.64,54.779l0.404-2.406c0.882,0.309,1.554,0.798,2.015,1.465c0.461,0.667,0.691,1.503,0.691,2.505
		c0,1.587-0.518,2.762-1.555,3.523c-0.831,0.602-1.878,0.902-3.144,0.902c-1.512,0-2.696-0.396-3.552-1.186s-1.284-1.79-1.284-2.999
		c0-1.358,0.448-2.429,1.344-3.214c0.896-0.785,2.27-1.16,4.119-1.125v6.05c0.716-0.017,1.273-0.212,1.671-0.584
		c0.398-0.372,0.597-0.836,0.597-1.392c0-0.378-0.103-0.696-0.31-0.954C32.431,55.105,32.099,54.911,31.64,54.779z M29.201,54.642
		c-0.699,0.017-1.23,0.198-1.594,0.542c-0.363,0.344-0.545,0.762-0.545,1.254c0,0.527,0.192,0.963,0.576,1.307
		s0.905,0.513,1.563,0.507V54.642z"/>
</g>
</svg>
