<?xml version="1.0" encoding="utf-8"?>
<!-- Generator: Adobe Illustrator 16.0.3, SVG Export Plug-In . SVG Version: 6.00 Build 0)  -->
<!DOCTYPE svg PUBLIC "-//W3C//DTD SVG 1.1//EN" "http://www.w3.org/Graphics/SVG/1.1/DTD/svg11.dtd">
<svg version="1.1" id="Ebene_1" xmlns="http://www.w3.org/2000/svg" xmlns:xlink="http://www.w3.org/1999/xlink" x="0px" y="0px"
	 width="576px" height="432px" viewBox="0 0 576 432" enable-background="new 0 0 576 432" xml:space="preserve">
<g>
	<defs>
		<rect id="SVGID_1_" width="576" height="432"/>
	</defs>
	<clipPath id="SVGID_2_">
		<use xlink:href="#SVGID_1_"  overflow="visible"/>
	</clipPath>
	<rect clip-path="url(#SVGID_2_)" fill="#FFFFFF" width="576" height="432"/>
	<rect x="72" y="43.2" clip-path="url(#SVGID_2_)" fill="#FFFFFF" width="446.4" height="345.6"/>
	<g clip-path="url(#SVGID_2_)">
		<defs>
			<rect id="SVGID_3_" x="72" y="43.2" width="446.4" height="345.6"/>
		</defs>
		<clipPath id="SVGID_4_">
			<use xlink:href="#SVGID_3_"  overflow="visible"/>
		</clipPath>
		<g opacity="0.3" clip-path="url(#SVGID_4_)">
			<g>
				<defs>
					<rect id="SVGID_5_" x="90.871" y="53.051" width="424.255" height="290.776"/>
				</defs>
				<clipPath id="SVGID_6_">
					<use xlink:href="#SVGID_5_"  overflow="visible"/>
				</clipPath>
				
					<polyline clip-path="url(#SVGID_6_)" fill="none" stroke="#000000" stroke-width="5" stroke-linecap="square" stroke-linejoin="round" stroke-miterlimit="10" points="
					295.2,331.2 293.116,303.219 291.358,283.387 291.616,282.396 291.974,281.748 292.479,281.196 293.334,280.615 
					294.596,280.143 296.563,279.776 299.646,279.578 322.478,279.105 326.346,279.412 331.53,279.863 333.483,279.789 
					334.952,279.504 336.219,278.979 336.981,278.427 337.584,277.768 338.117,276.765 338.791,274.52 339.568,271.937 
					341.502,266.003 347.274,246.738 347.988,243.044 348.345,240.216 348.601,236.411 348.731,232.588 348.619,229.185 
					347.868,218.959 347.279,211.509 347.293,207.79 346.924,194.145 346.553,193.057 346.101,192.33 345.501,191.715 
					344.804,191.191 343.754,190.66 342.92,190.383 340.926,190.122 338.182,190.151 331.558,190.492 321.311,190.869 
					301.738,191.768 295.71,192.14 291.522,192.173 289.207,192.003 288.066,191.752 287.005,191.313 286.4,190.907 
					285.864,190.422 285.291,189.515 284.912,188.423 284.707,187.103 284.524,183.577 283.492,162.455 281.292,129.602 
					280.833,123.046 280.531,119.372 280.132,118.142 279.58,117.279 279.005,116.69 278.281,116.132 277.395,115.661 
					276.727,115.436 275.622,115.201 274.81,115.112 266.66,115.724 261.174,116.023 244.306,116.736 235.792,117.08 
					229.009,117.077 223.81,117.152 218.991,117.501 210.495,118.202 204.528,118.476 182.719,118.953 161.27,120.082 
					159.415,120.556 158.43,121.004 157.86,121.395 157.323,121.802 156.388,123.17 156.024,124.483 155.927,125.902 
					155.979,128.204 156.419,132.143 157.579,140.905 158.209,147.95 158.915,159.869 159.141,163.599 161.707,197.399 
					161.956,202.703 162.314,203.675 162.917,204.53 163.517,205.132 164.602,205.861 165.652,206.306 167.318,206.71 
					168.765,206.885 171.366,207.002 179.512,207.085 188.773,206.873 194.767,206.504 204.189,205.967 213.823,205.631 
					215.401,205.212 216.49,204.782 217.738,203.999 218.768,203.04 219.363,202.261 219.88,201.11 220.468,198.711 
					220.886,197.301 221.227,196.517 222.029,195.529 222.666,195.102 224.063,194.565 225.126,194.299 228.184,193.969 
					238.722,193.477 266.746,192.118 274.239,191.573 277.107,191.556 278.949,191.768 280.502,192.175 281.359,192.572 
					282.329,193.267 283.019,194.088 283.43,194.843 283.797,196.073 284.051,197.936 284.163,200.573 284.442,209.441 
					285.088,217.882 285.81,227.527 287.093,248.4 288.392,265.857 288.942,273.506 289.245,274.557 289.7,275.488 290.32,276.326 
					291.079,277.061 292.291,277.843 293.357,278.279 294.875,278.633 297.654,278.875 305.98,279.192 309.036,279.128 
					318.598,278.721 322.342,278.899 334.17,279.732 336.726,280.19 339.815,280.96 347.381,283.161 350.579,284.281 
					358.423,287.421 361.557,288.832 364.47,290.387 367.162,292.076 372.813,295.694 377.141,298.385 382.65,301.84 
					389.934,305.959 413.946,319.985 415.736,321.026 416.903,321.472 418.5,321.851 420.241,322.018 423.985,322 428.604,322.124 
					439.296,322.766 471.781,324.97 478.292,325.415 489.838,326.211 497.901,327.268 498.813,327.088 499.752,326.702 
					500.141,326.439 502.133,322.806 502.331,322.214 502.589,320.702 502.864,317.572 503.189,313.435 506.668,277.428 
					507.194,273.991 509.094,264.618 510.428,258.261 511.35,255.146 512.54,251.431 512.626,250.521 512.543,249.594 
					509.282,246.41 507.86,245.199 493.396,239.455 489.64,237.756 486.087,235.863 481.322,233.27 476.936,231.133 
					471.759,228.919 460.487,224.253 453.973,221.6 447.9,219.122 446.509,218.352 445.447,217.54 443.614,216.329 441.212,214.922 
					439.006,213.849 423.544,207.097 415.47,203.697 413.055,202.917 410.991,202.591 409.312,202.536 405.087,202.782 
					396.706,203.26 379.656,203.959 356.321,205.046 354.146,204.909 352.099,204.498 350.631,203.885 349.41,202.98 
					348.434,201.848 347.728,200.49 347.375,199.388 347.103,197.375 346.953,194.366 346.709,188.102 345.336,169.248 
					343.918,153.777 343.318,149.755 341.906,141.18 341.666,137.692 341.15,128.53 341.019,122.18 340.999,117.115 340.72,115.147 
					339.89,110.165 339.684,107.023 339.639,101.797 339.45,96.855 338.439,82.206 338.031,78.812 337.45,75.895 337.003,73.882 
					336.96,73.288 339.612,70.044 342.113,69.617 344.987,69.53 385.333,67.819 391.355,67.408 395.883,66.829 400.287,66.052 
					403.928,65.229 409.17,63.69 413.622,62.143 417.28,60.63 421.1,58.798 426.39,56.089 427.674,55.693 428.735,55.551 
					430.358,55.65 431.243,55.832 432.143,56.157 433.081,56.648 434.05,57.334 435.787,58.809 438.516,61.443 443.521,66.399 
					450.117,72.769 466.969,88.605 472.853,94.172 476.711,99.007 476.737,100.316 476.559,100.943 476.104,101.793 
					475.417,102.595 474.229,103.564 472.798,104.461 471.096,105.235 469.121,105.904 466.868,106.449 463.044,107.111 
					457.177,107.722 448.292,108.462 437.458,109.12 426.143,109.566 414.804,109.864 406.572,110.035 404.836,110.304 
					403.764,110.659 402.844,111.157 402.133,111.787 401.622,112.522 401.229,113.62 401.051,114.875 400.952,116.967 
					400.962,120.705 401.281,126.398 404.055,163.262 404.883,173.879 405.371,180.906 406.36,193.814 406.716,198.106 
					406.448,199.33 405.986,200.222 405.313,201.019 404.348,201.755 403.121,202.33 402.006,202.672 400.34,203 397.444,203.232 
					392.119,203.374 376.797,203.699 368.168,204.102 354.666,204.657 352.979,204.475 351.406,204.043 350.265,203.485 
					349.455,202.916 348.752,202.249 348.161,201.446 347.457,200.03 347.116,198.883 346.913,197.058 346.599,193.93 
					346.22,192.739 345.783,191.985 345.142,191.329 344.368,190.767 343.463,190.335 342.485,190.011 341.391,189.842 
					339.856,189.766 335.285,189.945 307.678,191.04 290.293,191.994 288.751,191.824 287.73,191.526 286.645,190.99 
					285.821,190.293 285.286,189.616 284.876,188.806 284.525,187.468 284.403,185.901 283.517,165.989 282.657,150.763 
					280.849,117.946 280.617,117.074 280.185,116.275 279.541,115.573 278.737,114.996 278.088,114.65 276.255,114.244 
					273.292,114.431 264.436,115.48 256.419,115.957 237.112,116.786 230.281,116.926 222.378,117.057 215.762,117.623 
					210.535,117.985 203.005,118.252 185.588,118.56 172.238,119.269 160.301,119.995 149.681,120.268 140.384,120.242 
					132.162,120.045 123.663,119.519 120.275,119.156 116.714,118.453 113.638,117.926 111.233,117.861 107.445,117.878 
					104.535,117.63 102.398,117.458 100.864,117.648 100.016,117.892 99.146,118.269 98.275,118.808 97.702,119.241 96.546,120.751 
					95.696,122.691 95.206,124.491 94.9,126.519 93.469,142.559 93.371,147.991 93.518,152.656 93.858,157.254 94.658,163.855 
					95.541,169.242 96.66,174.719 97.893,179.571 99.38,184.496 100.839,188.681 102.996,194.194 105.085,198.98 107.694,204.347 
					110.781,210.271 113.361,214.792 116.09,219.232 119.393,224.146 122.42,228.353 127.668,235.102 131.283,239.294 
					135.538,243.912 139.899,248.358 144.483,252.677 149.332,256.932 153.83,260.604 158.563,264.211 163.539,267.766 
					224.621,310.292 265.661,338.525 268.101,339.842 270.095,340.648 271.638,341.06 273.723,341.327 275.272,341.306 
					276.759,341.097 278.166,340.705 279.87,339.974 285.927,336.944 289.091,335.645 291.257,334.711 292.284,333.988 
					293.252,333.004 293.859,332.136 294.496,330.713 294.726,329.675 294.855,327.65 294.75,324.889 294.492,319.618 
					294.102,314.912 292.938,302.194 291.833,286.585 291.046,275.351 				"/>
			</g>
		</g>
	</g>
	
		<polyline clip-path="url(#SVGID_2_)" fill="none" stroke="#EDB120" stroke-width="2" stroke-linecap="square" stroke-linejoin="round" stroke-miterlimit="10" points="
		472.754,104.224 471.105,105.038 469.169,105.729 466.968,106.303 463.185,107.02 458.883,107.52 451.772,108.161 442.655,108.808 
		428.656,109.44 413.492,109.938 406.479,110.116 404.681,110.34 403.575,110.656 402.666,111.083 401.894,111.664 401.324,112.366 
		400.953,113.165 400.678,114.334 400.512,117.035 400.528,120.767 400.734,124.771 402.414,146.5 404.242,171.05 404.555,175.591 
		405.893,193.632 406.265,197.391 406.189,198.448 405.992,199.187 405.422,200.271 404.679,201.083 403.663,201.817 
		402.012,202.517 399.989,202.946 397.677,203.179 393.771,203.354 367.238,204.307 354.056,204.758 352.051,204.495 
		350.903,204.104 349.736,203.507 348.738,202.715 348.136,202 347.391,200.655 346.972,199.208 346.808,197.391 346.589,194.616 
		346.265,193.433 345.864,192.646 345.277,191.931 344.557,191.315 343.673,190.805 342.383,190.355 341.276,190.181 
		339.727,190.115 337.042,190.287 335.768,190.229 323.63,190.548 303.873,191.497 292.124,192.157 289.804,192.083 
		288.352,191.814 287.217,191.359 286.34,190.789 285.556,189.986 285.12,189.201 284.79,188.258 284.603,186.829 283.934,170.473 
		280.835,118.09 280.537,117.273 279.906,116.368 278.912,115.601 277.599,115.073 276.455,114.91 275.232,114.913 272.138,115.313 
		267.284,115.917 263.396,116.25 254.366,116.711 233.549,117.597 221.444,117.917 207.714,118.917 202.569,119.044 
		186.949,119.324 175.235,119.922 157.637,120.881 145.194,121.076 135.167,120.951 129.021,120.666 121.365,120.056 
		118.503,119.531 114.471,118.781 112.659,118.67 106.41,118.592 103.396,118.257 101.949,118.341 100.831,118.561 99.989,118.911 
		98.811,119.571 98.006,120.288 97.304,121.188 96.561,122.612 95.984,124.285 95.582,126.185 95.148,130.021 94.494,137.02 
		94.188,141.795 94.059,146.557 94.176,151.9 94.622,157.806 95.44,164.392 96.449,170.437 97.783,176.565 98.874,180.701 
		100.392,185.538 102.149,190.333 104.063,195.078 106.491,200.455 110.51,208.375 113.372,213.526 116.424,218.574 
		120.937,225.259 124.479,230.021 129.307,235.994 132.927,240.083 137.195,244.616 142.702,250.082 146.782,253.797 151.717,258 
		158.234,263.105 162.381,266.126 190.523,285.634 215.632,303.108 246.049,324.151 259.682,333.756 264.463,336.948 
		266.882,338.334 268.837,339.212 270.352,339.702 271.882,340 273.438,340.137 274.922,340.054 276.37,339.807 277.706,339.381 
		279.378,338.633 285.121,335.827 288.549,334.426 290.949,333.325 291.76,332.731 293.006,331.301 293.555,330.274 
		294.005,329.021 294.225,327.535 294.268,325.409 294.004,319.327 294.041,318.221 293.783,315.805 292.962,304.723 
		292.724,304.023 292.285,297.424 292.474,296.729 292.202,294.675 290.997,275.879 290.938,274.595 	"/>
	
		<line clip-path="url(#SVGID_2_)" fill="none" stroke="#000000" stroke-linecap="square" stroke-miterlimit="10" x1="72" y1="43.2" x2="518.4" y2="43.2"/>
	
		<line clip-path="url(#SVGID_2_)" fill="none" stroke="#000000" stroke-linecap="square" stroke-miterlimit="10" x1="518.4" y1="388.8" x2="518.4" y2="43.2"/>
	
		<line clip-path="url(#SVGID_2_)" fill="none" stroke="#000000" stroke-linecap="square" stroke-miterlimit="10" x1="72" y1="388.8" x2="518.4" y2="388.8"/>
	
		<line clip-path="url(#SVGID_2_)" fill="none" stroke="#000000" stroke-linecap="square" stroke-miterlimit="10" x1="72" y1="388.8" x2="72" y2="43.2"/>
	<path clip-path="url(#SVGID_2_)" d="M72,388.8v-4.001V388.8z"/>
	
		<line clip-path="url(#SVGID_2_)" fill="none" stroke="#000000" stroke-width="0.5" stroke-linejoin="round" stroke-miterlimit="10" x1="72" y1="388.8" x2="72" y2="384.8"/>
	<path clip-path="url(#SVGID_2_)" d="M72,47.201v-4V47.201z"/>
	
		<line clip-path="url(#SVGID_2_)" fill="none" stroke="#000000" stroke-width="0.5" stroke-linejoin="round" stroke-miterlimit="10" x1="72" y1="43.2" x2="72" y2="47.2"/>
	<g clip-path="url(#SVGID_2_)">
		<defs>
			<rect id="SVGID_7_" width="576" height="432"/>
		</defs>
		<clipPath id="SVGID_8_">
			<use xlink:href="#SVGID_7_"  overflow="visible"/>
		</clipPath>
		<path clip-path="url(#SVGID_8_)" d="M70.435,397.209c0.564,0.12,1.008,0.372,1.32,0.756s0.48,0.864,0.48,1.416
			c0,0.864-0.3,1.536-0.888,2.004c-0.6,0.467-1.44,0.696-2.532,0.696c-0.372,0-0.756-0.036-1.14-0.108
			c-0.384-0.06-0.792-0.168-1.2-0.312v-1.139c0.324,0.19,0.684,0.335,1.08,0.431c0.384,0.096,0.792,0.144,1.224,0.144
			c0.744,0,1.308-0.144,1.692-0.432c0.384-0.288,0.588-0.72,0.588-1.284c0-0.504-0.18-0.912-0.54-1.2s-0.864-0.443-1.512-0.443
			h-1.02v-0.973h1.068c0.576,0,1.02-0.107,1.332-0.348c0.312-0.228,0.468-0.565,0.468-1.008c0-0.444-0.168-0.792-0.48-1.032
			c-0.324-0.24-0.78-0.36-1.368-0.36c-0.324,0-0.672,0.036-1.044,0.108c-0.372,0.072-0.78,0.18-1.224,0.324v-1.057
			c0.444-0.119,0.864-0.216,1.26-0.275c0.384-0.061,0.756-0.095,1.116-0.095c0.888,0,1.596,0.202,2.124,0.61
			c0.528,0.408,0.792,0.96,0.792,1.656c0,0.479-0.144,0.888-0.42,1.224C71.334,396.849,70.938,397.089,70.435,397.209"/>
		<path clip-path="url(#SVGID_8_)" d="M77.011,393.021c0.972,0,1.716,0.396,2.244,1.163c0.516,0.78,0.78,1.908,0.78,3.372
			c0,1.477-0.264,2.604-0.78,3.372c-0.528,0.769-1.272,1.152-2.244,1.152c-0.984,0-1.74-0.384-2.256-1.152
			c-0.516-0.768-0.768-1.896-0.768-3.372c0-1.464,0.252-2.592,0.768-3.372C75.271,393.417,76.027,393.021,77.011,393.021
			 M77.011,393.957c-0.612,0-1.068,0.3-1.38,0.9c-0.312,0.6-0.456,1.5-0.456,2.699c0,1.2,0.144,2.101,0.456,2.7
			c0.312,0.601,0.768,0.9,1.38,0.9s1.068-0.3,1.38-0.9c0.3-0.6,0.456-1.5,0.456-2.7c0-1.199-0.156-2.1-0.456-2.699
			C78.079,394.257,77.623,393.957,77.011,393.957"/>
		<path clip-path="url(#SVGID_8_)" d="M84.643,393.021c0.972,0,1.716,0.396,2.244,1.163c0.516,0.78,0.78,1.908,0.78,3.372
			c0,1.477-0.264,2.604-0.78,3.372c-0.528,0.769-1.272,1.152-2.244,1.152c-0.984,0-1.74-0.384-2.256-1.152
			c-0.516-0.768-0.768-1.896-0.768-3.372c0-1.464,0.252-2.592,0.768-3.372C82.903,393.417,83.659,393.021,84.643,393.021
			 M84.643,393.957c-0.612,0-1.068,0.3-1.38,0.9c-0.312,0.6-0.456,1.5-0.456,2.699c0,1.2,0.144,2.101,0.456,2.7
			c0.312,0.601,0.768,0.9,1.38,0.9s1.068-0.3,1.38-0.9c0.3-0.6,0.456-1.5,0.456-2.7c0-1.199-0.156-2.1-0.456-2.699
			C85.71,394.257,85.254,393.957,84.643,393.957"/>
	</g>
	<g clip-path="url(#SVGID_2_)">
		<defs>
			<rect id="SVGID_9_" x="53.3" y="390.777" width="17.664" height="13.979"/>
		</defs>
		<clipPath id="SVGID_10_">
			<use xlink:href="#SVGID_9_"  overflow="visible"/>
		</clipPath>
		<rect x="56.78" y="397.665" clip-path="url(#SVGID_10_)" width="7.512" height="0.996"/>
	</g>
	<g clip-path="url(#SVGID_2_)">
		<defs>
			<rect id="SVGID_11_" width="576" height="432"/>
		</defs>
		<clipPath id="SVGID_12_">
			<use xlink:href="#SVGID_11_"  overflow="visible"/>
		</clipPath>
		<line clip-path="url(#SVGID_12_)" x1="146.4" y1="388.8" x2="146.4" y2="384.8"/>
		
			<line clip-path="url(#SVGID_12_)" fill="none" stroke="#000000" stroke-width="0.5" stroke-linejoin="round" stroke-miterlimit="10" x1="146.4" y1="388.8" x2="146.4" y2="384.8"/>
		<line clip-path="url(#SVGID_12_)" x1="146.4" y1="43.2" x2="146.4" y2="47.2"/>
		
			<line clip-path="url(#SVGID_12_)" fill="none" stroke="#000000" stroke-width="0.5" stroke-linejoin="round" stroke-miterlimit="10" x1="146.4" y1="43.2" x2="146.4" y2="47.2"/>
		<path clip-path="url(#SVGID_12_)" d="M142.267,400.929h4.128v0.996h-5.556v-0.996c0.444-0.456,1.056-1.08,1.836-1.872
			c0.768-0.779,1.26-1.283,1.464-1.512c0.384-0.42,0.648-0.78,0.792-1.08c0.144-0.288,0.228-0.588,0.228-0.876
			c0-0.456-0.168-0.84-0.492-1.128c-0.324-0.288-0.744-0.444-1.272-0.444c-0.372,0-0.768,0.072-1.176,0.192
			c-0.408,0.132-0.852,0.325-1.32,0.588v-1.2c0.48-0.191,0.924-0.336,1.332-0.432c0.408-0.096,0.792-0.144,1.14-0.144
			c0.9,0,1.62,0.228,2.16,0.684s0.816,1.056,0.816,1.812c0,0.36-0.072,0.708-0.204,1.021c-0.132,0.324-0.372,0.708-0.732,1.14
			c-0.096,0.12-0.408,0.444-0.936,0.984C143.947,399.202,143.215,399.957,142.267,400.929"/>
		<path clip-path="url(#SVGID_12_)" d="M151.411,393.021c0.972,0,1.716,0.396,2.244,1.163c0.516,0.78,0.78,1.908,0.78,3.372
			c0,1.477-0.264,2.604-0.78,3.372c-0.528,0.769-1.272,1.152-2.244,1.152c-0.984,0-1.74-0.384-2.256-1.152
			c-0.516-0.768-0.768-1.896-0.768-3.372c0-1.464,0.252-2.592,0.768-3.372C149.67,393.417,150.427,393.021,151.411,393.021
			 M151.411,393.957c-0.612,0-1.068,0.3-1.38,0.9c-0.312,0.6-0.456,1.5-0.456,2.699c0,1.2,0.144,2.101,0.456,2.7
			c0.312,0.601,0.768,0.9,1.38,0.9s1.068-0.3,1.38-0.9c0.3-0.6,0.456-1.5,0.456-2.7c0-1.199-0.156-2.1-0.456-2.699
			C152.479,394.257,152.022,393.957,151.411,393.957"/>
		<path clip-path="url(#SVGID_12_)" d="M159.042,393.021c0.972,0,1.716,0.396,2.244,1.163c0.516,0.78,0.78,1.908,0.78,3.372
			c0,1.477-0.264,2.604-0.78,3.372c-0.528,0.769-1.272,1.152-2.244,1.152c-0.984,0-1.74-0.384-2.256-1.152
			c-0.516-0.768-0.768-1.896-0.768-3.372c0-1.464,0.252-2.592,0.768-3.372C157.303,393.417,158.059,393.021,159.042,393.021
			 M159.042,393.957c-0.612,0-1.068,0.3-1.38,0.9c-0.312,0.6-0.456,1.5-0.456,2.699c0,1.2,0.144,2.101,0.456,2.7
			c0.312,0.601,0.768,0.9,1.38,0.9s1.068-0.3,1.38-0.9c0.3-0.6,0.456-1.5,0.456-2.7c0-1.199-0.156-2.1-0.456-2.699
			C160.11,394.257,159.654,393.957,159.042,393.957"/>
	</g>
	<g clip-path="url(#SVGID_2_)">
		<defs>
			<rect id="SVGID_13_" x="127.7" y="390.777" width="17.663" height="13.979"/>
		</defs>
		<clipPath id="SVGID_14_">
			<use xlink:href="#SVGID_13_"  overflow="visible"/>
		</clipPath>
		<rect x="131.18" y="397.665" clip-path="url(#SVGID_14_)" width="7.512" height="0.996"/>
	</g>
	<g clip-path="url(#SVGID_2_)">
		<defs>
			<rect id="SVGID_15_" width="576" height="432"/>
		</defs>
		<clipPath id="SVGID_16_">
			<use xlink:href="#SVGID_15_"  overflow="visible"/>
		</clipPath>
		<line clip-path="url(#SVGID_16_)" x1="220.8" y1="388.8" x2="220.8" y2="384.8"/>
		
			<line clip-path="url(#SVGID_16_)" fill="none" stroke="#000000" stroke-width="0.5" stroke-linejoin="round" stroke-miterlimit="10" x1="220.8" y1="388.8" x2="220.8" y2="384.8"/>
		<line clip-path="url(#SVGID_16_)" x1="220.8" y1="43.2" x2="220.8" y2="47.2"/>
		
			<line clip-path="url(#SVGID_16_)" fill="none" stroke="#000000" stroke-width="0.5" stroke-linejoin="round" stroke-miterlimit="10" x1="220.8" y1="43.2" x2="220.8" y2="47.2"/>
		<polygon clip-path="url(#SVGID_16_)" points="215.851,400.929 217.783,400.929 217.783,394.257 215.683,394.677 215.683,393.597 
			217.771,393.177 218.958,393.177 218.958,400.929 220.891,400.929 220.891,401.925 215.851,401.925 		"/>
		<path clip-path="url(#SVGID_16_)" d="M225.811,393.021c0.972,0,1.716,0.396,2.244,1.163c0.516,0.78,0.78,1.908,0.78,3.372
			c0,1.477-0.264,2.604-0.78,3.372c-0.528,0.769-1.272,1.152-2.244,1.152c-0.984,0-1.74-0.384-2.256-1.152
			c-0.516-0.768-0.768-1.896-0.768-3.372c0-1.464,0.252-2.592,0.768-3.372C224.07,393.417,224.827,393.021,225.811,393.021
			 M225.811,393.957c-0.612,0-1.068,0.3-1.38,0.9c-0.312,0.6-0.456,1.5-0.456,2.699c0,1.2,0.144,2.101,0.456,2.7
			c0.312,0.601,0.768,0.9,1.38,0.9c0.612,0,1.068-0.3,1.38-0.9c0.3-0.6,0.456-1.5,0.456-2.7c0-1.199-0.156-2.1-0.456-2.699
			C226.878,394.257,226.422,393.957,225.811,393.957"/>
		<path clip-path="url(#SVGID_16_)" d="M233.442,393.021c0.972,0,1.716,0.396,2.244,1.163c0.516,0.78,0.78,1.908,0.78,3.372
			c0,1.477-0.264,2.604-0.78,3.372c-0.528,0.769-1.272,1.152-2.244,1.152c-0.984,0-1.74-0.384-2.256-1.152
			c-0.516-0.768-0.768-1.896-0.768-3.372c0-1.464,0.252-2.592,0.768-3.372C231.702,393.417,232.458,393.021,233.442,393.021
			 M233.442,393.957c-0.612,0-1.068,0.3-1.38,0.9c-0.312,0.6-0.456,1.5-0.456,2.699c0,1.2,0.144,2.101,0.456,2.7
			c0.312,0.601,0.768,0.9,1.38,0.9s1.068-0.3,1.38-0.9c0.3-0.6,0.456-1.5,0.456-2.7c0-1.199-0.156-2.1-0.456-2.699
			C234.51,394.257,234.054,393.957,233.442,393.957"/>
	</g>
	<g clip-path="url(#SVGID_2_)">
		<defs>
			<rect id="SVGID_17_" x="202.1" y="390.777" width="17.664" height="13.979"/>
		</defs>
		<clipPath id="SVGID_18_">
			<use xlink:href="#SVGID_17_"  overflow="visible"/>
		</clipPath>
		<rect x="205.58" y="397.665" clip-path="url(#SVGID_18_)" width="7.512" height="0.996"/>
	</g>
	<g clip-path="url(#SVGID_2_)">
		<defs>
			<rect id="SVGID_19_" width="576" height="432"/>
		</defs>
		<clipPath id="SVGID_20_">
			<use xlink:href="#SVGID_19_"  overflow="visible"/>
		</clipPath>
		<line clip-path="url(#SVGID_20_)" x1="295.2" y1="388.8" x2="295.2" y2="384.8"/>
		
			<line clip-path="url(#SVGID_20_)" fill="none" stroke="#000000" stroke-width="0.5" stroke-linejoin="round" stroke-miterlimit="10" x1="295.2" y1="388.8" x2="295.2" y2="384.8"/>
		<line clip-path="url(#SVGID_20_)" x1="295.2" y1="43.2" x2="295.2" y2="47.2"/>
		
			<line clip-path="url(#SVGID_20_)" fill="none" stroke="#000000" stroke-width="0.5" stroke-linejoin="round" stroke-miterlimit="10" x1="295.2" y1="43.2" x2="295.2" y2="47.2"/>
		<path clip-path="url(#SVGID_20_)" d="M295.195,393.021c0.973,0,1.717,0.396,2.244,1.163c0.517,0.78,0.78,1.908,0.78,3.372
			c0,1.477-0.264,2.604-0.78,3.372c-0.527,0.769-1.271,1.152-2.244,1.152c-0.983,0-1.739-0.384-2.256-1.152
			c-0.516-0.768-0.768-1.896-0.768-3.372c0-1.464,0.252-2.592,0.768-3.372C293.456,393.417,294.212,393.021,295.195,393.021
			 M295.195,393.957c-0.611,0-1.067,0.3-1.38,0.9c-0.312,0.6-0.456,1.5-0.456,2.699c0,1.2,0.145,2.101,0.456,2.7
			c0.313,0.601,0.769,0.9,1.38,0.9c0.612,0,1.068-0.3,1.381-0.9c0.3-0.6,0.455-1.5,0.455-2.7c0-1.199-0.155-2.1-0.455-2.699
			C296.264,394.257,295.808,393.957,295.195,393.957"/>
		<line clip-path="url(#SVGID_20_)" x1="369.6" y1="388.8" x2="369.6" y2="384.8"/>
		
			<line clip-path="url(#SVGID_20_)" fill="none" stroke="#000000" stroke-width="0.5" stroke-linejoin="round" stroke-miterlimit="10" x1="369.6" y1="388.8" x2="369.6" y2="384.8"/>
		<line clip-path="url(#SVGID_20_)" x1="369.6" y1="43.2" x2="369.6" y2="47.2"/>
		
			<line clip-path="url(#SVGID_20_)" fill="none" stroke="#000000" stroke-width="0.5" stroke-linejoin="round" stroke-miterlimit="10" x1="369.6" y1="43.2" x2="369.6" y2="47.2"/>
		<polygon clip-path="url(#SVGID_20_)" points="359.627,400.929 361.559,400.929 361.559,394.257 359.459,394.677 359.459,393.597 
			361.547,393.177 362.735,393.177 362.735,400.929 364.667,400.929 364.667,401.925 359.627,401.925 		"/>
		<path clip-path="url(#SVGID_20_)" d="M369.587,393.021c0.972,0,1.716,0.396,2.244,1.163c0.516,0.78,0.78,1.908,0.78,3.372
			c0,1.477-0.265,2.604-0.78,3.372c-0.528,0.769-1.272,1.152-2.244,1.152c-0.983,0-1.74-0.384-2.256-1.152
			c-0.516-0.768-0.768-1.896-0.768-3.372c0-1.464,0.252-2.592,0.768-3.372C367.847,393.417,368.604,393.021,369.587,393.021
			 M369.587,393.957c-0.612,0-1.067,0.3-1.38,0.9c-0.312,0.6-0.456,1.5-0.456,2.699c0,1.2,0.145,2.101,0.456,2.7
			c0.313,0.601,0.768,0.9,1.38,0.9s1.068-0.3,1.38-0.9c0.301-0.6,0.456-1.5,0.456-2.7c0-1.199-0.155-2.1-0.456-2.699
			C370.655,394.257,370.199,393.957,369.587,393.957"/>
		<path clip-path="url(#SVGID_20_)" d="M377.219,393.021c0.973,0,1.717,0.396,2.244,1.163c0.517,0.78,0.78,1.908,0.78,3.372
			c0,1.477-0.264,2.604-0.78,3.372c-0.527,0.769-1.271,1.152-2.244,1.152c-0.983,0-1.739-0.384-2.256-1.152
			c-0.515-0.768-0.768-1.896-0.768-3.372c0-1.464,0.253-2.592,0.768-3.372C375.479,393.417,376.235,393.021,377.219,393.021
			 M377.219,393.957c-0.611,0-1.067,0.3-1.38,0.9c-0.312,0.6-0.456,1.5-0.456,2.699c0,1.2,0.145,2.101,0.456,2.7
			c0.313,0.601,0.769,0.9,1.38,0.9c0.612,0,1.068-0.3,1.381-0.9c0.3-0.6,0.455-1.5,0.455-2.7c0-1.199-0.155-2.1-0.455-2.699
			C378.287,394.257,377.831,393.957,377.219,393.957"/>
		<line clip-path="url(#SVGID_20_)" x1="444" y1="388.8" x2="444" y2="384.8"/>
		
			<line clip-path="url(#SVGID_20_)" fill="none" stroke="#000000" stroke-width="0.5" stroke-linejoin="round" stroke-miterlimit="10" x1="444" y1="388.8" x2="444" y2="384.8"/>
		<line clip-path="url(#SVGID_20_)" x1="444" y1="43.2" x2="444" y2="47.2"/>
		
			<line clip-path="url(#SVGID_20_)" fill="none" stroke="#000000" stroke-width="0.5" stroke-linejoin="round" stroke-miterlimit="10" x1="444" y1="43.2" x2="444" y2="47.2"/>
		<path clip-path="url(#SVGID_20_)" d="M434.843,400.929h4.128v0.996h-5.556v-0.996c0.444-0.456,1.056-1.08,1.836-1.872
			c0.769-0.779,1.26-1.283,1.464-1.512c0.384-0.42,0.648-0.78,0.792-1.08c0.145-0.288,0.229-0.588,0.229-0.876
			c0-0.456-0.168-0.84-0.492-1.128s-0.744-0.444-1.272-0.444c-0.372,0-0.768,0.072-1.176,0.192c-0.408,0.132-0.852,0.325-1.32,0.588
			v-1.2c0.48-0.191,0.925-0.336,1.332-0.432c0.408-0.096,0.792-0.144,1.141-0.144c0.899,0,1.62,0.228,2.16,0.684
			s0.815,1.056,0.815,1.812c0,0.36-0.071,0.708-0.204,1.021c-0.132,0.324-0.372,0.708-0.732,1.14
			c-0.096,0.12-0.407,0.444-0.936,0.984C436.523,399.202,435.791,399.957,434.843,400.929"/>
		<path clip-path="url(#SVGID_20_)" d="M443.987,393.021c0.972,0,1.716,0.396,2.244,1.163c0.516,0.78,0.779,1.908,0.779,3.372
			c0,1.477-0.264,2.604-0.779,3.372c-0.528,0.769-1.272,1.152-2.244,1.152c-0.984,0-1.74-0.384-2.256-1.152
			c-0.517-0.768-0.769-1.896-0.769-3.372c0-1.464,0.252-2.592,0.769-3.372C442.247,393.417,443.003,393.021,443.987,393.021
			 M443.987,393.957c-0.612,0-1.068,0.3-1.38,0.9c-0.313,0.6-0.456,1.5-0.456,2.699c0,1.2,0.144,2.101,0.456,2.7
			c0.312,0.601,0.768,0.9,1.38,0.9c0.611,0,1.067-0.3,1.38-0.9c0.3-0.6,0.456-1.5,0.456-2.7c0-1.199-0.156-2.1-0.456-2.699
			C445.055,394.257,444.599,393.957,443.987,393.957"/>
		<path clip-path="url(#SVGID_20_)" d="M451.619,393.021c0.972,0,1.716,0.396,2.244,1.163c0.516,0.78,0.781,1.908,0.781,3.372
			c0,1.477-0.266,2.604-0.781,3.372c-0.528,0.769-1.272,1.152-2.244,1.152c-0.984,0-1.74-0.384-2.256-1.152
			c-0.517-0.768-0.769-1.896-0.769-3.372c0-1.464,0.252-2.592,0.769-3.372C449.879,393.417,450.635,393.021,451.619,393.021
			 M451.619,393.957c-0.612,0-1.068,0.3-1.38,0.9c-0.313,0.6-0.456,1.5-0.456,2.699c0,1.2,0.144,2.101,0.456,2.7
			c0.312,0.601,0.768,0.9,1.38,0.9s1.068-0.3,1.38-0.9c0.3-0.6,0.456-1.5,0.456-2.7c0-1.199-0.156-2.1-0.456-2.699
			C452.688,394.257,452.231,393.957,451.619,393.957"/>
		<line clip-path="url(#SVGID_20_)" x1="518.4" y1="388.8" x2="518.4" y2="384.8"/>
		
			<line clip-path="url(#SVGID_20_)" fill="none" stroke="#000000" stroke-width="0.5" stroke-linejoin="round" stroke-miterlimit="10" x1="518.4" y1="388.8" x2="518.4" y2="384.8"/>
		<line clip-path="url(#SVGID_20_)" x1="518.4" y1="43.2" x2="518.4" y2="47.2"/>
		
			<line clip-path="url(#SVGID_20_)" fill="none" stroke="#000000" stroke-width="0.5" stroke-linejoin="round" stroke-miterlimit="10" x1="518.4" y1="43.2" x2="518.4" y2="47.2"/>
		<path clip-path="url(#SVGID_20_)" d="M511.812,397.209c0.563,0.12,1.008,0.372,1.319,0.756c0.313,0.384,0.48,0.864,0.48,1.416
			c0,0.864-0.301,1.536-0.889,2.004c-0.601,0.467-1.439,0.696-2.531,0.696c-0.372,0-0.756-0.036-1.141-0.108
			c-0.385-0.06-0.792-0.168-1.2-0.312v-1.139c0.324,0.19,0.685,0.335,1.08,0.431c0.385,0.096,0.792,0.144,1.225,0.144
			c0.744,0,1.308-0.144,1.691-0.432c0.385-0.288,0.589-0.72,0.589-1.284c0-0.504-0.181-0.912-0.54-1.2
			c-0.36-0.288-0.864-0.443-1.513-0.443h-1.02v-0.973h1.067c0.576,0,1.021-0.107,1.332-0.348c0.313-0.228,0.469-0.565,0.469-1.008
			c0-0.444-0.168-0.792-0.479-1.032c-0.325-0.24-0.781-0.36-1.369-0.36c-0.324,0-0.672,0.036-1.044,0.108s-0.78,0.18-1.224,0.324
			v-1.057c0.443-0.119,0.864-0.216,1.26-0.275c0.384-0.061,0.756-0.095,1.116-0.095c0.888,0,1.596,0.202,2.124,0.61
			c0.527,0.408,0.792,0.96,0.792,1.656c0,0.479-0.145,0.888-0.42,1.224C512.711,396.849,512.315,397.089,511.812,397.209"/>
		<path clip-path="url(#SVGID_20_)" d="M518.387,393.021c0.973,0,1.717,0.396,2.244,1.163c0.517,0.78,0.78,1.908,0.78,3.372
			c0,1.477-0.264,2.604-0.78,3.372c-0.527,0.769-1.271,1.152-2.244,1.152c-0.983,0-1.739-0.384-2.256-1.152
			c-0.516-0.768-0.768-1.896-0.768-3.372c0-1.464,0.252-2.592,0.768-3.372C516.647,393.417,517.403,393.021,518.387,393.021
			 M518.387,393.957c-0.611,0-1.067,0.3-1.38,0.9c-0.312,0.6-0.456,1.5-0.456,2.699c0,1.2,0.145,2.101,0.456,2.7
			c0.313,0.601,0.769,0.9,1.38,0.9c0.612,0,1.068-0.3,1.38-0.9c0.301-0.6,0.456-1.5,0.456-2.7c0-1.199-0.155-2.1-0.456-2.699
			C519.455,394.257,518.999,393.957,518.387,393.957"/>
		<path clip-path="url(#SVGID_20_)" d="M526.02,393.021c0.972,0,1.716,0.396,2.243,1.163c0.517,0.78,0.78,1.908,0.78,3.372
			c0,1.477-0.264,2.604-0.78,3.372c-0.527,0.769-1.271,1.152-2.243,1.152c-0.984,0-1.74-0.384-2.257-1.152
			c-0.516-0.768-0.768-1.896-0.768-3.372c0-1.464,0.252-2.592,0.768-3.372C524.279,393.417,525.035,393.021,526.02,393.021
			 M526.02,393.957c-0.612,0-1.068,0.3-1.381,0.9c-0.312,0.6-0.455,1.5-0.455,2.699c0,1.2,0.144,2.101,0.455,2.7
			c0.313,0.601,0.769,0.9,1.381,0.9c0.611,0,1.066-0.3,1.38-0.9c0.3-0.6,0.456-1.5,0.456-2.7c0-1.199-0.156-2.1-0.456-2.699
			C527.086,394.257,526.631,393.957,526.02,393.957"/>
		<polygon clip-path="url(#SVGID_20_)" points="285.796,411.986 283.42,415.178 285.916,418.551 284.644,418.551 282.736,415.97 
			280.828,418.551 279.556,418.551 282.1,415.118 279.772,411.986 281.044,411.986 282.784,414.326 284.524,411.986 		"/>
		<polygon clip-path="url(#SVGID_20_)" points="291.16,409.43 293.644,409.43 293.644,410.27 292.239,410.27 292.239,419.281 
			293.644,419.281 293.644,420.122 291.16,420.122 		"/>
		<path clip-path="url(#SVGID_20_)" d="M301.048,413.246c0.264-0.48,0.588-0.828,0.96-1.068c0.372-0.228,0.815-0.348,1.332-0.348
			c0.672,0,1.2,0.24,1.572,0.72c0.371,0.48,0.563,1.164,0.563,2.04v3.96h-1.08v-3.924c0-0.624-0.119-1.092-0.336-1.404
			c-0.228-0.3-0.563-0.456-1.02-0.456c-0.564,0-1.009,0.192-1.332,0.564c-0.324,0.372-0.48,0.876-0.48,1.512v3.708h-1.08v-3.924
			c0-0.624-0.12-1.092-0.336-1.404c-0.228-0.3-0.575-0.456-1.032-0.456c-0.552,0-0.996,0.192-1.319,0.564
			c-0.324,0.372-0.48,0.876-0.48,1.512v3.708H295.9v-6.563h1.079v1.02c0.24-0.396,0.54-0.695,0.888-0.888
			c0.337-0.192,0.744-0.288,1.225-0.288c0.479,0,0.876,0.12,1.212,0.36C300.64,412.43,300.88,412.79,301.048,413.246"/>
		<polygon clip-path="url(#SVGID_20_)" points="310.144,409.43 310.144,420.122 307.66,420.122 307.66,419.281 309.063,419.281 
			309.063,410.27 307.66,410.27 307.66,409.43 		"/>
		<line clip-path="url(#SVGID_20_)" x1="72" y1="388.8" x2="76" y2="388.8"/>
		
			<line clip-path="url(#SVGID_20_)" fill="none" stroke="#000000" stroke-width="0.5" stroke-linejoin="round" stroke-miterlimit="10" x1="72" y1="388.8" x2="76" y2="388.8"/>
		<line clip-path="url(#SVGID_20_)" x1="518.4" y1="388.8" x2="514.4" y2="388.8"/>
		
			<line clip-path="url(#SVGID_20_)" fill="none" stroke="#000000" stroke-width="0.5" stroke-linejoin="round" stroke-miterlimit="10" x1="518.4" y1="388.8" x2="514.4" y2="388.8"/>
		<polygon clip-path="url(#SVGID_20_)" points="46.558,391.116 48.49,391.116 48.49,384.444 46.39,384.864 46.39,383.784 
			48.478,383.364 49.666,383.364 49.666,391.116 51.598,391.116 51.598,392.112 46.558,392.112 		"/>
		<path clip-path="url(#SVGID_20_)" d="M56.519,383.209c0.972,0,1.716,0.396,2.244,1.163c0.516,0.78,0.78,1.908,0.78,3.372
			c0,1.477-0.264,2.604-0.78,3.372c-0.528,0.769-1.272,1.152-2.244,1.152c-0.984,0-1.74-0.384-2.256-1.152
			c-0.516-0.768-0.769-1.896-0.769-3.372c0-1.464,0.253-2.592,0.769-3.372C54.779,383.604,55.535,383.209,56.519,383.209
			 M56.519,384.145c-0.612,0-1.068,0.3-1.38,0.9c-0.312,0.6-0.457,1.5-0.457,2.699c0,1.2,0.145,2.101,0.457,2.7
			c0.312,0.601,0.768,0.9,1.38,0.9s1.068-0.3,1.38-0.9c0.3-0.6,0.456-1.5,0.456-2.7c0-1.199-0.156-2.1-0.456-2.699
			C57.586,384.444,57.13,384.145,56.519,384.145"/>
		<path clip-path="url(#SVGID_20_)" d="M64.15,383.209c0.972,0,1.716,0.396,2.244,1.163c0.516,0.78,0.78,1.908,0.78,3.372
			c0,1.477-0.264,2.604-0.78,3.372c-0.528,0.769-1.272,1.152-2.244,1.152c-0.984,0-1.74-0.384-2.256-1.152
			c-0.516-0.768-0.768-1.896-0.768-3.372c0-1.464,0.252-2.592,0.768-3.372C62.41,383.604,63.167,383.209,64.15,383.209
			 M64.15,384.145c-0.612,0-1.068,0.3-1.38,0.9c-0.312,0.6-0.456,1.5-0.456,2.699c0,1.2,0.144,2.101,0.456,2.7
			c0.312,0.601,0.768,0.9,1.38,0.9s1.068-0.3,1.38-0.9c0.3-0.6,0.456-1.5,0.456-2.7c0-1.199-0.156-2.1-0.456-2.699
			C65.218,384.444,64.762,384.145,64.15,384.145"/>
	</g>
	<g clip-path="url(#SVGID_2_)">
		<defs>
			<rect id="SVGID_21_" x="32.808" y="380.964" width="17.664" height="13.98"/>
		</defs>
		<clipPath id="SVGID_22_">
			<use xlink:href="#SVGID_21_"  overflow="visible"/>
		</clipPath>
		<rect x="36.288" y="387.852" clip-path="url(#SVGID_22_)" width="7.512" height="0.996"/>
	</g>
	<g clip-path="url(#SVGID_2_)">
		<defs>
			<rect id="SVGID_23_" width="576" height="432"/>
		</defs>
		<clipPath id="SVGID_24_">
			<use xlink:href="#SVGID_23_"  overflow="visible"/>
		</clipPath>
		<line clip-path="url(#SVGID_24_)" x1="72" y1="331.2" x2="76" y2="331.2"/>
		
			<line clip-path="url(#SVGID_24_)" fill="none" stroke="#000000" stroke-width="0.5" stroke-linejoin="round" stroke-miterlimit="10" x1="72" y1="331.2" x2="76" y2="331.2"/>
		<line clip-path="url(#SVGID_24_)" x1="518.4" y1="331.2" x2="514.4" y2="331.2"/>
		
			<line clip-path="url(#SVGID_24_)" fill="none" stroke="#000000" stroke-width="0.5" stroke-linejoin="round" stroke-miterlimit="10" x1="518.4" y1="331.2" x2="514.4" y2="331.2"/>
		<path clip-path="url(#SVGID_24_)" d="M64.175,325.609c0.972,0,1.716,0.396,2.244,1.163c0.516,0.78,0.78,1.908,0.78,3.372
			c0,1.476-0.264,2.604-0.78,3.372c-0.528,0.768-1.272,1.152-2.244,1.152c-0.984,0-1.74-0.385-2.256-1.152
			c-0.516-0.769-0.768-1.896-0.768-3.372c0-1.464,0.252-2.592,0.768-3.372C62.435,326.005,63.191,325.609,64.175,325.609
			 M64.175,326.545c-0.612,0-1.068,0.3-1.38,0.899c-0.312,0.601-0.456,1.5-0.456,2.7s0.144,2.1,0.456,2.7
			c0.312,0.6,0.768,0.899,1.38,0.899s1.068-0.3,1.38-0.899c0.3-0.601,0.456-1.5,0.456-2.7s-0.156-2.1-0.456-2.7
			C65.243,326.845,64.787,326.545,64.175,326.545"/>
		<line clip-path="url(#SVGID_24_)" x1="72" y1="273.6" x2="76" y2="273.6"/>
		
			<line clip-path="url(#SVGID_24_)" fill="none" stroke="#000000" stroke-width="0.5" stroke-linejoin="round" stroke-miterlimit="10" x1="72" y1="273.6" x2="76" y2="273.6"/>
		<line clip-path="url(#SVGID_24_)" x1="518.4" y1="273.6" x2="514.4" y2="273.6"/>
		
			<line clip-path="url(#SVGID_24_)" fill="none" stroke="#000000" stroke-width="0.5" stroke-linejoin="round" stroke-miterlimit="10" x1="518.4" y1="273.6" x2="514.4" y2="273.6"/>
		<polygon clip-path="url(#SVGID_24_)" points="46.566,275.916 48.498,275.916 48.498,269.244 46.398,269.664 46.398,268.585 
			48.486,268.164 49.674,268.164 49.674,275.916 51.606,275.916 51.606,276.912 46.566,276.912 		"/>
		<path clip-path="url(#SVGID_24_)" d="M56.526,268.009c0.972,0,1.716,0.396,2.244,1.164c0.516,0.779,0.78,1.907,0.78,3.372
			c0,1.476-0.264,2.604-0.78,3.371c-0.528,0.769-1.272,1.152-2.244,1.152c-0.984,0-1.74-0.384-2.256-1.152
			c-0.516-0.768-0.768-1.896-0.768-3.371c0-1.465,0.252-2.593,0.768-3.372C54.787,268.404,55.542,268.009,56.526,268.009
			 M56.526,268.944c-0.612,0-1.068,0.3-1.38,0.9c-0.312,0.6-0.457,1.5-0.457,2.7c0,1.199,0.145,2.1,0.457,2.699
			c0.312,0.601,0.768,0.9,1.38,0.9s1.068-0.3,1.38-0.9c0.3-0.6,0.456-1.5,0.456-2.699c0-1.2-0.156-2.101-0.456-2.7
			C57.594,269.244,57.138,268.944,56.526,268.944"/>
		<path clip-path="url(#SVGID_24_)" d="M64.158,268.009c0.972,0,1.716,0.396,2.244,1.164c0.516,0.779,0.78,1.907,0.78,3.372
			c0,1.476-0.264,2.604-0.78,3.371c-0.528,0.769-1.272,1.152-2.244,1.152c-0.984,0-1.74-0.384-2.256-1.152
			c-0.516-0.768-0.768-1.896-0.768-3.371c0-1.465,0.252-2.593,0.768-3.372C62.418,268.404,63.174,268.009,64.158,268.009
			 M64.158,268.944c-0.612,0-1.068,0.3-1.38,0.9c-0.312,0.6-0.456,1.5-0.456,2.7c0,1.199,0.144,2.1,0.456,2.699
			c0.312,0.601,0.768,0.9,1.38,0.9s1.068-0.3,1.38-0.9c0.3-0.6,0.456-1.5,0.456-2.699c0-1.2-0.156-2.101-0.456-2.7
			C65.226,269.244,64.77,268.944,64.158,268.944"/>
		<line clip-path="url(#SVGID_24_)" x1="72" y1="216" x2="76" y2="216"/>
		
			<line clip-path="url(#SVGID_24_)" fill="none" stroke="#000000" stroke-width="0.5" stroke-linejoin="round" stroke-miterlimit="10" x1="72" y1="216" x2="76" y2="216"/>
		<line clip-path="url(#SVGID_24_)" x1="518.4" y1="216" x2="514.4" y2="216"/>
		
			<line clip-path="url(#SVGID_24_)" fill="none" stroke="#000000" stroke-width="0.5" stroke-linejoin="round" stroke-miterlimit="10" x1="518.4" y1="216" x2="514.4" y2="216"/>
		<path clip-path="url(#SVGID_24_)" d="M47.382,218.316h4.128v0.996h-5.556v-0.996c0.444-0.456,1.056-1.08,1.836-1.872
			c0.768-0.78,1.26-1.284,1.464-1.512c0.384-0.42,0.648-0.78,0.792-1.08c0.144-0.288,0.228-0.588,0.228-0.876
			c0-0.456-0.168-0.84-0.492-1.128c-0.324-0.288-0.744-0.444-1.272-0.444c-0.372,0-0.768,0.072-1.176,0.192
			c-0.408,0.132-0.852,0.324-1.32,0.588v-1.2c0.48-0.192,0.924-0.336,1.332-0.432c0.408-0.096,0.792-0.144,1.14-0.144
			c0.9,0,1.62,0.228,2.16,0.684s0.816,1.056,0.816,1.812c0,0.36-0.072,0.708-0.204,1.02c-0.132,0.324-0.372,0.708-0.732,1.14
			c-0.096,0.12-0.408,0.444-0.936,0.984S48.33,217.345,47.382,218.316"/>
		<path clip-path="url(#SVGID_24_)" d="M56.526,210.409c0.972,0,1.716,0.396,2.244,1.164c0.516,0.78,0.78,1.908,0.78,3.372
			c0,1.476-0.264,2.604-0.78,3.372c-0.528,0.769-1.272,1.152-2.244,1.152c-0.984,0-1.74-0.384-2.256-1.152
			c-0.516-0.768-0.768-1.896-0.768-3.372c0-1.464,0.252-2.592,0.768-3.372C54.787,210.805,55.542,210.409,56.526,210.409
			 M56.526,211.345c-0.612,0-1.068,0.3-1.38,0.9s-0.457,1.5-0.457,2.7c0,1.2,0.145,2.1,0.457,2.7s0.768,0.9,1.38,0.9
			s1.068-0.301,1.38-0.9c0.3-0.6,0.456-1.5,0.456-2.7c0-1.2-0.156-2.1-0.456-2.7C57.594,211.645,57.138,211.345,56.526,211.345"/>
		<path clip-path="url(#SVGID_24_)" d="M64.158,210.409c0.972,0,1.716,0.396,2.244,1.164c0.516,0.78,0.78,1.908,0.78,3.372
			c0,1.476-0.264,2.604-0.78,3.372c-0.528,0.769-1.272,1.152-2.244,1.152c-0.984,0-1.74-0.384-2.256-1.152
			c-0.516-0.768-0.768-1.896-0.768-3.372c0-1.464,0.252-2.592,0.768-3.372C62.418,210.805,63.174,210.409,64.158,210.409
			 M64.158,211.345c-0.612,0-1.068,0.3-1.38,0.9s-0.456,1.5-0.456,2.7c0,1.2,0.144,2.1,0.456,2.7s0.768,0.9,1.38,0.9
			s1.068-0.301,1.38-0.9c0.3-0.6,0.456-1.5,0.456-2.7c0-1.2-0.156-2.1-0.456-2.7C65.226,211.645,64.77,211.345,64.158,211.345"/>
		<line clip-path="url(#SVGID_24_)" x1="72" y1="158.4" x2="76" y2="158.4"/>
		
			<line clip-path="url(#SVGID_24_)" fill="none" stroke="#000000" stroke-width="0.5" stroke-linejoin="round" stroke-miterlimit="10" x1="72" y1="158.4" x2="76" y2="158.4"/>
		<line clip-path="url(#SVGID_24_)" x1="518.4" y1="158.4" x2="514.4" y2="158.4"/>
		
			<line clip-path="url(#SVGID_24_)" fill="none" stroke="#000000" stroke-width="0.5" stroke-linejoin="round" stroke-miterlimit="10" x1="518.4" y1="158.4" x2="514.4" y2="158.4"/>
		<path clip-path="url(#SVGID_24_)" d="M49.95,156.997c0.564,0.12,1.008,0.372,1.32,0.756c0.312,0.384,0.48,0.864,0.48,1.416
			c0,0.864-0.3,1.536-0.888,2.004c-0.6,0.468-1.44,0.696-2.532,0.696c-0.372,0-0.756-0.036-1.14-0.108
			c-0.384-0.06-0.792-0.168-1.2-0.312v-1.14c0.324,0.192,0.684,0.336,1.08,0.432c0.384,0.096,0.792,0.144,1.224,0.144
			c0.744,0,1.308-0.144,1.692-0.432c0.384-0.288,0.588-0.72,0.588-1.284c0-0.504-0.18-0.912-0.54-1.2s-0.864-0.444-1.512-0.444
			h-1.02v-0.972h1.068c0.576,0,1.02-0.108,1.332-0.348c0.312-0.228,0.468-0.564,0.468-1.008c0-0.444-0.168-0.792-0.48-1.032
			c-0.324-0.24-0.78-0.36-1.368-0.36c-0.324,0-0.672,0.036-1.044,0.108s-0.78,0.18-1.224,0.324v-1.056
			c0.444-0.12,0.864-0.216,1.26-0.276c0.384-0.06,0.756-0.096,1.116-0.096c0.888,0,1.596,0.204,2.124,0.612
			c0.528,0.408,0.792,0.96,0.792,1.656c0,0.48-0.144,0.888-0.42,1.224C50.85,156.637,50.454,156.876,49.95,156.997"/>
		<path clip-path="url(#SVGID_24_)" d="M56.526,152.809c0.972,0,1.716,0.396,2.244,1.164c0.516,0.78,0.78,1.908,0.78,3.372
			c0,1.476-0.264,2.604-0.78,3.372c-0.528,0.768-1.272,1.152-2.244,1.152c-0.984,0-1.74-0.384-2.256-1.152
			c-0.516-0.768-0.768-1.896-0.768-3.372c0-1.464,0.252-2.592,0.768-3.372C54.787,153.205,55.542,152.809,56.526,152.809
			 M56.526,153.745c-0.612,0-1.068,0.3-1.38,0.9s-0.457,1.5-0.457,2.7c0,1.2,0.145,2.1,0.457,2.7c0.312,0.6,0.768,0.9,1.38,0.9
			s1.068-0.3,1.38-0.9c0.3-0.6,0.456-1.5,0.456-2.7c0-1.2-0.156-2.1-0.456-2.7C57.594,154.044,57.138,153.745,56.526,153.745"/>
		<path clip-path="url(#SVGID_24_)" d="M64.158,152.809c0.972,0,1.716,0.396,2.244,1.164c0.516,0.78,0.78,1.908,0.78,3.372
			c0,1.476-0.264,2.604-0.78,3.372c-0.528,0.768-1.272,1.152-2.244,1.152c-0.984,0-1.74-0.384-2.256-1.152
			c-0.516-0.768-0.768-1.896-0.768-3.372c0-1.464,0.252-2.592,0.768-3.372C62.418,153.205,63.174,152.809,64.158,152.809
			 M64.158,153.745c-0.612,0-1.068,0.3-1.38,0.9s-0.456,1.5-0.456,2.7c0,1.2,0.144,2.1,0.456,2.7c0.312,0.6,0.768,0.9,1.38,0.9
			s1.068-0.3,1.38-0.9c0.3-0.6,0.456-1.5,0.456-2.7c0-1.2-0.156-2.1-0.456-2.7C65.226,154.044,64.77,153.745,64.158,153.745"/>
		<line clip-path="url(#SVGID_24_)" x1="72" y1="100.8" x2="76" y2="100.8"/>
		
			<line clip-path="url(#SVGID_24_)" fill="none" stroke="#000000" stroke-width="0.5" stroke-linejoin="round" stroke-miterlimit="10" x1="72" y1="100.8" x2="76" y2="100.8"/>
		<line clip-path="url(#SVGID_24_)" x1="518.4" y1="100.8" x2="514.4" y2="100.8"/>
		
			<line clip-path="url(#SVGID_24_)" fill="none" stroke="#000000" stroke-width="0.5" stroke-linejoin="round" stroke-miterlimit="10" x1="518.4" y1="100.8" x2="514.4" y2="100.8"/>
		<path clip-path="url(#SVGID_24_)" d="M49.302,95.365h1.488v5.7h1.248v0.984h-1.248v2.064h-1.176v-2.064h-3.948v-1.14
			L49.302,95.365z M49.614,96.396l-2.988,4.668h2.988V96.396"/>
		<path clip-path="url(#SVGID_24_)" d="M56.526,95.208c0.972,0,1.716,0.396,2.244,1.164c0.516,0.78,0.78,1.908,0.78,3.372
			c0,1.476-0.264,2.604-0.78,3.372c-0.528,0.768-1.272,1.152-2.244,1.152c-0.984,0-1.74-0.384-2.256-1.152s-0.768-1.896-0.768-3.372
			c0-1.464,0.252-2.592,0.768-3.372C54.787,95.604,55.542,95.208,56.526,95.208 M56.526,96.145c-0.612,0-1.068,0.3-1.38,0.9
			s-0.457,1.5-0.457,2.7c0,1.2,0.145,2.1,0.457,2.7c0.312,0.6,0.768,0.9,1.38,0.9s1.068-0.3,1.38-0.9c0.3-0.6,0.456-1.5,0.456-2.7
			c0-1.2-0.156-2.1-0.456-2.7C57.594,96.444,57.138,96.145,56.526,96.145"/>
		<path clip-path="url(#SVGID_24_)" d="M64.158,95.208c0.972,0,1.716,0.396,2.244,1.164c0.516,0.78,0.78,1.908,0.78,3.372
			c0,1.476-0.264,2.604-0.78,3.372c-0.528,0.768-1.272,1.152-2.244,1.152c-0.984,0-1.74-0.384-2.256-1.152
			c-0.516-0.768-0.768-1.896-0.768-3.372c0-1.464,0.252-2.592,0.768-3.372C62.418,95.604,63.174,95.208,64.158,95.208
			 M64.158,96.145c-0.612,0-1.068,0.3-1.38,0.9s-0.456,1.5-0.456,2.7c0,1.2,0.144,2.1,0.456,2.7c0.312,0.6,0.768,0.9,1.38,0.9
			s1.068-0.3,1.38-0.9c0.3-0.6,0.456-1.5,0.456-2.7c0-1.2-0.156-2.1-0.456-2.7C65.226,96.444,64.77,96.145,64.158,96.145"/>
		<line clip-path="url(#SVGID_24_)" x1="72" y1="43.2" x2="76" y2="43.2"/>
		
			<line clip-path="url(#SVGID_24_)" fill="none" stroke="#000000" stroke-width="0.5" stroke-linejoin="round" stroke-miterlimit="10" x1="72" y1="43.2" x2="76" y2="43.2"/>
		<line clip-path="url(#SVGID_24_)" x1="518.4" y1="43.2" x2="514.4" y2="43.2"/>
		
			<line clip-path="url(#SVGID_24_)" fill="none" stroke="#000000" stroke-width="0.5" stroke-linejoin="round" stroke-miterlimit="10" x1="518.4" y1="43.2" x2="514.4" y2="43.2"/>
		<path clip-path="url(#SVGID_24_)" d="M46.374,37.765h4.644v0.996h-3.564v2.148c0.168-0.06,0.348-0.108,0.516-0.132
			c0.168-0.024,0.348-0.048,0.516-0.048c0.972,0,1.74,0.276,2.316,0.804c0.576,0.54,0.864,1.26,0.864,2.172
			c0,0.948-0.3,1.68-0.888,2.196c-0.588,0.516-1.416,0.768-2.472,0.768c-0.372,0-0.744-0.036-1.128-0.084
			c-0.384-0.06-0.768-0.144-1.176-0.276v-1.188c0.348,0.192,0.708,0.336,1.092,0.432c0.372,0.096,0.768,0.132,1.188,0.132
			c0.672,0,1.212-0.168,1.608-0.528c0.384-0.36,0.588-0.84,0.588-1.452c0-0.6-0.204-1.08-0.588-1.44
			c-0.396-0.36-0.936-0.54-1.608-0.54c-0.312,0-0.636,0.036-0.948,0.108c-0.312,0.072-0.636,0.18-0.96,0.324V37.765"/>
		<path clip-path="url(#SVGID_24_)" d="M56.526,37.608c0.972,0,1.716,0.396,2.244,1.164c0.516,0.78,0.78,1.908,0.78,3.372
			c0,1.476-0.264,2.604-0.78,3.372c-0.528,0.768-1.272,1.152-2.244,1.152c-0.984,0-1.74-0.384-2.256-1.152
			c-0.516-0.768-0.768-1.896-0.768-3.372c0-1.464,0.252-2.592,0.768-3.372C54.787,38.004,55.542,37.608,56.526,37.608
			 M56.526,38.544c-0.612,0-1.068,0.3-1.38,0.9s-0.457,1.5-0.457,2.7c0,1.2,0.145,2.1,0.457,2.7c0.312,0.6,0.768,0.9,1.38,0.9
			s1.068-0.3,1.38-0.9c0.3-0.6,0.456-1.5,0.456-2.7c0-1.2-0.156-2.1-0.456-2.7C57.594,38.844,57.138,38.544,56.526,38.544"/>
		<path clip-path="url(#SVGID_24_)" d="M64.158,37.608c0.972,0,1.716,0.396,2.244,1.164c0.516,0.78,0.78,1.908,0.78,3.372
			c0,1.476-0.264,2.604-0.78,3.372c-0.528,0.768-1.272,1.152-2.244,1.152c-0.984,0-1.74-0.384-2.256-1.152
			c-0.516-0.768-0.768-1.896-0.768-3.372c0-1.464,0.252-2.592,0.768-3.372C62.418,38.004,63.174,37.608,64.158,37.608
			 M64.158,38.544c-0.612,0-1.068,0.3-1.38,0.9s-0.456,1.5-0.456,2.7c0,1.2,0.144,2.1,0.456,2.7c0.312,0.6,0.768,0.9,1.38,0.9
			s1.068-0.3,1.38-0.9c0.3-0.6,0.456-1.5,0.456-2.7c0-1.2-0.156-2.1-0.456-2.7C65.226,38.844,64.77,38.544,64.158,38.544"/>
		<path clip-path="url(#SVGID_24_)" d="M28.116,228.128c0.768,0.312,1.284,0.612,1.524,0.9c0.24,0.289,0.36,0.672,0.36,1.152v0.863
			h-0.9v-0.636c0-0.288-0.072-0.516-0.216-0.684s-0.468-0.349-0.996-0.553l-0.48-0.191l-6.456,2.651v-1.14l5.136-2.053l-5.136-2.051
			v-1.141L28.116,228.128"/>
		<polygon clip-path="url(#SVGID_24_)" points="18.396,220.04 18.396,217.557 19.235,217.557 19.235,218.96 28.248,218.96 
			28.248,217.557 29.087,217.557 29.087,220.04 		"/>
		<path clip-path="url(#SVGID_24_)" d="M22.211,210.152c-0.48-0.264-0.828-0.588-1.068-0.96c-0.228-0.372-0.348-0.816-0.348-1.332
			c0-0.672,0.24-1.2,0.72-1.572c0.48-0.372,1.164-0.564,2.04-0.564h3.96v1.08h-3.924c-0.624,0-1.092,0.12-1.404,0.336
			c-0.3,0.228-0.456,0.564-0.456,1.02c0,0.564,0.192,1.008,0.564,1.332c0.372,0.324,0.876,0.48,1.512,0.48h3.708v1.08h-3.924
			c-0.624,0-1.092,0.12-1.404,0.336c-0.3,0.228-0.456,0.576-0.456,1.032c0,0.552,0.192,0.996,0.564,1.32
			c0.372,0.324,0.876,0.48,1.512,0.48h3.708v1.08h-6.564v-1.08h1.02c-0.396-0.24-0.696-0.54-0.888-0.888
			c-0.192-0.336-0.288-0.744-0.288-1.224s0.12-0.876,0.36-1.212C21.396,210.561,21.756,210.32,22.211,210.152"/>
		<polygon clip-path="url(#SVGID_24_)" points="18.396,201.056 29.087,201.056 29.087,203.54 28.248,203.54 28.248,202.136 
			19.235,202.136 19.235,203.54 18.396,203.54 		"/>
		<rect x="368.204" y="50.4" clip-path="url(#SVGID_24_)" fill="#FFFFFF" width="142.996" height="45.814"/>
		
			<rect x="368.204" y="50.4" clip-path="url(#SVGID_24_)" fill="none" stroke="#000000" stroke-miterlimit="10" width="142.996" height="45.814"/>
		<g opacity="0.3" clip-path="url(#SVGID_24_)">
			<g>
				<defs>
					<rect id="SVGID_25_" x="375.784" y="59.261" width="25.159" height="5"/>
				</defs>
				<clipPath id="SVGID_26_">
					<use xlink:href="#SVGID_25_"  overflow="visible"/>
				</clipPath>
				
					<line clip-path="url(#SVGID_26_)" fill="none" stroke="#000000" stroke-width="5" stroke-linecap="square" stroke-linejoin="round" stroke-miterlimit="10" x1="378.284" y1="61.761" x2="398.443" y2="61.761"/>
			</g>
		</g>
		<path clip-path="url(#SVGID_24_)" d="M422.117,65.822c0,1.325-0.303,2.318-0.893,2.981c-0.604,0.648-1.512,0.979-2.736,0.979
			c-0.461,0-0.878-0.043-1.281-0.101c-0.403-0.072-0.807-0.173-1.181-0.317V68.11c0.374,0.202,0.749,0.346,1.123,0.447
			s0.749,0.158,1.138,0.158c0.835,0,1.469-0.23,1.9-0.662c0.418-0.447,0.634-1.109,0.634-2.002v-0.633
			c-0.273,0.46-0.619,0.806-1.037,1.036c-0.417,0.231-0.907,0.346-1.483,0.346c-0.979,0-1.756-0.36-2.347-1.094
			c-0.591-0.735-0.878-1.714-0.878-2.938c0-1.21,0.287-2.189,0.878-2.923c0.591-0.735,1.368-1.109,2.347-1.109
			c0.576,0,1.066,0.115,1.483,0.345c0.418,0.231,0.764,0.577,1.037,1.037v-1.195h1.296V65.822 M420.821,62.769
			c0-0.921-0.201-1.656-0.576-2.174c-0.389-0.519-0.936-0.778-1.627-0.778c-0.692,0-1.238,0.259-1.627,0.778
			c-0.389,0.518-0.576,1.253-0.576,2.174c0,0.936,0.188,1.656,0.576,2.174c0.389,0.519,0.935,0.778,1.627,0.778
			c0.691,0,1.238-0.259,1.627-0.778C420.62,64.425,420.821,63.705,420.821,62.769"/>
		<path clip-path="url(#SVGID_24_)" d="M429.346,60.133c-0.144-0.086-0.302-0.144-0.475-0.187c-0.174-0.029-0.36-0.058-0.562-0.058
			c-0.735,0-1.296,0.245-1.686,0.72c-0.402,0.476-0.591,1.152-0.591,2.045v4.148h-1.295v-7.878h1.295v1.225
			c0.26-0.475,0.62-0.836,1.052-1.066c0.433-0.23,0.965-0.345,1.599-0.345c0.087,0,0.188,0.014,0.303,0.014
			c0.101,0.014,0.216,0.029,0.359,0.057V60.133"/>
		<path clip-path="url(#SVGID_24_)" d="M433.752,58.737c1.124,0,2.002,0.374,2.65,1.094c0.633,0.734,0.965,1.742,0.965,3.038
			s-0.332,2.304-0.965,3.024c-0.648,0.735-1.526,1.095-2.65,1.095c-1.137,0-2.03-0.36-2.663-1.095
			c-0.634-0.72-0.951-1.728-0.951-3.024s0.317-2.304,0.951-3.038C431.722,59.111,432.615,58.737,433.752,58.737 M433.752,59.831
			c-0.691,0-1.238,0.273-1.642,0.821c-0.402,0.547-0.604,1.282-0.604,2.217c0,0.951,0.188,1.685,0.591,2.233
			c0.403,0.546,0.95,0.806,1.655,0.806c0.691,0,1.239-0.26,1.642-0.806c0.403-0.548,0.605-1.282,0.605-2.233
			c0-0.921-0.202-1.67-0.605-2.217C434.991,60.104,434.443,59.831,433.752,59.831"/>
		<path clip-path="url(#SVGID_24_)" d="M439.383,63.69v-4.767h1.296v4.724c0,0.749,0.145,1.296,0.432,1.67
			c0.288,0.374,0.721,0.562,1.311,0.562c0.69,0,1.253-0.216,1.656-0.663c0.403-0.446,0.604-1.051,0.604-1.829v-4.464h1.297V66.8
			h-1.297v-1.21c-0.316,0.49-0.69,0.836-1.094,1.066c-0.418,0.216-0.893,0.331-1.44,0.331c-0.907,0-1.599-0.273-2.059-0.835
			C439.613,65.605,439.383,64.784,439.383,63.69"/>
		<path clip-path="url(#SVGID_24_)" d="M455.194,62.049v4.752h-1.296v-4.709c0-0.749-0.159-1.296-0.447-1.67
			c-0.287-0.375-0.72-0.562-1.296-0.562c-0.705,0-1.252,0.231-1.655,0.677c-0.403,0.446-0.605,1.051-0.605,1.814v4.45h-1.296v-7.877
			h1.296v1.224c0.303-0.461,0.663-0.821,1.095-1.051c0.418-0.231,0.907-0.36,1.454-0.36c0.894,0,1.584,0.288,2.045,0.85
			C454.949,60.148,455.194,60.969,455.194,62.049"/>
		<path clip-path="url(#SVGID_24_)" d="M458.549,62.869c0,0.951,0.188,1.7,0.576,2.247s0.937,0.806,1.628,0.806
			c0.677,0,1.209-0.259,1.612-0.806c0.389-0.547,0.591-1.296,0.591-2.247c0-0.95-0.202-1.685-0.591-2.232
			c-0.403-0.547-0.936-0.821-1.612-0.821c-0.691,0-1.239,0.274-1.628,0.821S458.549,61.919,458.549,62.869 M462.956,60.119v-4.263
			h1.296v10.945h-1.296v-1.182c-0.275,0.476-0.619,0.821-1.037,1.038c-0.418,0.216-0.907,0.331-1.483,0.331
			c-0.95,0-1.728-0.375-2.333-1.123c-0.604-0.749-0.893-1.757-0.893-2.996c0-1.238,0.288-2.232,0.893-2.995
			c0.605-0.749,1.383-1.137,2.333-1.137c0.576,0,1.065,0.115,1.483,0.345S462.681,59.658,462.956,60.119"/>
		<path clip-path="url(#SVGID_24_)" d="M472.776,56.692v2.232h2.664v1.008h-2.664v4.277c0,0.648,0.086,1.066,0.259,1.238
			c0.173,0.187,0.533,0.274,1.08,0.274h1.325v1.08h-1.325c-1.008,0-1.699-0.188-2.073-0.562s-0.562-1.051-0.562-2.03v-4.277h-0.95
			v-1.008h0.95v-2.232H472.776"/>
		<path clip-path="url(#SVGID_24_)" d="M481.704,60.133c-0.144-0.086-0.302-0.144-0.475-0.187c-0.174-0.029-0.36-0.058-0.562-0.058
			c-0.736,0-1.297,0.245-1.686,0.72c-0.403,0.476-0.59,1.152-0.59,2.045v4.148h-1.296v-7.878h1.296v1.225
			c0.259-0.475,0.619-0.836,1.051-1.066s0.965-0.345,1.599-0.345c0.086,0,0.188,0.014,0.303,0.014
			c0.101,0.014,0.216,0.029,0.359,0.057V60.133"/>
		<path clip-path="url(#SVGID_24_)" d="M482.928,63.69v-4.767h1.297v4.724c0,0.749,0.145,1.296,0.432,1.67
			c0.288,0.374,0.72,0.562,1.311,0.562c0.69,0,1.253-0.216,1.656-0.663c0.402-0.446,0.604-1.051,0.604-1.829v-4.464h1.296V66.8
			h-1.296v-1.21c-0.316,0.49-0.691,0.836-1.095,1.066c-0.417,0.216-0.893,0.331-1.439,0.331c-0.907,0-1.599-0.273-2.06-0.835
			C483.157,65.605,482.928,64.784,482.928,63.69"/>
		<path clip-path="url(#SVGID_24_)" d="M493.469,56.692v2.232h2.664v1.008h-2.664v4.277c0,0.648,0.087,1.066,0.26,1.238
			c0.173,0.187,0.532,0.274,1.08,0.274h1.324v1.08h-1.324c-1.009,0-1.699-0.188-2.074-0.562c-0.374-0.374-0.562-1.051-0.562-2.03
			v-4.277h-0.95v-1.008h0.95v-2.232H493.469"/>
		<path clip-path="url(#SVGID_24_)" d="M504.384,62.049v4.752h-1.296v-4.709c0-0.749-0.158-1.296-0.446-1.67
			c-0.288-0.375-0.72-0.562-1.296-0.562c-0.705,0-1.253,0.231-1.656,0.677c-0.402,0.446-0.604,1.051-0.604,1.814v4.45h-1.296V55.857
			h1.296v4.291c0.303-0.461,0.662-0.821,1.095-1.051c0.417-0.231,0.907-0.36,1.454-0.36c0.893,0,1.584,0.288,2.045,0.85
			C504.14,60.148,504.384,60.969,504.384,62.049"/>
		
			<line clip-path="url(#SVGID_24_)" fill="none" stroke="#EDB120" stroke-width="3" stroke-linecap="square" stroke-linejoin="round" stroke-miterlimit="10" x1="378.284" y1="82.507" x2="398.443" y2="82.507"/>
		<path clip-path="url(#SVGID_24_)" d="M421.08,82.91c-0.014-0.705-0.216-1.267-0.59-1.699c-0.389-0.417-0.907-0.633-1.541-0.633
			c-0.721,0-1.296,0.216-1.728,0.619c-0.433,0.403-0.691,0.979-0.749,1.713H421.08 M422.377,83.285v0.633h-5.947
			c0.058,0.893,0.316,1.585,0.806,2.045c0.476,0.461,1.138,0.692,2.002,0.692c0.489,0,0.979-0.058,1.44-0.173
			c0.46-0.116,0.936-0.302,1.396-0.562v1.224c-0.461,0.201-0.937,0.36-1.426,0.447c-0.489,0.086-0.993,0.144-1.483,0.144
			c-1.267,0-2.261-0.361-2.995-1.08c-0.735-0.721-1.094-1.714-1.094-2.967c0-1.282,0.345-2.304,1.036-3.067
			c0.691-0.749,1.642-1.138,2.822-1.138c1.066,0,1.901,0.346,2.521,1.023C422.06,81.197,422.377,82.118,422.377,83.285"/>
		<path clip-path="url(#SVGID_24_)" d="M429.52,79.901v1.224c-0.375-0.173-0.749-0.317-1.138-0.417
			c-0.403-0.087-0.807-0.144-1.225-0.144c-0.647,0-1.138,0.1-1.454,0.302c-0.316,0.202-0.476,0.49-0.476,0.878
			c0,0.303,0.115,0.533,0.346,0.706c0.23,0.173,0.691,0.346,1.383,0.49l0.446,0.1c0.922,0.202,1.569,0.49,1.958,0.836
			c0.375,0.36,0.576,0.863,0.576,1.497c0,0.735-0.288,1.311-0.864,1.728c-0.575,0.432-1.382,0.634-2.39,0.634
			c-0.434,0-0.864-0.044-1.325-0.115c-0.461-0.073-0.936-0.188-1.441-0.361v-1.338c0.477,0.259,0.952,0.446,1.413,0.561
			c0.46,0.129,0.92,0.187,1.382,0.187c0.604,0,1.079-0.1,1.411-0.302c0.317-0.202,0.489-0.504,0.489-0.893
			c0-0.345-0.129-0.619-0.358-0.806c-0.231-0.187-0.75-0.375-1.557-0.548l-0.447-0.1c-0.806-0.173-1.396-0.433-1.741-0.778
			c-0.36-0.345-0.533-0.821-0.533-1.44c0-0.734,0.26-1.31,0.778-1.714c0.519-0.403,1.267-0.605,2.245-0.605
			c0.477,0,0.923,0.044,1.354,0.116C428.771,79.671,429.159,79.772,429.52,79.901"/>
		<path clip-path="url(#SVGID_24_)" d="M433.277,77.438v2.232h2.664v1.008h-2.664v4.277c0,0.648,0.086,1.065,0.259,1.238
			c0.173,0.187,0.533,0.274,1.08,0.274h1.325v1.08h-1.325c-1.008,0-1.699-0.187-2.073-0.562c-0.374-0.374-0.562-1.051-0.562-2.03
			v-4.277h-0.95V79.67h0.95v-2.232H433.277"/>
		<path clip-path="url(#SVGID_24_)" d="M437.641,76.604h1.296v1.642h-1.296V76.604z M437.641,79.671h1.296v7.876h-1.296V79.671z"/>
		<path clip-path="url(#SVGID_24_)" d="M447.778,81.183c0.316-0.576,0.705-0.994,1.151-1.282c0.447-0.273,0.979-0.417,1.599-0.417
			c0.807,0,1.44,0.288,1.887,0.864s0.677,1.396,0.677,2.448v4.752h-1.296v-4.709c0-0.749-0.145-1.31-0.403-1.685
			c-0.273-0.36-0.677-0.547-1.224-0.547c-0.677,0-1.21,0.23-1.599,0.677c-0.389,0.446-0.576,1.051-0.576,1.814v4.45h-1.296v-4.709
			c0-0.749-0.145-1.31-0.403-1.685c-0.273-0.36-0.691-0.547-1.238-0.547c-0.662,0-1.195,0.23-1.584,0.677
			c-0.389,0.446-0.576,1.051-0.576,1.814v4.45h-1.296V79.67h1.296v1.224c0.288-0.475,0.648-0.835,1.065-1.066
			c0.403-0.23,0.893-0.345,1.469-0.345c0.575,0,1.052,0.144,1.455,0.432S447.576,80.636,447.778,81.183"/>
		<path clip-path="url(#SVGID_24_)" d="M461.833,83.054v4.493h-1.297v-1.195c-0.302,0.489-0.677,0.835-1.108,1.051
			c-0.432,0.216-0.979,0.331-1.613,0.331c-0.806,0-1.454-0.216-1.929-0.662c-0.476-0.446-0.706-1.051-0.706-1.815
			c0-0.878,0.288-1.54,0.893-2.001c0.591-0.446,1.469-0.677,2.649-0.677h1.814v-0.13c0-0.59-0.201-1.051-0.59-1.382
			c-0.389-0.317-0.937-0.489-1.642-0.489c-0.461,0-0.893,0.057-1.325,0.172c-0.432,0.115-0.835,0.274-1.224,0.476V80.03
			c0.461-0.172,0.922-0.317,1.368-0.403s0.878-0.144,1.311-0.144c1.137,0,1.986,0.303,2.55,0.893
			C461.545,80.966,461.833,81.859,461.833,83.054 M459.255,83.587c-1.051,0-1.771,0.13-2.175,0.36
			c-0.402,0.245-0.604,0.648-0.604,1.224c0,0.461,0.145,0.835,0.446,1.095c0.303,0.273,0.721,0.403,1.238,0.403
			c0.721,0,1.297-0.245,1.729-0.764c0.432-0.503,0.647-1.18,0.647-2.03v-0.288H459.255"/>
		<path clip-path="url(#SVGID_24_)" d="M465.778,77.438v2.232h2.664v1.008h-2.664v4.277c0,0.648,0.086,1.065,0.259,1.238
			c0.173,0.187,0.533,0.274,1.08,0.274h1.325v1.08h-1.325c-1.008,0-1.699-0.187-2.073-0.562c-0.374-0.374-0.562-1.051-0.562-2.03
			v-4.277h-0.95V79.67h0.95v-2.232H465.778"/>
		<path clip-path="url(#SVGID_24_)" d="M475.585,82.91c-0.015-0.705-0.217-1.267-0.591-1.699c-0.389-0.417-0.907-0.633-1.541-0.633
			c-0.719,0-1.296,0.216-1.728,0.619c-0.433,0.403-0.691,0.979-0.749,1.713H475.585 M476.881,83.285v0.633h-5.947
			c0.058,0.893,0.316,1.585,0.807,2.045c0.475,0.461,1.137,0.692,2.001,0.692c0.489,0,0.979-0.058,1.44-0.173
			c0.461-0.116,0.936-0.302,1.396-0.562v1.224c-0.461,0.201-0.936,0.36-1.426,0.447c-0.489,0.086-0.993,0.144-1.483,0.144
			c-1.267,0-2.261-0.361-2.995-1.08c-0.734-0.721-1.094-1.714-1.094-2.967c0-1.282,0.346-2.304,1.036-3.067
			c0.691-0.749,1.642-1.138,2.823-1.138c1.065,0,1.9,0.346,2.52,1.023C476.563,81.197,476.881,82.118,476.881,83.285"/>
		<path clip-path="url(#SVGID_24_)" d="M479.775,83.616c0,0.951,0.187,1.7,0.576,2.247c0.389,0.547,0.935,0.806,1.627,0.806
			c0.677,0,1.209-0.259,1.612-0.806c0.389-0.547,0.591-1.296,0.591-2.247c0-0.95-0.202-1.684-0.591-2.231
			c-0.403-0.548-0.936-0.821-1.612-0.821c-0.692,0-1.238,0.273-1.627,0.821C479.962,81.932,479.775,82.666,479.775,83.616
			 M484.182,80.866v-4.262h1.296v10.944h-1.296v-1.181c-0.273,0.475-0.619,0.821-1.037,1.037c-0.417,0.216-0.907,0.331-1.483,0.331
			c-0.95,0-1.728-0.374-2.331-1.123c-0.606-0.749-0.895-1.757-0.895-2.996c0-1.238,0.288-2.231,0.895-2.995
			c0.604-0.749,1.381-1.137,2.331-1.137c0.576,0,1.066,0.115,1.483,0.345C483.563,80.06,483.908,80.406,484.182,80.866"/>
	</g>
</g>
</svg>
