<?xml version="1.0" encoding="utf-8"?>
<!-- Generator: Adobe Illustrator 16.0.3, SVG Export Plug-In . SVG Version: 6.00 Build 0)  -->
<!DOCTYPE svg PUBLIC "-//W3C//DTD SVG 1.1//EN" "http://www.w3.org/Graphics/SVG/1.1/DTD/svg11.dtd">
<svg version="1.1" id="Ebene_1" xmlns="http://www.w3.org/2000/svg" xmlns:xlink="http://www.w3.org/1999/xlink" x="0px" y="0px"
	 width="240.952px" height="133.755px" viewBox="0 0 240.952 133.755" enable-background="new 0 0 240.952 133.755"
	 xml:space="preserve">
<g opacity="0.3">
	<path fill="#FFFFFF" d="M0.527,108.612c0,0,4.06-4.01,23.443-17.242c12.094-8.256,34.652-5.904,70.885,7.52
		c20.969,7.768,34.313,14.94,46.396,20.443c18.666,8.5,39.193,14.706,69.778,11.004c9.513-1.151,18.575-5.623,29.923-8.391"/>
	<g>
		<path fill="none" stroke="#1D1D1B" stroke-width="1.5" stroke-miterlimit="10" d="M8.975,101.944
			c0.97-0.715,2.044-1.499,3.232-2.353"/>
		<path fill="none" stroke="#1D1D1B" stroke-width="1.5" stroke-miterlimit="10" stroke-dasharray="8.1818,8.1818" d="
			M18.887,94.872c1.564-1.088,3.256-2.254,5.083-3.501c12.094-8.256,34.652-5.904,70.885,7.52
			c20.969,7.768,34.313,14.94,46.396,20.443c18.666,8.5,39.193,14.706,69.778,11.004c7.237-0.875,14.214-3.673,22.134-6.181"/>
		<path fill="none" stroke="#1D1D1B" stroke-width="1.5" stroke-miterlimit="10" d="M237.085,122.971
			c1.261-0.36,2.548-0.704,3.866-1.026"/>
		<g>
			<polygon fill="#1D1D1B" points="15.342,106.559 0.527,108.612 6.153,94.754 			"/>
		</g>
	</g>
</g>
<path fill="none" stroke="#006633" stroke-width="1.5" stroke-linecap="round" stroke-miterlimit="10" d="M199.662,116.145
	C153.036,135.375,45.202,131.1,37.33,78.82"/>
<path fill="none" stroke="#E30613" stroke-width="1.5" stroke-linecap="round" stroke-miterlimit="10" d="M98.452,81.586"/>
<g opacity="0.2">
	<g>
		<path fill="none" stroke="#006633" stroke-width="1.5" stroke-linecap="round" stroke-miterlimit="10" d="M99.108,81.289
			c-0.44-0.512-0.88-1.014-1.322-1.505"/>
		
			<path fill="none" stroke="#006633" stroke-width="1.5" stroke-linecap="round" stroke-miterlimit="10" stroke-dasharray="4.0061,4.0061" d="
			M95.038,76.868c-16.466-16.604-34.094-18.754-54.757-0.739"/>
		<path fill="none" stroke="#006633" stroke-width="1.5" stroke-linecap="round" stroke-miterlimit="10" d="M38.793,77.457
			c-0.486,0.443-0.974,0.897-1.463,1.363"/>
	</g>
</g>
<path fill="none" stroke="#006633" stroke-width="1.5" stroke-linecap="round" stroke-miterlimit="10" d="M38.186,77.054
	c0-6.184-6.215-18.328-6.294-18.328"/>
<path fill="none" stroke="#006633" stroke-width="1.5" stroke-linecap="round" stroke-miterlimit="10" d="M98.91,81.289
	c31.042-23.344,101.58-0.828,100.751,34.856"/>
<g>
	<text transform="matrix(1 0 0 1 33.3257 72.3916)" font-family="'TUMNeueHelvetica-Regular'" font-size="4.3586">1</text>
	<text transform="matrix(1 0 0 1 30.3081 71.458)" font-family="'TUMNeueHelvetica-Regular'" font-size="6.2266">v</text>
</g>
<g>
	<text transform="matrix(1 0 0 1 204.2837 110.2349)" font-family="'TUMNeueHelvetica-Regular'" font-size="4.3586">3</text>
	<text transform="matrix(1 0 0 1 201.2661 109.3013)" font-family="'TUMNeueHelvetica-Regular'" font-size="6.2266">v</text>
</g>
<g>
	<text transform="matrix(1 0 0 1 96.3643 74.3662)" font-family="'TUMNeueHelvetica-Regular'" font-size="4.3586">2</text>
	<text transform="matrix(1 0 0 1 93.3457 73.4326)" font-family="'TUMNeueHelvetica-Regular'" font-size="6.2266">v</text>
</g>
<g>
	<text transform="matrix(1 0 0 1 72.7178 69.7256)" font-family="'TUMNeueHelvetica-Regular'" font-size="4.3586">2</text>
	<text transform="matrix(1 0 0 1 71.2393 69.7256)" font-family="'TUMNeueHelvetica-Regular'" font-size="4.3586">,</text>
	<text transform="matrix(1 0 0 1 68.7568 69.7256)" font-family="'TUMNeueHelvetica-Regular'" font-size="4.3586">1</text>
	<text transform="matrix(1 0 0 1 64.2988 68.792)" font-family="'TUMNeueHelvetica-Regular'" font-size="6.2266">w</text>
</g>
<g>
	<text transform="matrix(1 0 0 1 96.3335 128.5415)" font-family="'TUMNeueHelvetica-Regular'" font-size="4.3586">3</text>
	<text transform="matrix(1 0 0 1 94.855 128.5415)" font-family="'TUMNeueHelvetica-Regular'" font-size="4.3586">,</text>
	<text transform="matrix(1 0 0 1 92.3726 128.5415)" font-family="'TUMNeueHelvetica-Regular'" font-size="4.3586">1</text>
	<text transform="matrix(1 0 0 1 87.9146 127.6079)" font-family="'TUMNeueHelvetica-Regular'" font-size="6.2266">w</text>
</g>
<g>
	<text transform="matrix(1 0 0 1 151.9897 79.1978)" font-family="'TUMNeueHelvetica-Regular'" font-size="4.3586">3</text>
	<text transform="matrix(1 0 0 1 150.5112 79.1978)" font-family="'TUMNeueHelvetica-Regular'" font-size="4.3586">,</text>
	<text transform="matrix(1 0 0 1 148.0288 79.1978)" font-family="'TUMNeueHelvetica-Regular'" font-size="4.3586">2</text>
	<text transform="matrix(1 0 0 1 143.5708 78.2642)" font-family="'TUMNeueHelvetica-Regular'" font-size="6.2266">w</text>
</g>
<g>
	<text transform="matrix(1 0 0 1 45.1211 52.7939)" font-family="'TUMNeueHelvetica-Regular'" font-size="4.3586">1</text>
	
		<text transform="matrix(0.9999 0.0149 -0.0149 0.9999 42.4346 51.8208)" font-family="'TUMNeueHelvetica-Regular'" font-size="6.2266">c</text>
</g>
<g>
	<g>
		<line fill="none" stroke="#1D1D1B" stroke-miterlimit="10" x1="19.49" y1="48.66" x2="31.092" y2="33.793"/>
		<line fill="none" stroke="#1D1D1B" stroke-miterlimit="10" x1="19.49" y1="48.66" x2="9.473" y2="32.434"/>
		<line fill="none" stroke="#1D1D1B" stroke-miterlimit="10" x1="19.49" y1="48.66" x2="3.536" y2="52.648"/>
		<line fill="none" stroke="#1D1D1B" stroke-miterlimit="10" x1="19.49" y1="48.66" x2="23.115" y2="64.613"/>
		<line fill="none" stroke="#1D1D1B" stroke-miterlimit="10" x1="19.49" y1="48.66" x2="40.158" y2="51.197"/>
		<circle fill="none" stroke="#1D1D1B" stroke-miterlimit="10" cx="14.64" cy="57.18" r="0.544"/>
		<circle fill="none" stroke="#1D1D1B" stroke-miterlimit="10" cx="19.807" cy="35.969" r="0.543"/>
		<circle fill="none" stroke="#1D1D1B" stroke-miterlimit="10" cx="32.588" cy="43.493" r="0.544"/>
		<circle fill="none" stroke="#1D1D1B" stroke-miterlimit="10" cx="27.829" cy="55.004" r="0.544"/>
		<circle fill="none" stroke="#1D1D1B" stroke-miterlimit="10" cx="8.385" cy="44.943" r="0.544"/>
	</g>
	<circle fill="#009FE3" cx="29.046" cy="44.866" r="0.657"/>
	<circle fill="#009FE3" cx="29.484" cy="42.677" r="0.656"/>
	<circle fill="#009FE3" cx="34.225" cy="39.978" r="0.656"/>
	<circle fill="#009FE3" cx="35.831" cy="43.553" r="0.656"/>
	<circle fill="#009FE3" cx="31.235" cy="45.814" r="0.657"/>
	<circle fill="#009FE3" cx="34.299" cy="45.814" r="0.657"/>
	<circle fill="#009640" cx="24.742" cy="52.745" r="0.656"/>
	<circle fill="#009640" cx="27.66" cy="52.015" r="0.656"/>
	<circle fill="#009640" cx="28.41" cy="59.019" r="0.656"/>
	<circle fill="#009640" cx="30.797" cy="52.964" r="0.656"/>
	<circle fill="#009640" cx="23.866" cy="56.611" r="0.656"/>
	<circle fill="#009640" cx="25.617" cy="59.018" r="0.656"/>
	<circle fill="#009640" cx="33.569" cy="53.255" r="0.657"/>
	<circle fill="#009FE3" cx="31.453" cy="41" r="0.656"/>
	<circle fill="#009FE3" cx="37.144" cy="45.523" r="0.656"/>
	<circle fill="#009FE3" cx="28.025" cy="46.763" r="0.656"/>
	<circle fill="#009FE3" cx="36.998" cy="40.708" r="0.656"/>
	<circle fill="#E94E1B" cx="17.958" cy="33.121" r="0.656"/>
	<circle fill="#E94E1B" cx="23.21" cy="36.076" r="0.656"/>
	<circle fill="#E94E1B" cx="18.614" cy="38.374" r="0.656"/>
	<circle fill="#E94E1B" cx="15.879" cy="35.747" r="0.656"/>
	<circle fill="#E94E1B" cx="21.459" cy="33.012" r="0.656"/>
	<circle fill="#E94E1B" cx="23.648" cy="38.702" r="0.656"/>
	<circle fill="#E94E1B" cx="20.912" cy="39.577" r="0.657"/>
	<circle fill="#A3195B" cx="15.879" cy="60.149" r="0.656"/>
	<circle fill="#A3195B" cx="14.456" cy="54.131" r="0.657"/>
	<circle fill="#A3195B" cx="17.301" cy="54.896" r="0.656"/>
	<circle fill="#A3195B" cx="10.736" cy="55.444" r="0.656"/>
	<circle fill="#A3195B" cx="11.064" cy="58.727" r="0.656"/>
	<circle fill="#A3195B" cx="12.924" cy="61.353" r="0.656"/>
	<circle fill="#A3195B" cx="18.505" cy="57.632" r="0.656"/>
	<circle fill="#683C11" cx="3.732" cy="45.158" r="0.656"/>
	<circle fill="#683C11" cx="6.577" cy="42.203" r="0.656"/>
	<circle fill="#683C11" cx="9.313" cy="41.438" r="0.657"/>
	<circle fill="#683C11" cx="8.656" cy="39.139" r="0.656"/>
	<circle fill="#683C11" cx="12.049" cy="45.158" r="0.656"/>
	<circle fill="#683C11" cx="9.532" cy="48.44" r="0.656"/>
	<circle fill="#683C11" cx="5.702" cy="47.565" r="0.656"/>
	<circle fill="#683C11" cx="13.581" cy="47.456" r="0.657"/>
	<circle fill="#683C11" cx="12.486" cy="42.422" r="0.657"/>
	<circle fill="#009640" cx="30.56" cy="57.406" r="0.656"/>
</g>
<line fill="none" stroke="#FCEA10" stroke-miterlimit="10" x1="99.108" y1="81.289" x2="141.842" y2="15.779"/>
<path fill="#FFFFFF" stroke="#1D1D1B" stroke-width="1.5" stroke-linecap="round" stroke-linejoin="round" stroke-miterlimit="10" d="
	M102.002,90.426l-9.933-2.31c0,0,0,0-6.146-9.87l25.973,6.04c-10.351,6.445-9.9,6.165-9.9,6.165l-2.228,9.582l-9.934-2.311
	l2.234-9.605"/>
<g>
	<line fill="none" stroke="#009FE3" stroke-width="1.5" stroke-miterlimit="10" x1="99.738" y1="82.117" x2="98.082" y2="80.461"/>
	<line fill="none" stroke="#009FE3" stroke-width="1.5" stroke-miterlimit="10" x1="98.082" y1="82.117" x2="99.738" y2="80.461"/>
</g>
<line fill="none" stroke="#FCEA10" stroke-miterlimit="10" x1="199.662" y1="116.145" x2="141.842" y2="15.779"/>
<line fill="none" stroke="#FCEA10" stroke-miterlimit="10" x1="20.803" y1="89.14" x2="141.842" y2="15.779"/>
<path fill="#FFFFFF" stroke="#1D1D1B" stroke-width="1.5" stroke-linecap="round" stroke-linejoin="round" stroke-miterlimit="10" d="
	M34.773,87.754l-7.528-6.88c0,0,0,0-0.522-11.615l19.684,17.99c-12.181,0.547-11.65,0.523-11.65,0.523l-6.637,7.261l-7.528-6.88
	l6.653-7.279"/>
<g>
	<line fill="none" stroke="#009FE3" stroke-width="1.5" stroke-miterlimit="10" x1="38.158" y1="79.771" x2="36.502" y2="78.114"/>
	<line fill="none" stroke="#009FE3" stroke-width="1.5" stroke-miterlimit="10" x1="36.502" y1="79.771" x2="38.158" y2="78.114"/>
</g>
<path fill="#FFFFFF" stroke="#1D1D1B" stroke-width="1.5" stroke-linecap="round" stroke-linejoin="round" stroke-miterlimit="10" d="
	M210.255,119.304l-8.749,5.241c0,0,0,0-11.278-2.828l22.876-13.703c-2.965,11.826-2.836,11.312-2.836,11.312l5.055,8.439
	l-8.749,5.24l-5.067-8.46"/>
<g>
	
		<line fill="none" stroke="#009FE3" stroke-width="1.5" stroke-miterlimit="10" x1="200.497" y1="116.711" x2="198.84" y2="115.055"/>
	
		<line fill="none" stroke="#009FE3" stroke-width="1.5" stroke-miterlimit="10" x1="198.84" y1="116.711" x2="200.497" y2="115.055"/>
</g>
<g>
	<g>
		<path fill="none" stroke="#1D1D1B" stroke-miterlimit="10" d="M193.706,26.779c-4.959,0-11.088-0.527-16.709-5.504
			c-5.223-4.623-14.239-5.358-22.688-5.474"/>
		<g>
			<polygon fill="#1D1D1B" points="155.369,12.351 149.29,15.779 155.298,19.331 			"/>
		</g>
	</g>
</g>
<g>
	<g>
		<path fill="none" stroke="#1D1D1B" stroke-miterlimit="10" d="M222.202,80.112c0,8.047-1.582,9.75-3.416,11.583
			c-2.01,2.009-4.466,3.144-5.295,9.397"/>
		<g>
			<polygon fill="#1D1D1B" points="210.171,99.824 213.202,106.112 217.133,100.345 			"/>
		</g>
	</g>
</g>
<g>
	<g>
		<path fill="none" stroke="#1D1D1B" stroke-miterlimit="10" d="M30.943,7.933c-9.594,0-10.503,2.275-10.589,17.556"/>
		<g>
			<polygon fill="#1D1D1B" points="16.942,24.42 20.345,30.514 23.922,24.521 			"/>
		</g>
	</g>
</g>
<g>
	<text transform="matrix(1 0 0 1 37.0469 8.9697)" font-family="'TUMNeueHelvetica-Regular'" font-size="6.4298">visual vocabulary</text>
</g>
<g>
	<text transform="matrix(1 0 0 1 195.9487 28.5679)" font-family="'TUMNeueHelvetica-Regular'" font-size="6.4298">map point</text>
</g>
<g>
	<text transform="matrix(1 0 0 1 206.4126 78.084)" font-family="'TUMNeueHelvetica-Regular'" font-size="6.4298">keyframe</text>
</g>
<rect x="138.087" y="12.024" fill="#FFFFFF" stroke="#1D1D1B" stroke-width="1.5" stroke-linecap="round" stroke-miterlimit="10" width="7.51" height="7.51"/>
</svg>
