<?xml version="1.0" encoding="utf-8"?>
<!-- Generator: Adobe Illustrator 16.0.3, SVG Export Plug-In . SVG Version: 6.00 Build 0)  -->
<!DOCTYPE svg PUBLIC "-//W3C//DTD SVG 1.1//EN" "http://www.w3.org/Graphics/SVG/1.1/DTD/svg11.dtd">
<svg version="1.1" id="Ebene_1" xmlns="http://www.w3.org/2000/svg" xmlns:xlink="http://www.w3.org/1999/xlink" x="0px" y="0px"
	 width="418px" height="324px" viewBox="0 0 418 324" enable-background="new 0 0 418 324" xml:space="preserve">
<g>
	<defs>
		<rect id="SVGID_1_" x="18" y="18" width="381.6" height="288"/>
	</defs>
	<clipPath id="SVGID_2_">
		<use xlink:href="#SVGID_1_"  overflow="visible"/>
	</clipPath>
	<rect x="18" y="18" clip-path="url(#SVGID_2_)" fill="#FFFFFF" width="381.6" height="288"/>
</g>
<rect x="18" y="18" fill="#FFFFFF" width="381.6" height="288"/>
<rect x="80.975" y="39.75" fill="#FFFFFF" width="282.639" height="219"/>
<line opacity="0.149" fill="none" stroke="#262626" stroke-width="0.4999" stroke-linejoin="round" stroke-miterlimit="10" x1="128.082" y1="258.75" x2="128.082" y2="39.75"/>
<line opacity="0.149" fill="none" stroke="#262626" stroke-width="0.4999" stroke-linejoin="round" stroke-miterlimit="10" x1="222.295" y1="258.75" x2="222.295" y2="39.75"/>
<line opacity="0.149" fill="none" stroke="#262626" stroke-width="0.4999" stroke-linejoin="round" stroke-miterlimit="10" x1="316.508" y1="258.75" x2="316.508" y2="39.75"/>
<line opacity="0.149" fill="none" stroke="#262626" stroke-width="0.4999" stroke-linejoin="round" stroke-miterlimit="10" x1="363.614" y1="258.75" x2="80.975" y2="258.75"/>
<line opacity="0.149" fill="none" stroke="#262626" stroke-width="0.4999" stroke-linejoin="round" stroke-miterlimit="10" x1="363.614" y1="227.464" x2="80.975" y2="227.464"/>
<line opacity="0.149" fill="none" stroke="#262626" stroke-width="0.4999" stroke-linejoin="round" stroke-miterlimit="10" x1="363.614" y1="196.179" x2="80.975" y2="196.179"/>
<line opacity="0.149" fill="none" stroke="#262626" stroke-width="0.4999" stroke-linejoin="round" stroke-miterlimit="10" x1="363.614" y1="164.893" x2="80.975" y2="164.893"/>
<line opacity="0.149" fill="none" stroke="#262626" stroke-width="0.4999" stroke-linejoin="round" stroke-miterlimit="10" x1="363.614" y1="133.607" x2="80.975" y2="133.607"/>
<line opacity="0.149" fill="none" stroke="#262626" stroke-width="0.4999" stroke-linejoin="round" stroke-miterlimit="10" x1="363.614" y1="102.321" x2="80.975" y2="102.321"/>
<line opacity="0.149" fill="none" stroke="#262626" stroke-width="0.4999" stroke-linejoin="round" stroke-miterlimit="10" x1="363.614" y1="71.036" x2="80.975" y2="71.036"/>
<line opacity="0.149" fill="none" stroke="#262626" stroke-width="0.4999" stroke-linejoin="round" stroke-miterlimit="10" x1="363.614" y1="39.75" x2="80.975" y2="39.75"/>
<line fill="none" stroke="#262626" stroke-width="0.4999" stroke-linejoin="round" stroke-miterlimit="10" x1="80.975" y1="258.75" x2="363.614" y2="258.75"/>
<path fill="#0072BD" d="M340.061,258.75v-77.647h-47.106v77.647H340.061z M245.848,258.75V198h-47.106v60.75H245.848z
	 M151.635,258.75V149.019h-47.106V258.75H151.635z"/>
<rect x="104.528" y="149.019" fill="none" stroke="#000000" stroke-width="0.4999" stroke-miterlimit="10" width="47.106" height="109.731"/>
<rect x="198.741" y="198" fill="none" stroke="#000000" stroke-width="0.4999" stroke-miterlimit="10" width="47.106" height="60.75"/>
<rect x="292.954" y="181.103" fill="none" stroke="#000000" stroke-width="0.4999" stroke-miterlimit="10" width="47.106" height="77.647"/>
<path fill="#77AC30" d="M340.061,181.103v-10.11h-47.106v10.11H340.061z M245.848,198v-6.551h-47.106V198H245.848z M151.635,149.019
	v-15.654h-47.106v15.654H151.635z"/>
<rect x="104.528" y="133.365" fill="none" stroke="#000000" stroke-width="0.4999" stroke-miterlimit="10" width="47.106" height="15.654"/>
<rect x="198.741" y="191.449" fill="none" stroke="#000000" stroke-width="0.4999" stroke-miterlimit="10" width="47.106" height="6.551"/>
<rect x="292.954" y="170.992" fill="none" stroke="#000000" stroke-width="0.4999" stroke-miterlimit="10" width="47.106" height="10.11"/>
<rect x="104.528" y="122.791" fill="#D95319" width="47.106" height="10.574"/>
<rect x="104.528" y="122.791" fill="none" stroke="#000000" stroke-width="0.4999" stroke-miterlimit="10" width="47.106" height="10.574"/>
<polygon fill="none" stroke="#000000" stroke-width="0.4999" stroke-miterlimit="10" points="198.741,191.449 198.741,191.449 
	245.848,191.449 "/>
<polygon fill="none" stroke="#000000" stroke-width="0.4999" stroke-miterlimit="10" points="292.954,170.992 292.954,170.992 
	340.061,170.992 "/>
<path fill="#EDB120" d="M340.061,170.992v-7.056h-47.106v7.056H340.061z M245.848,191.449v-8.321h-47.106v8.321H245.848z"/>
<polygon fill="none" stroke="#000000" stroke-width="0.4999" stroke-miterlimit="10" points="104.528,122.791 104.528,122.791 
	151.635,122.791 "/>
<rect x="198.741" y="183.128" fill="none" stroke="#000000" stroke-width="0.4999" stroke-miterlimit="10" width="47.106" height="8.321"/>
<rect x="292.954" y="163.937" fill="none" stroke="#000000" stroke-width="0.4999" stroke-miterlimit="10" width="47.106" height="7.056"/>
<path fill="#7E2F8E" d="M340.061,163.937v-1.251h-47.106v1.251H340.061z M245.848,183.128v-1.252h-47.106v1.252H245.848z
	 M151.635,122.791v-1.251h-47.106v1.251H151.635z"/>
<rect x="104.528" y="121.54" fill="none" stroke="#000000" stroke-width="0.4999" stroke-miterlimit="10" width="47.106" height="1.251"/>
<rect x="198.741" y="181.876" fill="none" stroke="#000000" stroke-width="0.4999" stroke-miterlimit="10" width="47.106" height="1.252"/>
<rect x="292.954" y="162.686" fill="none" stroke="#000000" stroke-width="0.4999" stroke-miterlimit="10" width="47.106" height="1.251"/>
<line fill="none" stroke="#262626" stroke-width="0.4999" stroke-linecap="square" stroke-linejoin="round" stroke-miterlimit="10" x1="80.975" y1="258.75" x2="363.614" y2="258.75"/>
<line fill="none" stroke="#262626" stroke-width="0.4999" stroke-linecap="square" stroke-linejoin="round" stroke-miterlimit="10" x1="80.975" y1="39.75" x2="363.614" y2="39.75"/>
<line fill="none" stroke="#262626" stroke-width="0.4999" stroke-linecap="square" stroke-linejoin="round" stroke-miterlimit="10" x1="128.082" y1="258.75" x2="128.082" y2="255.923"/>
<line fill="none" stroke="#262626" stroke-width="0.4999" stroke-linecap="square" stroke-linejoin="round" stroke-miterlimit="10" x1="222.295" y1="258.75" x2="222.295" y2="255.923"/>
<line fill="none" stroke="#262626" stroke-width="0.4999" stroke-linecap="square" stroke-linejoin="round" stroke-miterlimit="10" x1="316.508" y1="258.75" x2="316.508" y2="255.923"/>
<line fill="none" stroke="#262626" stroke-width="0.4999" stroke-linecap="square" stroke-linejoin="round" stroke-miterlimit="10" x1="128.082" y1="39.75" x2="128.082" y2="42.578"/>
<line fill="none" stroke="#262626" stroke-width="0.4999" stroke-linecap="square" stroke-linejoin="round" stroke-miterlimit="10" x1="222.295" y1="39.75" x2="222.295" y2="42.578"/>
<line fill="none" stroke="#262626" stroke-width="0.4999" stroke-linecap="square" stroke-linejoin="round" stroke-miterlimit="10" x1="316.508" y1="39.75" x2="316.508" y2="42.578"/>
<text transform="matrix(0.9996 0 0 1 100.3423 278.9502)" fill="#262626" font-family="'Arial-BoldMT'" font-size="15.9998">INTRA</text>
<text transform="matrix(0.9996 0 0 1 195.3057 278.9502)" fill="#262626" font-family="'Arial-BoldMT'" font-size="15.9998">INTER</text>
<text transform="matrix(0.9996 0 0 1 281.2715 278.9502)" fill="#262626" font-family="'Arial-BoldMT'" font-size="15.9998">STEREO</text>
<text transform="matrix(0.9996 0 0 1 158.5698 301.7002)" fill="#262626" font-family="'Arial-BoldMT'" font-size="17.6003">coding mode</text>
<line fill="none" stroke="#262626" stroke-width="0.4999" stroke-linecap="square" stroke-linejoin="round" stroke-miterlimit="10" x1="80.975" y1="258.75" x2="80.975" y2="39.75"/>
<line fill="none" stroke="#262626" stroke-width="0.4999" stroke-linecap="square" stroke-linejoin="round" stroke-miterlimit="10" x1="363.614" y1="258.75" x2="363.614" y2="39.75"/>
<line fill="none" stroke="#262626" stroke-width="0.4999" stroke-linecap="square" stroke-linejoin="round" stroke-miterlimit="10" x1="80.975" y1="258.75" x2="83.802" y2="258.75"/>
<line fill="none" stroke="#262626" stroke-width="0.4999" stroke-linecap="square" stroke-linejoin="round" stroke-miterlimit="10" x1="80.975" y1="227.464" x2="83.802" y2="227.464"/>
<line fill="none" stroke="#262626" stroke-width="0.4999" stroke-linecap="square" stroke-linejoin="round" stroke-miterlimit="10" x1="80.975" y1="196.179" x2="83.802" y2="196.179"/>
<line fill="none" stroke="#262626" stroke-width="0.4999" stroke-linecap="square" stroke-linejoin="round" stroke-miterlimit="10" x1="80.975" y1="164.893" x2="83.802" y2="164.893"/>
<line fill="none" stroke="#262626" stroke-width="0.4999" stroke-linecap="square" stroke-linejoin="round" stroke-miterlimit="10" x1="80.975" y1="133.607" x2="83.802" y2="133.607"/>
<line fill="none" stroke="#262626" stroke-width="0.4999" stroke-linecap="square" stroke-linejoin="round" stroke-miterlimit="10" x1="80.975" y1="102.321" x2="83.802" y2="102.321"/>
<line fill="none" stroke="#262626" stroke-width="0.4999" stroke-linecap="square" stroke-linejoin="round" stroke-miterlimit="10" x1="80.975" y1="71.036" x2="83.802" y2="71.036"/>
<line fill="none" stroke="#262626" stroke-width="0.4999" stroke-linecap="square" stroke-linejoin="round" stroke-miterlimit="10" x1="80.975" y1="39.75" x2="83.802" y2="39.75"/>
<line fill="none" stroke="#262626" stroke-width="0.4999" stroke-linecap="square" stroke-linejoin="round" stroke-miterlimit="10" x1="363.614" y1="258.75" x2="360.788" y2="258.75"/>
<line fill="none" stroke="#262626" stroke-width="0.4999" stroke-linecap="square" stroke-linejoin="round" stroke-miterlimit="10" x1="363.614" y1="227.464" x2="360.788" y2="227.464"/>
<line fill="none" stroke="#262626" stroke-width="0.4999" stroke-linecap="square" stroke-linejoin="round" stroke-miterlimit="10" x1="363.614" y1="196.179" x2="360.788" y2="196.179"/>
<line fill="none" stroke="#262626" stroke-width="0.4999" stroke-linecap="square" stroke-linejoin="round" stroke-miterlimit="10" x1="363.614" y1="164.893" x2="360.788" y2="164.893"/>
<line fill="none" stroke="#262626" stroke-width="0.4999" stroke-linecap="square" stroke-linejoin="round" stroke-miterlimit="10" x1="363.614" y1="133.607" x2="360.788" y2="133.607"/>
<line fill="none" stroke="#262626" stroke-width="0.4999" stroke-linecap="square" stroke-linejoin="round" stroke-miterlimit="10" x1="363.614" y1="102.321" x2="360.788" y2="102.321"/>
<line fill="none" stroke="#262626" stroke-width="0.4999" stroke-linecap="square" stroke-linejoin="round" stroke-miterlimit="10" x1="363.614" y1="71.036" x2="360.788" y2="71.036"/>
<line fill="none" stroke="#262626" stroke-width="0.4999" stroke-linecap="square" stroke-linejoin="round" stroke-miterlimit="10" x1="363.614" y1="39.75" x2="360.788" y2="39.75"/>
<text transform="matrix(0.9996 0 0 1 64.5317 264)" fill="#262626" font-family="'Arial-BoldMT'" font-size="15.9998">0</text>
<text transform="matrix(0.9996 0 0 1 53.2861 232.7148)" fill="#262626" font-family="'Arial-BoldMT'" font-size="15.9998">50</text>
<text transform="matrix(0.9996 0 0 1 42.0405 201.4287)" fill="#262626" font-family="'Arial-BoldMT'" font-size="15.9998">100</text>
<text transform="matrix(0.9996 0 0 1 42.0405 170.1436)" fill="#262626" font-family="'Arial-BoldMT'" font-size="15.9998">150</text>
<text transform="matrix(0.9996 0 0 1 42.0405 138.8569)" fill="#262626" font-family="'Arial-BoldMT'" font-size="15.9998">200</text>
<text transform="matrix(0.9996 0 0 1 42.0405 107.5713)" fill="#262626" font-family="'Arial-BoldMT'" font-size="15.9998">250</text>
<text transform="matrix(0.9996 0 0 1 42.0405 76.2856)" fill="#262626" font-family="'Arial-BoldMT'" font-size="15.9998">300</text>
<text transform="matrix(0.9996 0 0 1 42.0405 45)" fill="#262626" font-family="'Arial-BoldMT'" font-size="15.9998">350</text>
<text transform="matrix(-4.335037e-008 -1.0004 1 -4.335037e-008 34.5439 227.25)" fill="#262626" font-family="'Arial-BoldMT'" font-size="17.5933">bits per feature</text>
<rect x="173.938" y="48" fill="#FFFFFF" width="181.429" height="90.75"/>
<text transform="matrix(0.9996 0 0 1 209.1748 63)" font-family="'Arial-BoldMT'" font-size="14.4">residual</text>
<rect x="176.938" y="51.225" fill="#0072BD" width="29.988" height="13.8"/>
<rect x="176.938" y="51.225" fill="none" stroke="#000000" stroke-width="0.4999" stroke-miterlimit="10" width="29.988" height="13.8"/>
<text transform="matrix(0.9996 0 0 1 209.1748 80.625)" font-family="'Arial-BoldMT'" font-size="14.4">keypoints</text>
<rect x="176.938" y="68.85" fill="#77AC30" width="29.988" height="13.8"/>
<rect x="176.938" y="68.85" fill="none" stroke="#000000" stroke-width="0.4999" stroke-miterlimit="10" width="29.988" height="13.8"/>
<text transform="matrix(0.9996 0 0 1 209.1748 98.25)" font-family="'Arial-BoldMT'" font-size="14.4">visual word index</text>
<rect x="176.938" y="86.475" fill="#D95319" width="29.988" height="13.8"/>
<rect x="176.938" y="86.475" fill="none" stroke="#000000" stroke-width="0.4999" stroke-miterlimit="10" width="29.988" height="13.8"/>
<text transform="matrix(0.9996 0 0 1 209.1748 115.875)" font-family="'Arial-BoldMT'" font-size="14.4">reference feature</text>
<rect x="176.938" y="104.1" fill="#EDB120" width="29.988" height="13.8"/>
<rect x="176.938" y="104.1" fill="none" stroke="#000000" stroke-width="0.4999" stroke-miterlimit="10" width="29.988" height="13.8"/>
<text transform="matrix(0.9996 0 0 1 209.1748 133.5)" font-family="'Arial-BoldMT'" font-size="14.4">coding mode</text>
<rect x="176.938" y="121.725" fill="#7E2F8E" width="29.988" height="13.8"/>
<rect x="176.938" y="121.725" fill="none" stroke="#000000" stroke-width="0.4999" stroke-miterlimit="10" width="29.988" height="13.8"/>
<rect x="173.938" y="48" fill="none" stroke="#262626" stroke-width="0.4999" stroke-miterlimit="10" width="181.429" height="90.75"/>
</svg>
