<?xml version="1.0" encoding="utf-8"?>
<!-- Generator: Adobe Illustrator 16.0.3, SVG Export Plug-In . SVG Version: 6.00 Build 0)  -->
<!DOCTYPE svg PUBLIC "-//W3C//DTD SVG 1.1//EN" "http://www.w3.org/Graphics/SVG/1.1/DTD/svg11.dtd">
<svg version="1.1" id="Ebene_1" xmlns="http://www.w3.org/2000/svg" xmlns:xlink="http://www.w3.org/1999/xlink" x="0px" y="0px"
	 width="418px" height="324px" viewBox="0 0 418 324" enable-background="new 0 0 418 324" xml:space="preserve">
<g>
	<defs>
		<rect id="SVGID_1_" x="18" y="18" width="381.6" height="288"/>
	</defs>
	<clipPath id="SVGID_2_">
		<use xlink:href="#SVGID_1_"  overflow="visible"/>
	</clipPath>
	<rect x="18" y="18" clip-path="url(#SVGID_2_)" fill="#FFFFFF" width="381.6" height="288"/>
</g>
<rect x="18" y="18" fill="#FFFFFF" width="381.6" height="288"/>
<rect x="80.975" y="39.75" fill="#FFFFFF" width="282.639" height="219"/>
<line opacity="0.149" fill="none" stroke="#262626" stroke-width="0.4999" stroke-linejoin="round" stroke-miterlimit="10" x1="116.305" y1="258.75" x2="116.305" y2="39.75"/>
<line opacity="0.149" fill="none" stroke="#262626" stroke-width="0.4999" stroke-linejoin="round" stroke-miterlimit="10" x1="186.965" y1="258.75" x2="186.965" y2="39.75"/>
<line opacity="0.149" fill="none" stroke="#262626" stroke-width="0.4999" stroke-linejoin="round" stroke-miterlimit="10" x1="257.625" y1="258.75" x2="257.625" y2="39.75"/>
<line opacity="0.149" fill="none" stroke="#262626" stroke-width="0.4999" stroke-linejoin="round" stroke-miterlimit="10" x1="328.284" y1="258.75" x2="328.284" y2="39.75"/>
<line opacity="0.149" fill="none" stroke="#262626" stroke-width="0.4999" stroke-linejoin="round" stroke-miterlimit="10" x1="363.614" y1="258.75" x2="80.975" y2="258.75"/>
<line opacity="0.149" fill="none" stroke="#262626" stroke-width="0.4999" stroke-linejoin="round" stroke-miterlimit="10" x1="363.614" y1="227.464" x2="80.975" y2="227.464"/>
<line opacity="0.149" fill="none" stroke="#262626" stroke-width="0.4999" stroke-linejoin="round" stroke-miterlimit="10" x1="363.614" y1="196.179" x2="80.975" y2="196.179"/>
<line opacity="0.149" fill="none" stroke="#262626" stroke-width="0.4999" stroke-linejoin="round" stroke-miterlimit="10" x1="363.614" y1="164.893" x2="80.975" y2="164.893"/>
<line opacity="0.149" fill="none" stroke="#262626" stroke-width="0.4999" stroke-linejoin="round" stroke-miterlimit="10" x1="363.614" y1="133.607" x2="80.975" y2="133.607"/>
<line opacity="0.149" fill="none" stroke="#262626" stroke-width="0.4999" stroke-linejoin="round" stroke-miterlimit="10" x1="363.614" y1="102.321" x2="80.975" y2="102.321"/>
<line opacity="0.149" fill="none" stroke="#262626" stroke-width="0.4999" stroke-linejoin="round" stroke-miterlimit="10" x1="363.614" y1="71.036" x2="80.975" y2="71.036"/>
<line opacity="0.149" fill="none" stroke="#262626" stroke-width="0.4999" stroke-linejoin="round" stroke-miterlimit="10" x1="363.614" y1="39.75" x2="80.975" y2="39.75"/>
<line fill="none" stroke="#262626" stroke-width="0.4999" stroke-linejoin="round" stroke-miterlimit="10" x1="80.975" y1="258.75" x2="363.614" y2="258.75"/>
<path fill="#0072BD" d="M275.289,258.75v-78.279H239.96v78.279H275.289z M204.63,258.75v-62.115H169.3v62.115H204.63z
	 M133.97,258.75V143.854H98.64V258.75H133.97z"/>
<rect x="98.64" y="143.854" fill="none" stroke="#000000" stroke-width="0.4999" stroke-miterlimit="10" width="35.33" height="114.896"/>
<rect x="169.3" y="196.635" fill="none" stroke="#000000" stroke-width="0.4999" stroke-miterlimit="10" width="35.33" height="62.115"/>
<rect x="239.96" y="180.471" fill="none" stroke="#000000" stroke-width="0.4999" stroke-miterlimit="10" width="35.329" height="78.279"/>
<polygon fill="none" stroke="#000000" stroke-width="0.4999" stroke-miterlimit="10" points="310.619,258.75 310.619,258.75 
	345.949,258.75 "/>
<path fill="#77AC30" d="M275.289,180.471V170.33H239.96v10.141H275.289z M204.63,196.635v-6.939H169.3v6.939H204.63z
	 M133.97,143.854V128.17H98.64v15.684H133.97z"/>
<rect x="98.64" y="128.17" fill="none" stroke="#000000" stroke-width="0.4999" stroke-miterlimit="10" width="35.33" height="15.684"/>
<rect x="169.3" y="189.695" fill="none" stroke="#000000" stroke-width="0.4999" stroke-miterlimit="10" width="35.33" height="6.939"/>
<rect x="239.96" y="170.33" fill="none" stroke="#000000" stroke-width="0.4999" stroke-miterlimit="10" width="35.329" height="10.141"/>
<polygon fill="none" stroke="#000000" stroke-width="0.4999" stroke-miterlimit="10" points="310.619,258.75 310.619,258.75 
	345.949,258.75 "/>
<rect x="98.64" y="117.599" fill="#D95319" width="35.33" height="10.572"/>
<rect x="98.64" y="117.599" fill="none" stroke="#000000" stroke-width="0.4999" stroke-miterlimit="10" width="35.33" height="10.572"/>
<polygon fill="none" stroke="#000000" stroke-width="0.4999" stroke-miterlimit="10" points="169.3,189.695 169.3,189.695 
	204.63,189.695 "/>
<polygon fill="none" stroke="#000000" stroke-width="0.4999" stroke-miterlimit="10" points="239.96,170.33 239.96,170.33 
	275.289,170.33 "/>
<polygon fill="none" stroke="#000000" stroke-width="0.4999" stroke-miterlimit="10" points="310.619,258.75 310.619,258.75 
	345.949,258.75 "/>
<path fill="#EDB120" d="M345.949,258.75v-8.313h-35.33v8.313H345.949z M275.289,170.33v-7.056H239.96v7.056H275.289z
	 M204.63,189.695v-8.32H169.3v8.32H204.63z"/>
<polygon fill="none" stroke="#000000" stroke-width="0.4999" stroke-miterlimit="10" points="98.64,117.599 98.64,117.599 
	133.97,117.599 "/>
<rect x="169.3" y="181.375" fill="none" stroke="#000000" stroke-width="0.4999" stroke-miterlimit="10" width="35.33" height="8.32"/>
<rect x="239.96" y="163.274" fill="none" stroke="#000000" stroke-width="0.4999" stroke-miterlimit="10" width="35.329" height="7.056"/>
<rect x="310.619" y="250.437" fill="none" stroke="#000000" stroke-width="0.4999" stroke-miterlimit="10" width="35.33" height="8.313"/>
<path fill="#7E2F8E" d="M345.949,250.437v-1.251h-35.33v1.251H345.949z M275.289,163.274v-1.251H239.96v1.251H275.289z
	 M204.63,181.375v-1.251H169.3v1.251H204.63z M133.97,117.599v-1.251H98.64v1.251H133.97z"/>
<rect x="98.64" y="116.347" fill="none" stroke="#000000" stroke-width="0.4999" stroke-miterlimit="10" width="35.33" height="1.251"/>
<rect x="169.3" y="180.124" fill="none" stroke="#000000" stroke-width="0.4999" stroke-miterlimit="10" width="35.33" height="1.251"/>
<rect x="239.96" y="162.023" fill="none" stroke="#000000" stroke-width="0.4999" stroke-miterlimit="10" width="35.329" height="1.251"/>
<rect x="310.619" y="249.186" fill="none" stroke="#000000" stroke-width="0.4999" stroke-miterlimit="10" width="35.33" height="1.251"/>
<line fill="none" stroke="#262626" stroke-width="0.4999" stroke-linecap="square" stroke-linejoin="round" stroke-miterlimit="10" x1="80.975" y1="258.75" x2="363.614" y2="258.75"/>
<line fill="none" stroke="#262626" stroke-width="0.4999" stroke-linecap="square" stroke-linejoin="round" stroke-miterlimit="10" x1="80.975" y1="39.75" x2="363.614" y2="39.75"/>
<line fill="none" stroke="#262626" stroke-width="0.4999" stroke-linecap="square" stroke-linejoin="round" stroke-miterlimit="10" x1="116.305" y1="258.75" x2="116.305" y2="255.923"/>
<line fill="none" stroke="#262626" stroke-width="0.4999" stroke-linecap="square" stroke-linejoin="round" stroke-miterlimit="10" x1="186.965" y1="258.75" x2="186.965" y2="255.923"/>
<line fill="none" stroke="#262626" stroke-width="0.4999" stroke-linecap="square" stroke-linejoin="round" stroke-miterlimit="10" x1="257.625" y1="258.75" x2="257.625" y2="255.923"/>
<line fill="none" stroke="#262626" stroke-width="0.4999" stroke-linecap="square" stroke-linejoin="round" stroke-miterlimit="10" x1="328.284" y1="258.75" x2="328.284" y2="255.923"/>
<line fill="none" stroke="#262626" stroke-width="0.4999" stroke-linecap="square" stroke-linejoin="round" stroke-miterlimit="10" x1="116.305" y1="39.75" x2="116.305" y2="42.578"/>
<line fill="none" stroke="#262626" stroke-width="0.4999" stroke-linecap="square" stroke-linejoin="round" stroke-miterlimit="10" x1="186.965" y1="39.75" x2="186.965" y2="42.578"/>
<line fill="none" stroke="#262626" stroke-width="0.4999" stroke-linecap="square" stroke-linejoin="round" stroke-miterlimit="10" x1="257.625" y1="39.75" x2="257.625" y2="42.578"/>
<line fill="none" stroke="#262626" stroke-width="0.4999" stroke-linecap="square" stroke-linejoin="round" stroke-miterlimit="10" x1="328.284" y1="39.75" x2="328.284" y2="42.578"/>
<text transform="matrix(0.9996 0 0 1 88.5659 278.9502)" fill="#262626" font-family="'Arial-BoldMT'" font-size="15.9998">INTRA</text>
<text transform="matrix(0.9996 0 0 1 159.9756 278.9502)" fill="#262626" font-family="'Arial-BoldMT'" font-size="15.9998">INTER</text>
<text transform="matrix(0.9996 0 0 1 222.3887 278.9502)" fill="#262626" font-family="'Arial-BoldMT'" font-size="15.9998">STEREO</text>
<text transform="matrix(0.9996 0 0 1 307.293 278.9502)" fill="#262626" font-family="'Arial-BoldMT'" font-size="15.9998">SKIP</text>
<text transform="matrix(0.9996 0 0 1 158.5698 301.7002)" fill="#262626" font-family="'Arial-BoldMT'" font-size="17.6003">coding mode</text>
<line fill="none" stroke="#262626" stroke-width="0.4999" stroke-linecap="square" stroke-linejoin="round" stroke-miterlimit="10" x1="80.975" y1="258.75" x2="80.975" y2="39.75"/>
<line fill="none" stroke="#262626" stroke-width="0.4999" stroke-linecap="square" stroke-linejoin="round" stroke-miterlimit="10" x1="363.614" y1="258.75" x2="363.614" y2="39.75"/>
<line fill="none" stroke="#262626" stroke-width="0.4999" stroke-linecap="square" stroke-linejoin="round" stroke-miterlimit="10" x1="80.975" y1="258.75" x2="83.802" y2="258.75"/>
<line fill="none" stroke="#262626" stroke-width="0.4999" stroke-linecap="square" stroke-linejoin="round" stroke-miterlimit="10" x1="80.975" y1="227.464" x2="83.802" y2="227.464"/>
<line fill="none" stroke="#262626" stroke-width="0.4999" stroke-linecap="square" stroke-linejoin="round" stroke-miterlimit="10" x1="80.975" y1="196.179" x2="83.802" y2="196.179"/>
<line fill="none" stroke="#262626" stroke-width="0.4999" stroke-linecap="square" stroke-linejoin="round" stroke-miterlimit="10" x1="80.975" y1="164.893" x2="83.802" y2="164.893"/>
<line fill="none" stroke="#262626" stroke-width="0.4999" stroke-linecap="square" stroke-linejoin="round" stroke-miterlimit="10" x1="80.975" y1="133.607" x2="83.802" y2="133.607"/>
<line fill="none" stroke="#262626" stroke-width="0.4999" stroke-linecap="square" stroke-linejoin="round" stroke-miterlimit="10" x1="80.975" y1="102.321" x2="83.802" y2="102.321"/>
<line fill="none" stroke="#262626" stroke-width="0.4999" stroke-linecap="square" stroke-linejoin="round" stroke-miterlimit="10" x1="80.975" y1="71.036" x2="83.802" y2="71.036"/>
<line fill="none" stroke="#262626" stroke-width="0.4999" stroke-linecap="square" stroke-linejoin="round" stroke-miterlimit="10" x1="80.975" y1="39.75" x2="83.802" y2="39.75"/>
<line fill="none" stroke="#262626" stroke-width="0.4999" stroke-linecap="square" stroke-linejoin="round" stroke-miterlimit="10" x1="363.614" y1="258.75" x2="360.788" y2="258.75"/>
<line fill="none" stroke="#262626" stroke-width="0.4999" stroke-linecap="square" stroke-linejoin="round" stroke-miterlimit="10" x1="363.614" y1="227.464" x2="360.788" y2="227.464"/>
<line fill="none" stroke="#262626" stroke-width="0.4999" stroke-linecap="square" stroke-linejoin="round" stroke-miterlimit="10" x1="363.614" y1="196.179" x2="360.788" y2="196.179"/>
<line fill="none" stroke="#262626" stroke-width="0.4999" stroke-linecap="square" stroke-linejoin="round" stroke-miterlimit="10" x1="363.614" y1="164.893" x2="360.788" y2="164.893"/>
<line fill="none" stroke="#262626" stroke-width="0.4999" stroke-linecap="square" stroke-linejoin="round" stroke-miterlimit="10" x1="363.614" y1="133.607" x2="360.788" y2="133.607"/>
<line fill="none" stroke="#262626" stroke-width="0.4999" stroke-linecap="square" stroke-linejoin="round" stroke-miterlimit="10" x1="363.614" y1="102.321" x2="360.788" y2="102.321"/>
<line fill="none" stroke="#262626" stroke-width="0.4999" stroke-linecap="square" stroke-linejoin="round" stroke-miterlimit="10" x1="363.614" y1="71.036" x2="360.788" y2="71.036"/>
<line fill="none" stroke="#262626" stroke-width="0.4999" stroke-linecap="square" stroke-linejoin="round" stroke-miterlimit="10" x1="363.614" y1="39.75" x2="360.788" y2="39.75"/>
<text transform="matrix(0.9996 0 0 1 64.5317 264)" fill="#262626" font-family="'Arial-BoldMT'" font-size="15.9998">0</text>
<text transform="matrix(0.9996 0 0 1 53.2861 232.7148)" fill="#262626" font-family="'Arial-BoldMT'" font-size="15.9998">50</text>
<text transform="matrix(0.9996 0 0 1 42.0405 201.4287)" fill="#262626" font-family="'Arial-BoldMT'" font-size="15.9998">100</text>
<text transform="matrix(0.9996 0 0 1 42.0405 170.1436)" fill="#262626" font-family="'Arial-BoldMT'" font-size="15.9998">150</text>
<text transform="matrix(0.9996 0 0 1 42.0405 138.8569)" fill="#262626" font-family="'Arial-BoldMT'" font-size="15.9998">200</text>
<text transform="matrix(0.9996 0 0 1 42.0405 107.5713)" fill="#262626" font-family="'Arial-BoldMT'" font-size="15.9998">250</text>
<text transform="matrix(0.9996 0 0 1 42.0405 76.2856)" fill="#262626" font-family="'Arial-BoldMT'" font-size="15.9998">300</text>
<text transform="matrix(0.9996 0 0 1 42.0405 45)" fill="#262626" font-family="'Arial-BoldMT'" font-size="15.9998">350</text>
<text transform="matrix(-4.335037e-008 -1.0004 1 -4.335037e-008 34.5439 227.25)" fill="#262626" font-family="'Arial-BoldMT'" font-size="17.5933">bits per feature</text>
<rect x="173.938" y="48" fill="#FFFFFF" width="181.429" height="90.75"/>
<text transform="matrix(0.9996 0 0 1 209.1748 63)" font-family="'Arial-BoldMT'" font-size="14.4">residual</text>
<rect x="176.938" y="51.225" fill="#0072BD" width="29.988" height="13.8"/>
<rect x="176.938" y="51.225" fill="none" stroke="#000000" stroke-width="0.4999" stroke-miterlimit="10" width="29.988" height="13.8"/>
<text transform="matrix(0.9996 0 0 1 209.1748 80.625)" font-family="'Arial-BoldMT'" font-size="14.4">keypoints</text>
<rect x="176.938" y="68.85" fill="#77AC30" width="29.988" height="13.8"/>
<rect x="176.938" y="68.85" fill="none" stroke="#000000" stroke-width="0.4999" stroke-miterlimit="10" width="29.988" height="13.8"/>
<text transform="matrix(0.9996 0 0 1 209.1748 98.25)" font-family="'Arial-BoldMT'" font-size="14.4">visual word index</text>
<rect x="176.938" y="86.475" fill="#D95319" width="29.988" height="13.8"/>
<rect x="176.938" y="86.475" fill="none" stroke="#000000" stroke-width="0.4999" stroke-miterlimit="10" width="29.988" height="13.8"/>
<text transform="matrix(0.9996 0 0 1 209.1748 115.875)" font-family="'Arial-BoldMT'" font-size="14.4">reference feature</text>
<rect x="176.938" y="104.1" fill="#EDB120" width="29.988" height="13.8"/>
<rect x="176.938" y="104.1" fill="none" stroke="#000000" stroke-width="0.4999" stroke-miterlimit="10" width="29.988" height="13.8"/>
<text transform="matrix(0.9996 0 0 1 209.1748 133.5)" font-family="'Arial-BoldMT'" font-size="14.4">coding mode</text>
<rect x="176.938" y="121.725" fill="#7E2F8E" width="29.988" height="13.8"/>
<rect x="176.938" y="121.725" fill="none" stroke="#000000" stroke-width="0.4999" stroke-miterlimit="10" width="29.988" height="13.8"/>
<rect x="173.938" y="48" fill="none" stroke="#262626" stroke-width="0.4999" stroke-miterlimit="10" width="181.429" height="90.75"/>
</svg>
